{
.appVersion = "3246";
.formatVersion = 3;
axes = (
{
name = "Optical size";
tag = opsz;
},
{
name = Weight;
tag = wght;
}
);
customParameters = (
{
name = fsType;
value = (
);
},
{
name = "Use Typo Metrics";
value = 1;
},
{
name = blueScale;
value = 0.04;
},
{
name = blueShift;
value = 7;
},
{
name = blueFuzz;
value = 1;
},
{
name = TTFBlueFuzz;
value = 1;
},
{
name = "Variable Font Origin";
value = "462F72A0-0500-4E69-A49B-6C2F2580580D";
},
{
name = "Axis Mappings";
value = {
opsz = {
6 = 6;
12 = 12;
24 = 24;
48 = 48;
72 = 72;
};
};
},
{
name = "Use Extension Kerning";
value = 1;
}
);
date = "2023-10-26 19:26:02 +0000";
familyName = Jaro;
featurePrefixes = (
{
automatic = 1;
code = "languagesystem DFLT dflt;

languagesystem latn dflt;
languagesystem latn AZE;
languagesystem latn CRT;
languagesystem latn KAZ;
languagesystem latn TAT;
languagesystem latn TRK;
languagesystem latn ROM;
languagesystem latn MOL;
languagesystem latn MAH;
languagesystem latn NSM;
languagesystem latn CAT;
languagesystem latn NLD;
";
name = Languagesystems;
}
);
features = (
{
automatic = 1;
code = "feature locl;
feature subs;
feature sinf;
feature sups;
feature numr;
feature dnom;
feature frac;
feature ordn;
feature pnum;
feature tnum;
feature case;
";
tag = aalt;
},
{
automatic = 1;
code = "lookup ccmp_DFLT_1 {
	lookupflag 0;
	sub acutecomb macroncomb by acutecomb_macroncomb;
	sub brevecomb acutecomb by brevecomb_acutecomb;
	sub brevecomb gravecomb by brevecomb_gravecomb;
	sub brevecomb hookabovecomb by brevecomb_hookabovecomb;
	sub brevecomb tildecomb by brevecomb_tildecomb;
	sub circumflexcomb acutecomb by circumflexcomb_acutecomb;
	sub circumflexcomb gravecomb by circumflexcomb_gravecomb;
	sub circumflexcomb hookabovecomb by circumflexcomb_hookabovecomb;
	sub circumflexcomb tildecomb by circumflexcomb_tildecomb;
	sub gravecomb macroncomb by gravecomb_macroncomb;
	sub macroncomb acutecomb by macroncomb_acutecomb;
	sub macroncomb gravecomb by macroncomb_gravecomb;

glyphs = (
{
glyphname = A;
kernLeft = KO_A;
kernRight = KO_A;
lastChange = "2024-02-21 10:31:13 +0000";
layers = (
{
anchors = (
{
name = bottom;
pos = (498,-50);
},
{
name = ogonek;
pos = (875,17);
},
{
name = top;
pos = (498,1323);
}
);
associatedMasterId = "462F72A0-0500-4E69-A49B-6C2F2580580D";
layerId = "C8E13D57-C79D-4678-A318-908658594FF3";
name = Original;
shapes = (
{
closed = 1;
nodes = (
(432,0,ls),
(447,0,o),
(457,10,o),
(457,25,cs),
(457,380,l),
(540,380,l),
(540,25,ls),
(540,10,o),
(550,0,o),
(565,0,cs),
(922,0,ls),
(937,0,o),
(947,10,o),
(947,25,cs),
(947,952,ls),
(947,963,o),
(943,972,o),
(937,982,cs),
(700,1318,ls),
(693,1328,o),
(682,1333,o),
(668,1333,cs),
(327,1333,ls),
(313,1333,o),
(302,1328,o),
(295,1318,cs),
(60,982,ls),
(53,972,o),
(50,963,o),
(50,952,cs),
(50,25,ls),
(50,10,o),
(60,0,o),
(75,0,cs)
);
},
{
closed = 1;
nodes = (
(443,728,o),
(402,772,o),
(402,825,cs),
(402,878,o),
(443,922,o),
(497,922,cs),
(550,922,o),
(593,878,o),
(593,825,cs),
(593,772,o),
(550,728,o),
(497,728,cs)
);
}
);
width = 997;
},
{
anchors = (
{
name = bottom;
pos = (513,-50);
},
{
name = ogonek;
pos = (890,17);
},
{
name = top;
pos = (505,1323);
}
);
associatedMasterId = "462F72A0-0500-4E69-A49B-6C2F2580580D";
layerId = "795BAFE1-3A72-4A2A-BBB9-32C5EC2E3B2A";
name = "Jun 2 22, 02:32";
shapes = (
{
closed = 1;
nodes = (
(432,0,ls),
(447,0,o),
(457,10,o),
(457,25,cs),
(457,380,l),
(553,380,l),
(553,25,ls),
(553,10,o),
(563,0,o),
(578,0,cs),
(935,0,ls),
(950,0,o),
(960,10,o),
(960,25,cs),
(960,952,ls),
(960,963,o),
(957,972,o),
(950,982,cs),
(713,1318,ls),
(707,1328,o),
(695,1333,o),
(682,1333,cs),
(327,1333,ls),
(313,1333,o),
(302,1328,o),
(295,1318,cs),
(60,982,ls),
(53,972,o),
(50,963,o),
(50,952,cs),
(50,25,ls),
(50,10,o),
(60,0,o),
(75,0,cs)
);
},
{
closed = 1;
nodes = (
(448,728,o),
(408,768,o),
(408,825,cs),
(408,882,o),
(448,922,o),
(505,922,cs),
(562,922,o),
(602,882,o),
(602,825,cs),
(602,768,o),
(562,728,o),
(505,728,cs)
);
}
);
width = 1010;
},
{
anchors = (
{
name = bottom;
pos = (558,5);
},
{
name = ogonek;
pos = (978,0);
},
{
name = top;
pos = (558,1333);
}
);
guides = (
{
angle = 90;
pos = (335,412);
showMeasurement = 1;
},
{
pos = (252,506);
showMeasurement = 1;
}
);
layerId = "462F72A0-0500-4E69-A49B-6C2F2580580D";
shapes = (
{
closed = 1;
nodes = (
(422,0,ls),
(437,0,o),
(447,10,o),
(447,25,cs),
(447,450,l),
(670,450,l),
(670,25,ls),
(670,10,o),
(680,0,o),
(695,0,cs),
(978,0,ls),
(993,0,o),
(1003,10,o),
(1003,25,cs),
(1003,952,ls),
(1003,963,o),
(1000,972,o),
(993,982,cs),
(755,1318,ls),
(748,1328,o),
(737,1333,o),
(723,1333,cs),
(392,1333,ls),
(378,1333,o),
(367,1328,o),
(360,1318,cs),
(123,982,ls),
(117,972,o),
(113,963,o),
(113,952,cs),
(113,25,ls),
(113,10,o),
(123,0,o),
(138,0,cs)
);
},
{
closed = 1;
nodes = (
(437,665,o),
(402,708,o),
(402,860,cs),
(402,1012,o),
(437,1055,o),
(558,1055,cs),
(680,1055,o),
(715,1012,o),
(715,860,cs),
(715,708,o),
(680,665,o),
(558,665,cs)
);
}
);
width = 1117;
},
{
anchors = (
{
name = bottom;
pos = (498,-50);
},
{
name = ogonek;
pos = (875,17);
},
{
name = top;
pos = (498,1323);
}
);
associatedMasterId = m002;
layerId = "A8113C6D-81AB-4E55-9014-C6527FA75F3F";
name = Original;
shapes = (
{
closed = 1;
nodes = (
(432,0,ls),
(447,0,o),
(457,10,o),
(457,25,cs),
(457,380,l),
(540,380,l),
(540,25,ls),
(540,10,o),
(550,0,o),
(565,0,cs),
(922,0,ls),
(937,0,o),
(947,10,o),
(947,25,cs),
(947,952,ls),
(947,963,o),
(943,972,o),
(937,982,cs),
(700,1318,ls),
(693,1328,o),
(682,1333,o),
(668,1333,cs),
(327,1333,ls),
(313,1333,o),
(302,1328,o),
(295,1318,cs),
(60,982,ls),
(53,972,o),
(50,963,o),
(50,952,cs),
(50,25,ls),
(50,10,o),
(60,0,o),
(75,0,cs)
);
},
{
closed = 1;
nodes = (
(443,728,o),
(402,772,o),
(402,825,cs),
(402,878,o),
(443,922,o),
(497,922,cs),
(550,922,o),
(593,878,o),
(593,825,cs),
(593,772,o),
(550,728,o),
(497,728,cs)
);
}
);
width = 997;
},
{
anchors = (
{
name = bottom;
pos = (513,-50);
},
{
name = ogonek;
pos = (890,17);
},
{
name = top;
pos = (505,1323);
}
);
associatedMasterId = m002;
layerId = "CE724D9E-50D4-4E90-B553-3E1D9AD2CCD1";
name = "Jun 2 22, 02:32";
shapes = (
{
closed = 1;
nodes = (
(432,0,ls),
(447,0,o),
(457,10,o),
(457,25,cs),
(457,380,l),
(553,380,l),
(553,25,ls),
(553,10,o),
(563,0,o),
(578,0,cs),
(935,0,ls),
(950,0,o),
(960,10,o),
(960,25,cs),
(960,952,ls),
(960,963,o),
(957,972,o),
(950,982,cs),
(713,1318,ls),
(707,1328,o),
(695,1333,o),
(682,1333,cs),
(327,1333,ls),
(313,1333,o),
(302,1328,o),
(295,1318,cs),
(60,982,ls),
(53,972,o),
(50,963,o),
(50,952,cs),
(50,25,ls),
(50,10,o),
(60,0,o),
(75,0,cs)
);
},
{
closed = 1;
nodes = (
(448,728,o),
(408,768,o),
(408,825,cs),
(408,882,o),
(448,922,o),
(505,922,cs),
(562,922,o),
(602,882,o),
(602,825,cs),
(602,768,o),
(562,728,o),
(505,728,cs)
);
}
);
width = 1010;
},
{
anchors = (
{
name = bottom;
pos = (500,0);
},
{
name = ogonek;
pos = (933,0);
},
{
name = top;
pos = (500,1333);
}
);
guides = (
{
angle = 90;
pos = (300,0);
showMeasurement = 1;
}
);
layerId = m002;
shapes = (
{
closed = 1;
nodes = (
(433,0,ls),
(448,0,o),
(458,10,o),
(458,25,cs),
(458,400,l),
(542,400,l),
(542,25,ls),
(542,10,o),
(552,0,o),
(567,0,cs),
(933,0,ls),
(948,0,o),
(958,10,o),
(958,25,cs),
(958,952,ls),
(958,963,o),
(955,972,o),
(948,982,cs),
(710,1318,ls),
(703,1328,o),
(692,1333,o),
(678,1333,cs),
(320,1333,ls),
(307,1333,o),
(295,1328,o),
(288,1318,cs),
(52,982,ls),
(45,972,o),
(42,963,o),
(42,952,cs),
(42,25,ls),
(42,10,o),
(52,0,o),
(67,0,cs)
);
},
{
closed = 1;
nodes = (
(443,747,o),
(403,787,o),
(403,843,cs),
(403,900,o),
(443,940,o),
(500,940,cs),
(557,940,o),
(597,900,o),
(597,843,cs),
(597,787,o),
(557,747,o),
(500,747,cs)
);
}
);
width = 1000;
}
);
unicode = 65;
userData = {
KernOnName = A;
};
},
{
glyphname = "Alpha-latin";
lastChange = "2024-02-21 10:31:13 +0000";
layers = (
{
anchors = (
{
name = bottom;
pos = (522,0);
},
{
name = top;
pos = (522,1333);
}
);
layerId = "462F72A0-0500-4E69-A49B-6C2F2580580D";
shapes = (
{
closed = 1;
nodes = (
(523,0,ls),
(540,0,o),
(552,5,o),
(563,17,cs),
(613,67,l),
(663,17,ls),
(673,7,o),
(680,0,o),
(697,0,cs),
(905,0,ls),
(920,0,o),
(930,10,o),
(930,25,cs),
(930,1308,ls),
(930,1323,o),
(920,1333,o),
(905,1333,cs),
(370,1333,ls),
(353,1333,o),
(342,1328,o),
(330,1317,cs),
(130,1117,ls),
(118,1105,o),
(113,1093,o),
(113,1077,cs),
(113,257,ls),
(113,240,o),
(118,228,o),
(130,217,cs),
(330,17,ls),
(342,5,o),
(353,0,o),
(370,0,cs)
);
},
{
closed = 1;
nodes = (
(443,233,o),
(430,248,o),
(430,292,cs),
(430,1042,ls),
(430,1085,o),
(443,1100,o),
(487,1100,cs),
(613,1100,l),
(613,292,ls),
(613,248,o),
(600,233,o),
(557,233,cs),
(487,233,ls)
);
}
);
width = 1043;
},
{
anchors = (
{
name = bottom;
pos = (450,0);
},
{
name = top;
pos = (450,1333);
}
);
layerId = m002;
shapes = (
{
closed = 1;
nodes = (
(402,0,ls),
(418,0,o),
(430,5,o),
(442,17,cs),
(492,67,l),
(542,17,ls),
(553,5,o),
(563,0,o),
(582,0,cs),
(833,0,ls),
(848,0,o),
(858,10,o),
(858,25,cs),
(858,1308,ls),
(858,1323,o),
(848,1333,o),
(833,1333,cs),
(298,1333,ls),
(282,1333,o),
(270,1328,o),
(258,1317,cs),
(58,1117,ls),
(47,1105,o),
(42,1093,o),
(42,1077,cs),
(42,257,ls),
(42,240,o),
(47,228,o),
(58,217,cs),
(258,17,ls),
(270,5,o),
(282,0,o),
(298,0,cs)
);
},
{
closed = 1;
nodes = (
(422,333,o),
(408,348,o),
(408,375,cs),
(408,958,ls),
(408,985,o),
(423,1000,o),
(450,1000,cs),
(492,1000,l),
(492,375,ls),
(492,348,o),
(478,333,o),
(452,333,cs),
(448,333,ls)
);
}
);
width = 900;
}
);
metricLeft = o;
metricRight = o;
unicode = 11373;
},
{
glyphname = Astroke;
lastChange = "2024-02-21 10:31:13 +0000";
layers = (
{
layerId = "462F72A0-0500-4E69-A49B-6C2F2580580D";
shapes = (
{
closed = 1;
nodes = (
(785,1035,ls),
(798,1035,o),
(808,1038,o),
(815,1052,cs),
(955,1303,ls),
(965,1322,o),
(955,1333,o),
(937,1333,cs),
(825,1333,ls),
(812,1333,o),
(802,1330,o),
(795,1317,cs),
(655,1065,ls),
(645,1047,o),
(653,1035,o),
(672,1035,cs)
);
},
{
closed = 1;
nodes = (
(225,-98,ls),
(238,-98,o),
(248,-95,o),
(255,-82,cs),
(395,170,ls),
(405,188,o),
(395,200,o),
(377,200,cs),
(265,200,ls),
(252,200,o),
(242,197,o),
(235,183,cs),
(95,-68,ls),
(85,-87,o),
(93,-98,o),
(112,-98,cs)
);
},
{
ref = A;
}
);
width = 940;
},
{
layerId = m002;
shapes = (
{
closed = 1;
nodes = (
(765,1035,ls),
(778,1035,o),
(788,1038,o),
(795,1052,cs),
(935,1303,ls),
(945,1322,o),
(935,1333,o),
(917,1333,cs),
(805,1333,ls),
(792,1333,o),
(782,1330,o),
(775,1317,cs),
(635,1065,ls),
(625,1047,o),
(633,1035,o),
(652,1035,cs)
);
},
{
closed = 1;
nodes = (
(205,-98,ls),
(218,-98,o),
(228,-95,o),
(235,-82,cs),
(375,170,ls),
(385,188,o),
(375,200,o),
(357,200,cs),
(245,200,ls),
(232,200,o),
(222,197,o),
(215,183,cs),
(75,-68,ls),
(65,-87,o),
(73,-98,o),
(92,-98,cs)
);
},
{
ref = A;
}
);
width = 940;
}
);
unicode = 570;
},
{
glyphname = AE;
kernLeft = KO_A;
kernRight = KO_E;
lastChange = "2024-02-21 10:31:13 +0000";
layers = (
{
anchors = (
{
name = bottom;
pos = (850,0);
},
{
name = top;
pos = (850,1333);
}
);
annotations = (
{
pos = (854,522);
type = Arrow;
}
);
background = {
shapes = (
{
closed = 1;
nodes = (
(495,0,ls),
(510,0,o),
(520,10,o),
(520,25,cs),
(520,380,l),
(603,380,l),
(603,25,ls),
(603,10,o),
(613,0,o),
(628,0,cs),
(1348,2,l),
(1362,2,o),
(1373,13,o),
(1373,27,cs),
(1373,363,ls),
(1373,377,o),
(1362,388,o),
(1348,388,cs),
(1015,388,l),
(1015,465,l),
(1325,465,ls),
(1338,465,o),
(1350,477,o),
(1350,490,cs),
(1350,812,ls),
(1350,825,o),
(1338,837,o),
(1325,837,cs),
(1015,837,l),
(1015,927,l),
(1325,927,ls),
(1338,927,o),
(1350,938,o),
(1350,952,cs),
(1350,1308,ls),
(1350,1322,o),
(1338,1333,o),
(1325,1333,cs),
(390,1333,ls),
(377,1333,o),
(365,1328,o),
(358,1318,cs),
(123,982,ls),
(117,972,o),
(113,963,o),
(113,952,cs),
(113,25,ls),
(113,10,o),
(123,0,o),
(138,0,cs)
);
},
{
closed = 1;
nodes = (
(523,728,o),
(482,772,o),
(482,825,cs),
(482,878,o),
(523,922,o),
(577,922,cs),
(630,922,o),
(673,878,o),
(673,825,cs),
(673,772,o),
(630,728,o),
(577,728,cs)
);
}
);
};
layerId = "462F72A0-0500-4E69-A49B-6C2F2580580D";
shapes = (
{
closed = 1;
nodes = (
(422,0,ls),
(437,0,o),
(447,10,o),
(447,25,cs),
(447,450,l),
(670,450,l),
(670,25,ls),
(670,10,o),
(680,0,o),
(695,0,cs),
(1393,0,ls),
(1407,0,o),
(1418,12,o),
(1418,25,cs),
(1418,242,ls),
(1418,255,o),
(1407,267,o),
(1393,267,cs),
(1005,267,l),
(1005,550,l),
(1360,550,ls),
(1373,550,o),
(1385,562,o),
(1385,575,cs),
(1385,758,ls),
(1385,772,o),
(1373,783,o),
(1360,783,cs),
(1005,783,l),
(1005,1067,l),
(1393,1067,ls),
(1407,1067,o),
(1418,1078,o),
(1418,1092,cs),
(1418,1308,ls),
(1418,1322,o),
(1407,1333,o),
(1393,1333,cs),
(392,1333,ls),
(378,1333,o),
(367,1328,o),
(360,1318,cs),
(123,982,ls),
(117,972,o),
(113,963,o),
(113,952,cs),
(113,25,ls),
(113,10,o),
(123,0,o),
(138,0,cs)
);
},
{
closed = 1;
nodes = (
(437,665,o),
(402,708,o),
(402,860,cs),
(402,1012,o),
(437,1055,o),
(558,1055,cs),
(680,1055,o),
(715,1012,o),
(715,860,cs),
(715,708,o),
(680,665,o),
(558,665,cs)
);
}
);
width = 1538;
},
{
anchors = (
{
name = bottom;
pos = (742,0);
},
{
name = top;
pos = (742,1333);
}
);
annotations = (
{
pos = (854,522);
type = Arrow;
}
);
layerId = m002;
shapes = (
{
closed = 1;
nodes = (
(423,0,ls),
(438,0,o),
(448,10,o),
(448,25,cs),
(448,380,l),
(532,380,l),
(532,25,ls),
(532,10,o),
(542,0,o),
(557,0,cs),
(1277,2,l),
(1290,2,o),
(1302,13,o),
(1302,27,cs),
(1302,363,ls),
(1302,377,o),
(1290,388,o),
(1277,388,cs),
(943,388,l),
(943,465,l),
(1253,465,ls),
(1267,465,o),
(1278,477,o),
(1278,490,cs),
(1278,812,ls),
(1278,825,o),
(1267,837,o),
(1253,837,cs),
(943,837,l),
(943,927,l),
(1253,927,ls),
(1267,927,o),
(1278,938,o),
(1278,952,cs),
(1278,1308,ls),
(1278,1322,o),
(1267,1333,o),
(1253,1333,cs),
(318,1333,ls),
(305,1333,o),
(293,1328,o),
(287,1318,cs),
(52,982,ls),
(45,972,o),
(42,963,o),
(42,952,cs),
(42,25,ls),
(42,10,o),
(52,0,o),
(67,0,cs)
);
},
{
closed = 1;
nodes = (
(452,728,o),
(410,772,o),
(410,825,cs),
(410,878,o),
(452,922,o),
(505,922,cs),
(558,922,o),
(602,878,o),
(602,825,cs),
(602,772,o),
(558,728,o),
(505,728,cs)
);
}
);
width = 1344;
}
);
metricLeft = A;
metricRight = E;
unicode = 198;
},
{
glyphname = B;
kernLeft = KO_B;
kernRight = KO_B;
lastChange = "2024-02-21 10:31:13 +0000";
layers = (
{
anchors = (
{
name = bottom;
pos = (553,0);
},
{
name = center;
pos = (542,667);
},
{
name = hook;
pos = (150,1333);
},
{
name = top;
pos = (542,1333);
}
);
guides = (
{
angle = 90;
pos = (329,685);
showMeasurement = 1;
},
{
angle = 180;
pos = (415,570);
showMeasurement = 1;
}
);
layerId = "462F72A0-0500-4E69-A49B-6C2F2580580D";
shapes = (
{
closed = 1;
nodes = (
(752,0,ls),
(768,0,o),
(780,5,o),
(792,17,cs),
(992,217,ls),
(1003,228,o),
(1008,240,o),
(1008,257,cs),
(1008,463,ls),
(1008,477,o),
(1003,482,o),
(992,493,cs),
(835,633,l),
(820,660,l),
(835,697,l),
(992,837,ls),
(1003,848,o),
(1008,853,o),
(1008,867,cs),
(1008,1077,ls),
(1008,1093,o),
(1003,1105,o),
(992,1117,cs),
(792,1317,ls),
(780,1328,o),
(768,1333,o),
(752,1333,cs),
(150,1333,ls),
(135,1333,o),
(125,1323,o),
(125,1308,cs),
(125,25,ls),
(125,10,o),
(135,0,o),
(150,0,cs)
);
},
{
closed = 1;
nodes = (
(438,225,o),
(405,260,o),
(405,383,cs),
(405,507,o),
(438,542,o),
(548,542,cs),
(658,542,o),
(692,507,o),
(692,383,cs),
(692,260,o),
(658,225,o),
(548,225,cs)
);
},
{
closed = 1;
nodes = (
(438,792,o),
(405,827,o),
(405,950,cs),
(405,1073,o),
(438,1108,o),
(548,1108,cs),
(658,1108,o),
(692,1073,o),
(692,950,cs),
(692,827,o),
(658,792,o),
(548,792,cs)
);
}
);
width = 1133;
},
{
anchors = (
{
name = bottom;
pos = (490,-50);
},
{
name = top;
pos = (490,1333);
}
);
associatedMasterId = "462F72A0-0500-4E69-A49B-6C2F2580580D";
layerId = "026E329D-2B5C-4FE7-9435-E8D1099B0E0A";
name = Original;
shapes = (
{
closed = 1;
nodes = (
(455,790,o),
(417,828,o),
(417,877,cs),
(417,923,o),
(455,963,o),
(502,963,cs),
(550,963,o),
(588,923,o),
(588,877,cs),
(588,828,o),
(550,790,o),
(502,790,cs)
);
},
{
closed = 1;
nodes = (
(708,0,o),
(720,3,o),
(728,12,cs),
(952,222,ls),
(962,230,o),
(965,240,o),
(965,252,cs),
(965,532,ls),
(965,545,o),
(962,552,o),
(948,562,cs),
(792,693,l),
(792,757,l),
(948,888,ls),
(962,898,o),
(965,905,o),
(965,918,cs),
(965,1082,ls),
(965,1093,o),
(962,1103,o),
(952,1112,cs),
(728,1322,ls),
(720,1330,o),
(708,1333,o),
(697,1333,cs),
(75,1333,ls),
(60,1333,o),
(50,1323,o),
(50,1308,cs),
(50,25,ls),
(50,10,o),
(60,0,o),
(75,0,cs),
(697,0,ls)
);
},
{
closed = 1;
nodes = (
(457,335,o),
(417,377,o),
(417,427,cs),
(417,477,o),
(457,518,o),
(507,518,cs),
(557,518,o),
(598,477,o),
(598,427,cs),
(598,377,o),
(557,335,o),
(507,335,cs)
);
}
);
width = 1005;
},
{
anchors = (
{
name = bottom;
pos = (490,-50);
},
{
name = top;
pos = (490,1333);
}
);
associatedMasterId = "462F72A0-0500-4E69-A49B-6C2F2580580D";
layerId = "A7D4A0FD-8058-4D74-8696-0FC5069394CB";
name = "Jun 2 22, 03:23";
shapes = (
{
closed = 1;
nodes = (
(697,0,ls),
(708,0,o),
(720,3,o),
(728,12,cs),
(952,222,ls),
(962,230,o),
(965,240,o),
(965,252,cs),
(965,532,ls),
(965,545,o),
(962,552,o),
(948,562,cs),
(792,693,l),
(792,757,l),
(948,888,ls),
(962,898,o),
(965,905,o),
(965,918,cs),
(965,1082,ls),
(965,1093,o),
(962,1103,o),
(952,1112,cs),
(728,1322,ls),
(720,1330,o),
(708,1333,o),
(697,1333,cs),
(75,1333,ls),
(60,1333,o),
(50,1323,o),
(50,1308,cs),
(50,25,ls),
(50,10,o),
(60,0,o),
(75,0,cs)
);
},
{
closed = 1;
nodes = (
(455,335,o),
(417,373,o),
(417,427,cs),
(417,480,o),
(455,518,o),
(508,518,cs),
(562,518,o),
(600,480,o),
(600,427,cs),
(600,373,o),
(562,335,o),
(508,335,cs)
);
},
{
closed = 1;
nodes = (
(453,790,o),
(417,827,o),
(417,877,cs),
(417,927,o),
(453,963,o),
(503,963,cs),
(553,963,o),
(590,927,o),
(590,877,cs),
(590,827,o),
(553,790,o),
(503,790,cs)
);
}
);
width = 1005;
},
{
anchors = (
{
name = bottom;
pos = (490,-50);
},
{
name = top;
pos = (490,1333);
}
);
associatedMasterId = "462F72A0-0500-4E69-A49B-6C2F2580580D";
layerId = "FB87AFEF-1758-49B1-960F-0C92596B4041";
name = "Jun 4 22, 21:31";
shapes = (
{
closed = 1;
nodes = (
(75,1333,ls),
(60,1333,o),
(50,1323,o),
(50,1308,cs),
(50,25,ls),
(50,10,o),
(60,0,o),
(75,0,cs),
(697,0,ls),
(708,0,o),
(720,3,o),
(728,12,cs),
(952,222,ls),
(962,230,o),
(965,240,o),
(965,252,cs),
(965,532,ls),
(965,545,o),
(962,552,o),
(948,562,cs),
(792,693,l),
(792,757,l),
(948,888,ls),
(962,898,o),
(965,905,o),
(965,918,cs),
(965,1073,ls),
(965,1095,o),
(963,1100,o),
(948,1113,cs),
(718,1320,ls),
(707,1330,o),
(697,1333,o),
(678,1333,cs)
);
},
{
closed = 1;
nodes = (
(455,335,o),
(417,373,o),
(417,427,cs),
(417,480,o),
(455,518,o),
(508,518,cs),
(562,518,o),
(600,480,o),
(600,427,cs),
(600,373,o),
(562,335,o),
(508,335,cs)
);
},
{
closed = 1;
nodes = (
(453,790,o),
(417,827,o),
(417,877,cs),
(417,927,o),
(453,963,o),
(503,963,cs),
(553,963,o),
(590,927,o),
(590,877,cs),
(590,827,o),
(553,790,o),
(503,790,cs)
);
}
);
width = 998;
},
{
anchors = (
{
name = bottom;
pos = (482,0);
},
{
name = center;
pos = (500,667);
},
{
name = hook;
pos = (67,1333);
},
{
name = top;
pos = (482,1333);
}
);
layerId = m002;
shapes = (
{
closed = 1;
nodes = (
(702,0,ls),
(718,0,o),
(730,5,o),
(742,17,cs),
(942,217,ls),
(953,228,o),
(958,240,o),
(958,257,cs),
(958,463,ls),
(958,477,o),
(953,482,o),
(942,493,cs),
(785,633,l),
(768,670,l),
(785,697,l),
(942,837,ls),
(953,848,o),
(958,853,o),
(958,867,cs),
(958,1077,ls),
(958,1093,o),
(953,1105,o),
(942,1117,cs),
(742,1317,ls),
(730,1328,o),
(718,1333,o),
(702,1333,cs),
(67,1333,ls),
(52,1333,o),
(42,1323,o),
(42,1308,cs),
(42,25,ls),
(42,10,o),
(52,0,o),
(67,0,cs)
);
},
{
closed = 1;
nodes = (
(447,332,o),
(408,370,o),
(408,423,cs),
(408,477,o),
(447,515,o),
(500,515,cs),
(553,515,o),
(592,477,o),
(592,423,cs),
(592,370,o),
(553,332,o),
(500,332,cs)
);
},
{
closed = 1;
nodes = (
(445,823,o),
(408,860,o),
(408,910,cs),
(408,960,o),
(445,997,o),
(495,997,cs),
(545,997,o),
(582,960,o),
(582,910,cs),
(582,860,o),
(545,823,o),
(495,823,cs)
);
}
);
width = 1000;
},
{
anchors = (
{
name = bottom;
pos = (490,-50);
},
{
name = top;
pos = (490,1333);
}
);
associatedMasterId = m002;
layerId = "6044E806-160C-4F49-AC74-7B286697F244";
name = Original;
shapes = (
{
closed = 1;
nodes = (
(455,790,o),
(417,828,o),
(417,877,cs),
(417,923,o),
(455,963,o),
(502,963,cs),
(550,963,o),
(588,923,o),
(588,877,cs),
(588,828,o),
(550,790,o),
(502,790,cs)
);
},
{
closed = 1;
nodes = (
(708,0,o),
(720,3,o),
(728,12,cs),
(952,222,ls),
(962,230,o),
(965,240,o),
(965,252,cs),
(965,532,ls),
(965,545,o),
(962,552,o),
(948,562,cs),
(792,693,l),
(792,757,l),
(948,888,ls),
(962,898,o),
(965,905,o),
(965,918,cs),
(965,1082,ls),
(965,1093,o),
(962,1103,o),
(952,1112,cs),
(728,1322,ls),
(720,1330,o),
(708,1333,o),
(697,1333,cs),
(75,1333,ls),
(60,1333,o),
(50,1323,o),
(50,1308,cs),
(50,25,ls),
(50,10,o),
(60,0,o),
(75,0,cs),
(697,0,ls)
);
},
{
closed = 1;
nodes = (
(457,335,o),
(417,377,o),
(417,427,cs),
(417,477,o),
(457,518,o),
(507,518,cs),
(557,518,o),
(598,477,o),
(598,427,cs),
(598,377,o),
(557,335,o),
(507,335,cs)
);
}
);
width = 1005;
},
{
anchors = (
{
name = bottom;
pos = (490,-50);
},
{
name = top;
pos = (490,1333);
}
);
associatedMasterId = m002;
layerId = "E192DA36-82AF-41AE-A59D-356D41F5208E";
name = "Jun 2 22, 03:23";
shapes = (
{
closed = 1;
nodes = (
(697,0,ls),
(708,0,o),
(720,3,o),
(728,12,cs),
(952,222,ls),
(962,230,o),
(965,240,o),
(965,252,cs),
(965,532,ls),
(965,545,o),
(962,552,o),
(948,562,cs),
(792,693,l),
(792,757,l),
(948,888,ls),
(962,898,o),
(965,905,o),
(965,918,cs),
(965,1082,ls),
(965,1093,o),
(962,1103,o),
(952,1112,cs),
(728,1322,ls),
(720,1330,o),
(708,1333,o),
(697,1333,cs),
(75,1333,ls),
(60,1333,o),
(50,1323,o),
(50,1308,cs),
(50,25,ls),
(50,10,o),
(60,0,o),
(75,0,cs)
);
},
{
closed = 1;
nodes = (
(455,335,o),
(417,373,o),
(417,427,cs),
(417,480,o),
(455,518,o),
(508,518,cs),
(562,518,o),
(600,480,o),
(600,427,cs),
(600,373,o),
(562,335,o),
(508,335,cs)
);
},
{
closed = 1;
nodes = (
(453,790,o),
(417,827,o),
(417,877,cs),
(417,927,o),
(453,963,o),
(503,963,cs),
(553,963,o),
(590,927,o),
(590,877,cs),
(590,827,o),
(553,790,o),
(503,790,cs)
);
}
);
width = 1005;
},
{
anchors = (
{
name = bottom;
pos = (490,-50);
},
{
name = top;
pos = (490,1333);
}
);
associatedMasterId = m002;
layerId = "3C043604-51E2-49FC-AB65-872520E32A23";
name = "Jun 4 22, 21:31";
shapes = (
{
closed = 1;
nodes = (
(75,1333,ls),
(60,1333,o),
(50,1323,o),
(50,1308,cs),
(50,25,ls),
(50,10,o),
(60,0,o),
(75,0,cs),
(697,0,ls),
(708,0,o),
(720,3,o),
(728,12,cs),
(952,222,ls),
(962,230,o),
(965,240,o),
(965,252,cs),
(965,532,ls),
(965,545,o),
(962,552,o),
(948,562,cs),
(792,693,l),
(792,757,l),
(948,888,ls),
(962,898,o),
(965,905,o),
(965,918,cs),
(965,1073,ls),
(965,1095,o),
(963,1100,o),
(948,1113,cs),
(718,1320,ls),
(707,1330,o),
(697,1333,o),
(678,1333,cs)
);
},
{
closed = 1;
nodes = (
(455,335,o),
(417,373,o),
(417,427,cs),
(417,480,o),
(455,518,o),
(508,518,cs),
(562,518,o),
(600,480,o),
(600,427,cs),
(600,373,o),
(562,335,o),
(508,335,cs)
);
},
{
closed = 1;
nodes = (
(453,790,o),
(417,827,o),
(417,877,cs),
(417,927,o),
(453,963,o),
(503,963,cs),
(553,963,o),
(590,927,o),
(590,877,cs),
(590,827,o),
(553,790,o),
(503,790,cs)
);
}
);
width = 998;
}
);
unicode = 66;
userData = {
KernOnName = B;
};
},
{
glyphname = "Beta-latin";
kernLeft = KO_B;
kernRight = KO_B;
lastChange = "2024-02-21 10:31:13 +0000";
layers = (
{
layerId = "462F72A0-0500-4E69-A49B-6C2F2580580D";
shapes = (
{
closed = 1;
nodes = (
(383,-333,ls),
(398,-333,o),
(408,-323,o),
(408,-308,cs),
(408,0,l),
(752,0,ls),
(768,0,o),
(780,5,o),
(792,17,cs),
(992,217,ls),
(1003,228,o),
(1008,240,o),
(1008,257,cs),
(1008,463,ls),
(1008,477,o),
(1003,482,o),
(992,493,cs),
(835,633,l),
(820,660,l),
(835,697,l),
(992,837,ls),
(1003,848,o),
(1008,853,o),
(1008,867,cs),
(1008,1077,ls),
(1008,1093,o),
(1003,1105,o),
(992,1117,cs),
(792,1317,ls),
(780,1328,o),
(768,1333,o),
(752,1333,cs),
(150,1333,ls),
(135,1333,o),
(125,1323,o),
(125,1308,cs),
(125,-308,ls),
(125,-323,o),
(135,-333,o),
(150,-333,cs)
);
},
{
closed = 1;
nodes = (
(438,225,o),
(405,260,o),
(405,383,cs),
(405,507,o),
(438,542,o),
(548,542,cs),
(658,542,o),
(692,507,o),
(692,383,cs),
(692,260,o),
(658,225,o),
(548,225,cs)
);
},
{
closed = 1;
nodes = (
(438,792,o),
(405,827,o),
(405,950,cs),
(405,1073,o),
(438,1108,o),
(548,1108,cs),
(658,1108,o),
(692,1073,o),
(692,950,cs),
(692,827,o),
(658,792,o),
(548,792,cs)
);
}
);
width = 1133;
},
{
layerId = m002;
shapes = (
{
closed = 1;
nodes = (
(433,-333,ls),
(448,-333,o),
(458,-323,o),
(458,-308,cs),
(458,0,l),
(702,0,ls),
(718,0,o),
(730,5,o),
(742,17,cs),
(942,217,ls),
(953,228,o),
(958,240,o),
(958,257,cs),
(958,463,ls),
(958,477,o),
(953,482,o),
(942,493,cs),
(785,633,l),
(768,670,l),
(785,697,l),
(942,837,ls),
(953,848,o),
(958,853,o),
(958,867,cs),
(958,1077,ls),
(958,1093,o),
(953,1105,o),
(942,1117,cs),
(742,1317,ls),
(730,1328,o),
(718,1333,o),
(702,1333,cs),
(67,1333,ls),
(52,1333,o),
(42,1323,o),
(42,1308,cs),
(42,-308,ls),
(42,-323,o),
(52,-333,o),
(67,-333,cs)
);
},
{
closed = 1;
nodes = (
(447,332,o),
(408,370,o),
(408,423,cs),
(408,477,o),
(447,515,o),
(500,515,cs),
(553,515,o),
(592,477,o),
(592,423,cs),
(592,370,o),
(553,332,o),
(500,332,cs)
);
},
{
closed = 1;
nodes = (
(445,823,o),
(408,860,o),
(408,910,cs),
(408,960,o),
(445,997,o),
(495,997,cs),
(545,997,o),
(582,960,o),
(582,910,cs),
(582,860,o),
(545,823,o),
(495,823,cs)
);
}
);
width = 1000;
}
);
metricLeft = B;
metricRight = B;
unicode = 42932;
},
{
glyphname = Bhook;
kernLeft = KO_T;
kernRight = KO_B;
lastChange = "2024-03-01 11:57:30 +0000";
layers = (
{
background = {
anchors = (
{
name = bottom;
pos = (940,0);
},
{
name = center;
pos = (929,667);
},
{
name = hook;
pos = (537,1333);
},
{
name = top;
pos = (929,1333);
}
);
shapes = (
{
closed = 1;
nodes = (
(1139,0,ls),
(1155,0,o),
(1167,5,o),
(1179,17,cs),
(1379,217,ls),
(1390,228,o),
(1395,240,o),
(1395,257,cs),
(1395,463,ls),
(1395,477,o),
(1390,482,o),
(1379,493,cs),
(1222,633,l),
(1207,660,l),
(1222,697,l),
(1379,837,ls),
(1390,848,o),
(1395,853,o),
(1395,867,cs),
(1395,1077,ls),
(1395,1093,o),
(1390,1105,o),
(1379,1117,cs),
(1179,1317,ls),
(1167,1328,o),
(1155,1333,o),
(1139,1333,cs),
(537,1333,ls),
(522,1333,o),
(512,1323,o),
(512,1308,cs),
(512,25,ls),
(512,10,o),
(522,0,o),
(537,0,cs)
);
},
{
closed = 1;
nodes = (
(825,225,o),
(792,260,o),
(792,383,cs),
(792,507,o),
(825,542,o),
(935,542,cs),
(1045,542,o),
(1079,507,o),
(1079,383,cs),
(1079,260,o),
(1045,225,o),
(935,225,cs)
);
},
{
closed = 1;
nodes = (
(825,792,o),
(792,827,o),
(792,950,cs),
(792,1073,o),
(825,1108,o),
(935,1108,cs),
(1045,1108,o),
(1079,1073,o),
(1079,950,cs),
(1079,827,o),
(1045,792,o),
(935,792,cs)
);
},
{
closed = 1;
nodes = (
(307,925,ls),
(325,925,o),
(338,937,o),
(338,957,cs),
(338,1122,l),
(537,1122,l),
(537,1333,l),
(242,1333,ls),
(227,1333,o),
(215,1330,o),
(203,1317,cs),
(133,1243,ls),
(123,1232,o),
(120,1218,o),
(120,1203,cs),
(120,957,ls),
(120,937,o),
(132,925,o),
(150,925,cs)
);
}
);
};
layerId = "462F72A0-0500-4E69-A49B-6C2F2580580D";
shapes = (
{
alignment = -1;
pos = (387,0);
ref = B;
},
{
pos = (100,0);
ref = _hook.part;
}
);
width = 1520;
},
{
background = {
anchors = (
{
name = bottom;
pos = (907,0);
},
{
name = center;
pos = (925,667);
},
{
name = hook;
pos = (492,1333);
},
{
name = top;
pos = (907,1333);
}
);
shapes = (
{
closed = 1;
nodes = (
(1127,0,ls),
(1143,0,o),
(1155,5,o),
(1167,17,cs),
(1367,217,ls),
(1378,228,o),
(1383,240,o),
(1383,257,cs),
(1383,463,ls),
(1383,477,o),
(1378,482,o),
(1367,493,cs),
(1210,633,l),
(1193,670,l),
(1210,697,l),
(1367,837,ls),
(1378,848,o),
(1383,853,o),
(1383,867,cs),
(1383,1077,ls),
(1383,1093,o),
(1378,1105,o),
(1367,1117,cs),
(1167,1317,ls),
(1155,1328,o),
(1143,1333,o),
(1127,1333,cs),
(492,1333,ls),
(477,1333,o),
(467,1323,o),
(467,1308,cs),
(467,25,ls),
(467,10,o),
(477,0,o),
(492,0,cs)
);
},
{
closed = 1;
nodes = (
(872,332,o),
(833,370,o),
(833,423,cs),
(833,477,o),
(872,515,o),
(925,515,cs),
(978,515,o),
(1017,477,o),
(1017,423,cs),
(1017,370,o),
(978,332,o),
(925,332,cs)
);
},
{
closed = 1;
nodes = (
(870,823,o),
(833,860,o),
(833,910,cs),
(833,960,o),
(870,997,o),
(920,997,cs),
(970,997,o),
(1007,960,o),
(1007,910,cs),
(1007,860,o),
(970,823,o),
(920,823,cs)
);
},
{
closed = 1;
nodes = (
(278,925,ls),
(297,925,o),
(310,937,o),
(310,957,cs),
(310,1055,l),
(492,1055,l),
(492,1333,l),
(163,1333,ls),
(148,1333,o),
(137,1330,o),
(125,1317,cs),
(55,1243,ls),
(45,1232,o),
(42,1218,o),
(42,1203,cs),
(42,957,ls),
(42,937,o),
(53,925,o),
(72,925,cs)
);
}
);
};
layerId = m002;
shapes = (
{
alignment = -1;
pos = (425,0);
ref = B;
},
{
ref = _hook.part;
}
);
width = 1425;
}
);
metricLeft = T;
metricRight = B;
unicode = 385;
},
{
glyphname = Bstroke;
kernLeft = KO_B;
kernRight = KO_B;
lastChange = "2024-02-21 10:31:13 +0000";
layers = (
{
layerId = "462F72A0-0500-4E69-A49B-6C2F2580580D";
shapes = (
{
closed = 1;
nodes = (
(512,323,ls),
(527,323,o),
(537,333,o),
(537,348,cs),
(537,407,ls),
(537,422,o),
(527,432,o),
(512,432,cs),
(50,432,ls),
(35,432,o),
(25,422,o),
(25,407,cs),
(25,348,ls),
(25,333,o),
(35,323,o),
(50,323,cs)
);
},
{
ref = B;
}
);
width = 1133;
},
{
layerId = m002;
shapes = (
{
closed = 1;
nodes = (
(488,385,ls),
(503,385,o),
(513,395,o),
(513,410,cs),
(513,435,ls),
(513,450,o),
(503,460,o),
(488,460,cs),
(-3,460,ls),
(-18,460,o),
(-28,450,o),
(-28,435,cs),
(-28,410,ls),
(-28,395,o),
(-18,385,o),
(-3,385,cs)
);
},
{
ref = B;
}
);
width = 1000;
}
);
metricRight = "=B";
unicode = 579;
},
{
glyphname = C;
kernLeft = KO_C;
kernRight = KO_C;
lastChange = "2024-02-21 10:31:13 +0000";
layers = (
{
anchors = (
{
name = bottom;
pos = (622,0);
},
{
name = hook;
pos = (770,1308);
},
{
name = top;
pos = (595,1333);
}
);
annotations = (
{
pos = (343.3,519.593);
text = "Alt C form as OPSZ changes";
type = Text;
}
);
background = {
shapes = (
{
closed = 1;
nodes = (
(728,0,ls),
(743,0,o),
(753,10,o),
(753,25,cs),
(753,185,ls),
(753,197,o),
(752,207,o),
(742,217,cs),
(620,328,l),
(450,487,l),
(450,847,l),
(607,992,l),
(742,1117,ls),
(752,1127,o),
(753,1137,o),
(753,1148,cs),
(753,1308,ls),
(753,1323,o),
(743,1333,o),
(728,1333,cs),
(482,1333,ls),
(463,1333,o),
(453,1333,o),
(442,1320,cs),
(310,1172,l),
(133,973,ls),
(118,957,o),
(117,957,o),
(117,938,cs),
(117,395,ls),
(117,377,o),
(118,377,o),
(133,360,cs),
(333,135,l),
(442,13,ls),
(453,0,o),
(463,0,o),
(482,0,cs)
);
}
);
};
layerId = "462F72A0-0500-4E69-A49B-6C2F2580580D";
shapes = (
{
closed = 1;
nodes = (
(745,0,ls),
(760,0,o),
(770,10,o),
(770,25,cs),
(770,190,ls),
(770,200,o),
(768,210,o),
(758,217,cs),
(572,345,l),
(447,503,l),
(447,830,l),
(570,988,l),
(758,1117,ls),
(770,1125,o),
(770,1137,o),
(770,1148,cs),
(770,1308,ls),
(770,1323,o),
(760,1333,o),
(745,1333,cs),
(498,1333,ls),
(477,1333,o),
(472,1332,o),
(458,1320,cs),
(283,1155,l),
(130,957,ls),
(117,940,o),
(113,940,o),
(113,922,cs),
(113,412,ls),
(113,393,o),
(115,395,o),
(130,377,cs),
(295,162,l),
(458,13,ls),
(472,2,o),
(480,0,o),
(498,0,cs)
);
}
);
width = 843;
},
{
anchors = (
{
name = bottom;
pos = (430,-50);
},
{
name = top;
pos = (435,1333);
}
);
associatedMasterId = "462F72A0-0500-4E69-A49B-6C2F2580580D";
guides = (
{
angle = 36;
pos = (211,792);
}
);
layerId = "65B39F86-5EE6-440B-B327-ED1CEB56E318";
name = Original;
shapes = (
{
closed = 1;
nodes = (
(695,0,ls),
(710,0,o),
(720,10,o),
(720,25,cs),
(720,302,ls),
(720,313,o),
(720,323,o),
(710,332,cs),
(438,600,l),
(438,772,l),
(708,1002,ls),
(718,1010,o),
(720,1022,o),
(720,1033,cs),
(720,1308,ls),
(720,1323,o),
(710,1333,o),
(695,1333,cs),
(383,1333,ls),
(372,1333,o),
(362,1328,o),
(352,1320,cs),
(55,1097,ls),
(45,1088,o),
(43,1077,o),
(43,1065,cs),
(43,305,ls),
(43,293,o),
(47,282,o),
(55,273,cs),
(353,15,ls),
(363,7,o),
(372,0,o),
(383,0,cs)
);
}
);
visible = 1;
width = 760;
},
{
anchors = (
{
name = bottom;
pos = (430,-50);
},
{
name = top;
pos = (435,1333);
}
);
associatedMasterId = "462F72A0-0500-4E69-A49B-6C2F2580580D";
layerId = "BCAA6981-C312-4F79-BE53-F0C5A59A84BC";
name = "Jun 2 22, 03:11";
shapes = (
{
closed = 1;
nodes = (
(695,0,ls),
(710,0,o),
(720,10,o),
(720,25,cs),
(720,302,ls),
(720,313,o),
(720,323,o),
(710,332,cs),
(438,600,l),
(438,772,l),
(708,1002,ls),
(718,1010,o),
(720,1022,o),
(720,1033,cs),
(720,1308,ls),
(720,1323,o),
(710,1333,o),
(695,1333,cs),
(350,1333,ls),
(338,1333,o),
(328,1328,o),
(318,1320,cs),
(55,1113,ls),
(45,1105,o),
(43,1093,o),
(43,1082,cs),
(43,262,ls),
(43,250,o),
(45,238,o),
(55,230,cs),
(320,15,ls),
(330,7,o),
(338,0,o),
(350,0,cs)
);
}
);
width = 760;
},
{
anchors = (
{
name = bottom;
pos = (430,-50);
},
{
name = top;
pos = (435,1333);
}
);
associatedMasterId = "462F72A0-0500-4E69-A49B-6C2F2580580D";
layerId = "D6B5257E-5F55-4892-80AD-FBCFEA4263FA";
name = "Jun 2 22, 04:22";
shapes = (
{
closed = 1;
nodes = (
(695,0,ls),
(710,0,o),
(720,10,o),
(720,25,cs),
(720,302,ls),
(720,313,o),
(720,323,o),
(710,332,cs),
(438,567,l),
(438,767,l),
(708,1000,ls),
(718,1008,o),
(720,1020,o),
(720,1032,cs),
(720,1308,ls),
(720,1323,o),
(710,1333,o),
(695,1333,cs),
(330,1333,ls),
(312,1333,o),
(302,1330,o),
(290,1320,cs),
(60,1113,ls),
(47,1100,o),
(43,1095,o),
(43,1073,cs),
(43,260,ls),
(43,238,o),
(47,233,o),
(60,220,cs),
(290,13,ls),
(302,3,o),
(312,0,o),
(330,0,cs)
);
}
);
width = 760;
},
{
anchors = (
{
name = bottom;
pos = (430,-50);
},
{
name = top;
pos = (435,1333);
}
);
associatedMasterId = "462F72A0-0500-4E69-A49B-6C2F2580580D";
layerId = "BAC76631-75AF-4195-A651-0C0738B71B08";
name = "Jun 3 22, 20:32";
shapes = (
{
closed = 1;
nodes = (
(695,0,ls),
(710,0,o),
(720,10,o),
(720,25,cs),
(720,302,ls),
(720,313,o),
(720,323,o),
(710,332,cs),
(438,567,l),
(438,767,l),
(708,1000,ls),
(718,1008,o),
(720,1020,o),
(720,1032,cs),
(720,1308,ls),
(720,1323,o),
(710,1333,o),
(695,1333,cs),
(347,1333,ls),
(328,1333,o),
(318,1330,o),
(307,1320,cs),
(60,1120,ls),
(45,1108,o),
(43,1102,o),
(43,1080,cs),
(43,253,ls),
(43,232,o),
(45,225,o),
(60,213,cs),
(307,13,ls),
(318,3,o),
(328,0,o),
(347,0,cs)
);
}
);
width = 760;
},
{
anchors = (
{
name = bottom;
pos = (430,-50);
},
{
name = top;
pos = (435,1333);
}
);
associatedMasterId = "462F72A0-0500-4E69-A49B-6C2F2580580D";
layerId = "100B6ADC-98C3-474F-88FF-449FA7339194";
name = "Jun 4 22, 20:31";
shapes = (
{
closed = 1;
nodes = (
(695,0,ls),
(710,0,o),
(720,10,o),
(720,25,cs),
(720,302,ls),
(720,313,o),
(720,323,o),
(710,332,cs),
(438,567,l),
(438,767,l),
(708,1000,ls),
(718,1008,o),
(720,1020,o),
(720,1032,cs),
(720,1308,ls),
(720,1323,o),
(710,1333,o),
(695,1333,cs),
(400,1333,ls),
(382,1333,o),
(372,1330,o),
(360,1320,cs),
(60,1073,ls),
(45,1060,o),
(43,1055,o),
(43,1033,cs),
(43,300,ls),
(43,278,o),
(45,273,o),
(60,260,cs),
(353,13,ls),
(365,3,o),
(375,0,o),
(393,0,cs)
);
}
);
width = 760;
},
{
anchors = (
{
name = bottom;
pos = (430,-50);
},
{
name = top;
pos = (435,1333);
}
);
associatedMasterId = "462F72A0-0500-4E69-A49B-6C2F2580580D";
layerId = "2FD3A8FC-5120-4476-BC37-0A4BF2D571B2";
name = "Jun 4 22, 20:33";
shapes = (
{
closed = 1;
nodes = (
(695,0,ls),
(710,0,o),
(720,10,o),
(720,25,cs),
(720,302,ls),
(720,313,o),
(720,323,o),
(710,332,cs),
(438,530,l),
(438,803,l),
(708,1000,ls),
(718,1008,o),
(720,1020,o),
(720,1032,cs),
(720,1308,ls),
(720,1323,o),
(710,1333,o),
(695,1333,cs),
(400,1333,ls),
(382,1333,o),
(373,1328,o),
(360,1320,cs),
(60,1107,ls),
(43,1095,o),
(43,1088,o),
(43,1067,cs),
(43,267,ls),
(43,245,o),
(45,238,o),
(60,227,cs),
(353,13,ls),
(365,5,o),
(375,0,o),
(393,0,cs)
);
}
);
width = 760;
},
{
anchors = (
{
name = bottom;
pos = (515,0);
},
{
name = hook;
pos = (703,1308);
},
{
name = top;
pos = (525,1333);
}
);
layerId = m002;
shapes = (
{
closed = 1;
nodes = (
(678,0,ls),
(693,0,o),
(703,10,o),
(703,25,cs),
(703,285,ls),
(703,297,o),
(702,307,o),
(692,317,cs),
(573,433,l),
(455,553,l),
(455,763,l),
(560,870,l),
(692,1000,ls),
(702,1010,o),
(703,1020,o),
(703,1032,cs),
(703,1308,ls),
(703,1323,o),
(693,1333,o),
(678,1333,cs),
(398,1333,ls),
(380,1333,o),
(370,1332,o),
(358,1320,cs),
(208,1172,l),
(58,1020,ls),
(43,1005,o),
(42,1002,o),
(42,980,cs),
(42,353,ls),
(42,332,o),
(43,328,o),
(58,313,cs),
(247,125,l),
(358,13,ls),
(370,2,o),
(380,0,o),
(398,0,cs)
);
}
);
width = 745;
},
{
anchors = (
{
name = bottom;
pos = (430,-50);
},
{
name = top;
pos = (435,1333);
}
);
associatedMasterId = m002;
guides = (
{
angle = 36;
pos = (211,792);
}
);
layerId = "FD0DCE02-E4D2-4FF6-B039-92F98BE431B3";
name = Original;
shapes = (
{
closed = 1;
nodes = (
(695,0,ls),
(710,0,o),
(720,10,o),
(720,25,cs),
(720,302,ls),
(720,313,o),
(720,323,o),
(710,332,cs),
(438,600,l),
(438,772,l),
(708,1002,ls),
(718,1010,o),
(720,1022,o),
(720,1033,cs),
(720,1308,ls),
(720,1323,o),
(710,1333,o),
(695,1333,cs),
(383,1333,ls),
(372,1333,o),
(362,1328,o),
(352,1320,cs),
(55,1097,ls),
(45,1088,o),
(43,1077,o),
(43,1065,cs),
(43,305,ls),
(43,293,o),
(47,282,o),
(55,273,cs),
(353,15,ls),
(363,7,o),
(372,0,o),
(383,0,cs)
);
}
);
width = 760;
},
{
anchors = (
{
name = bottom;
pos = (430,-50);
},
{
name = top;
pos = (435,1333);
}
);
associatedMasterId = m002;
layerId = "74252255-60F6-407D-9883-B1B63D73914A";
name = "Jun 2 22, 03:11";
shapes = (
{
closed = 1;
nodes = (
(695,0,ls),
(710,0,o),
(720,10,o),
(720,25,cs),
(720,302,ls),
(720,313,o),
(720,323,o),
(710,332,cs),
(438,600,l),
(438,772,l),
(708,1002,ls),
(718,1010,o),
(720,1022,o),
(720,1033,cs),
(720,1308,ls),
(720,1323,o),
(710,1333,o),
(695,1333,cs),
(350,1333,ls),
(338,1333,o),
(328,1328,o),
(318,1320,cs),
(55,1113,ls),
(45,1105,o),
(43,1093,o),
(43,1082,cs),
(43,262,ls),
(43,250,o),
(45,238,o),
(55,230,cs),
(320,15,ls),
(330,7,o),
(338,0,o),
(350,0,cs)
);
}
);
width = 760;
},
{
anchors = (
{
name = bottom;
pos = (430,-50);
},
{
name = top;
pos = (435,1333);
}
);
associatedMasterId = m002;
layerId = "B64CC5A1-979B-4CB8-8238-8425D2DA3AE8";
name = "Jun 2 22, 04:22";
shapes = (
{
closed = 1;
nodes = (
(695,0,ls),
(710,0,o),
(720,10,o),
(720,25,cs),
(720,302,ls),
(720,313,o),
(720,323,o),
(710,332,cs),
(438,567,l),
(438,767,l),
(708,1000,ls),
(718,1008,o),
(720,1020,o),
(720,1032,cs),
(720,1308,ls),
(720,1323,o),
(710,1333,o),
(695,1333,cs),
(330,1333,ls),
(312,1333,o),
(302,1330,o),
(290,1320,cs),
(60,1113,ls),
(47,1100,o),
(43,1095,o),
(43,1073,cs),
(43,260,ls),
(43,238,o),
(47,233,o),
(60,220,cs),
(290,13,ls),
(302,3,o),
(312,0,o),
(330,0,cs)
);
}
);
width = 760;
},
{
anchors = (
{
name = bottom;
pos = (430,-50);
},
{
name = top;
pos = (435,1333);
}
);
associatedMasterId = m002;
layerId = "FAAD6110-8B2F-4E39-891D-0CA798B0C08A";
name = "Jun 3 22, 20:32";
shapes = (
{
closed = 1;
nodes = (
(695,0,ls),
(710,0,o),
(720,10,o),
(720,25,cs),
(720,302,ls),
(720,313,o),
(720,323,o),
(710,332,cs),
(438,567,l),
(438,767,l),
(708,1000,ls),
(718,1008,o),
(720,1020,o),
(720,1032,cs),
(720,1308,ls),
(720,1323,o),
(710,1333,o),
(695,1333,cs),
(347,1333,ls),
(328,1333,o),
(318,1330,o),
(307,1320,cs),
(60,1120,ls),
(45,1108,o),
(43,1102,o),
(43,1080,cs),
(43,253,ls),
(43,232,o),
(45,225,o),
(60,213,cs),
(307,13,ls),
(318,3,o),
(328,0,o),
(347,0,cs)
);
}
);
width = 760;
},
{
anchors = (
{
name = bottom;
pos = (430,-50);
},
{
name = top;
pos = (435,1333);
}
);
associatedMasterId = m002;
layerId = "241990E6-CC3F-47DD-95AA-672473D7E0BE";
name = "Jun 4 22, 20:31";
shapes = (
{
closed = 1;
nodes = (
(695,0,ls),
(710,0,o),
(720,10,o),
(720,25,cs),
(720,302,ls),
(720,313,o),
(720,323,o),
(710,332,cs),
(438,567,l),
(438,767,l),
(708,1000,ls),
(718,1008,o),
(720,1020,o),
(720,1032,cs),
(720,1308,ls),
(720,1323,o),
(710,1333,o),
(695,1333,cs),
(400,1333,ls),
(382,1333,o),
(372,1330,o),
(360,1320,cs),
(60,1073,ls),
(45,1060,o),
(43,1055,o),
(43,1033,cs),
(43,300,ls),
(43,278,o),
(45,273,o),
(60,260,cs),
(353,13,ls),
(365,3,o),
(375,0,o),
(393,0,cs)
);
}
);
width = 760;
},
{
anchors = (
{
name = bottom;
pos = (430,-50);
},
{
name = top;
pos = (435,1333);
}
);
associatedMasterId = m002;
layerId = "9F4A8126-B245-40F8-88E1-D8CD69F7D0ED";
name = "Jun 4 22, 20:33";
shapes = (
{
closed = 1;
nodes = (
(695,0,ls),
(710,0,o),
(720,10,o),
(720,25,cs),
(720,302,ls),
(720,313,o),
(720,323,o),
(710,332,cs),
(438,530,l),
(438,803,l),
(708,1000,ls),
(718,1008,o),
(720,1020,o),
(720,1032,cs),
(720,1308,ls),
(720,1323,o),
(710,1333,o),
(695,1333,cs),
(400,1333,ls),
(382,1333,o),
(373,1328,o),
(360,1320,cs),
(60,1107,ls),
(43,1095,o),
(43,1088,o),
(43,1067,cs),
(43,267,ls),
(43,245,o),
(45,238,o),
(60,227,cs),
(353,13,ls),
(365,5,o),
(375,0,o),
(393,0,cs)
);
}
);
width = 760;
}
);
unicode = 67;
userData = {
KernOnName = C;
};
},
{
glyphname = Cbar;
lastChange = "2024-03-01 11:57:30 +0000";
layers = (
{
background = {
anchors = (
{
name = bottom;
pos = (625,-5);
},
{
name = hook;
pos = (773,1303);
},
{
name = top;
pos = (598,1328);
}
);
shapes = (
{
closed = 1;
nodes = (
(748,-5,ls),
(763,-5,o),
(773,5,o),
(773,20,cs),
(773,185,ls),
(773,195,o),
(771,205,o),
(761,212,cs),
(575,340,l),
(450,498,l),
(450,825,l),
(573,983,l),
(761,1112,ls),
(773,1120,o),
(773,1132,o),
(773,1143,cs),
(773,1303,ls),
(773,1318,o),
(763,1328,o),
(748,1328,cs),
(501,1328,ls),
(480,1328,o),
(475,1327,o),
(461,1315,cs),
(286,1150,l),
(133,952,ls),
(120,935,o),
(116,935,o),
(116,917,cs),
(116,407,ls),
(116,388,o),
(118,390,o),
(133,372,cs),
(298,157,l),
(461,8,ls),
(475,-3,o),
(483,-5,o),
(501,-5,cs)
);
},
{
closed = 1;
nodes = (
(583,620,ls),
(598,620,o),
(608,630,o),
(608,645,cs),
(608,678,ls),
(608,693,o),
(598,703,o),
(583,703,cs),
(35,703,ls),
(20,703,o),
(10,693,o),
(10,678,cs),
(10,645,ls),
(10,630,o),
(20,620,o),
(35,620,cs)
);
}
);
};
layerId = "462F72A0-0500-4E69-A49B-6C2F2580580D";
shapes = (
{
alignment = -1;
pos = (3,-5);
ref = C;
},
{
pos = (-32,-542);
ref = strokeshortcomb;
}
);
width = 846;
},
{
background = {
anchors = (
{
name = bottom;
pos = (518,-5);
},
{
name = hook;
pos = (706,1303);
},
{
name = top;
pos = (528,1328);
}
);
shapes = (
{
closed = 1;
nodes = (
(681,-5,ls),
(696,-5,o),
(706,5,o),
(706,20,cs),
(706,280,ls),
(706,292,o),
(705,302,o),
(695,312,cs),
(576,428,l),
(458,548,l),
(458,758,l),
(563,865,l),
(695,995,ls),
(705,1005,o),
(706,1015,o),
(706,1027,cs),
(706,1303,ls),
(706,1318,o),
(696,1328,o),
(681,1328,cs),
(401,1328,ls),
(383,1328,o),
(373,1327,o),
(361,1315,cs),
(211,1167,l),
(61,1015,ls),
(46,1000,o),
(45,997,o),
(45,975,cs),
(45,348,ls),
(45,327,o),
(46,323,o),
(61,308,cs),
(250,120,l),
(361,8,ls),
(373,-3,o),
(383,-5,o),
(401,-5,cs)
);
},
{
closed = 1;
nodes = (
(540,620,ls),
(555,620,o),
(565,630,o),
(565,645,cs),
(565,678,ls),
(565,693,o),
(555,703,o),
(540,703,cs),
(-8,703,ls),
(-23,703,o),
(-33,693,o),
(-33,678,cs),
(-33,645,ls),
(-33,630,o),
(-23,620,o),
(-8,620,cs)
);
}
);
};
layerId = m002;
shapes = (
{
alignment = -1;
pos = (3,-5);
ref = C;
},
{
pos = (-75,-542);
ref = strokeshortcomb;
}
);
width = 748;
}
);
metricRight = "=C";
unicode = 42898;
},
{
glyphname = "Chi-latin";
lastChange = "2024-02-21 10:31:13 +0000";
layers = (
{
layerId = "462F72A0-0500-4E69-A49B-6C2F2580580D";
shapes = (
{
closed = 1;
nodes = (
(542,-67,ls),
(557,-67,o),
(567,-57,o),
(567,-42,cs),
(567,485,l),
(793,485,l),
(793,188,ls),
(793,172,o),
(798,160,o),
(810,148,cs),
(1010,-50,ls),
(1022,-62,o),
(1033,-67,o),
(1050,-67,cs),
(1218,-67,ls),
(1233,-67,o),
(1243,-57,o),
(1243,-42,cs),
(1243,158,ls),
(1243,173,o),
(1233,183,o),
(1218,183,cs),
(1127,183,l),
(1127,438,ls),
(1127,450,o),
(1127,458,o),
(1117,468,cs),
(987,598,l),
(987,633,l),
(1120,767,ls),
(1130,777,o),
(1130,785,o),
(1130,797,cs),
(1130,1308,ls),
(1130,1323,o),
(1120,1333,o),
(1105,1333,cs),
(822,1333,ls),
(807,1333,o),
(797,1323,o),
(797,1308,cs),
(797,752,l),
(563,752,l),
(563,1077,ls),
(563,1093,o),
(558,1105,o),
(547,1117,cs),
(347,1317,ls),
(335,1328,o),
(323,1333,o),
(307,1333,cs),
(138,1333,ls),
(123,1333,o),
(113,1323,o),
(113,1308,cs),
(113,1108,ls),
(113,1093,o),
(123,1083,o),
(138,1083,cs),
(230,1083,l),
(230,797,ls),
(230,785,o),
(230,777,o),
(240,767,cs),
(373,633,l),
(373,598,l),
(243,468,ls),
(233,458,o),
(233,450,o),
(233,438,cs),
(233,-42,ls),
(233,-57,o),
(243,-67,o),
(258,-67,cs)
);
}
);
width = 1356;
},
{
layerId = m002;
shapes = (
{
closed = 1;
nodes = (
(520,-67,ls),
(535,-67,o),
(545,-57,o),
(545,-42,cs),
(545,418,l),
(622,418,l),
(622,188,ls),
(622,172,o),
(627,160,o),
(638,148,cs),
(838,-50,ls),
(850,-62,o),
(862,-67,o),
(878,-67,cs),
(1097,-67,ls),
(1112,-67,o),
(1122,-57,o),
(1122,-42,cs),
(1122,142,ls),
(1122,157,o),
(1112,167,o),
(1097,167,cs),
(1038,167,l),
(1038,438,ls),
(1038,450,o),
(1038,458,o),
(1028,468,cs),
(898,598,l),
(898,633,l),
(1032,767,ls),
(1042,777,o),
(1042,785,o),
(1042,797,cs),
(1042,1308,ls),
(1042,1323,o),
(1032,1333,o),
(1017,1333,cs),
(650,1333,ls),
(635,1333,o),
(625,1323,o),
(625,1308,cs),
(625,818,l),
(542,818,l),
(542,1077,ls),
(542,1093,o),
(537,1105,o),
(525,1117,cs),
(325,1317,ls),
(313,1328,o),
(302,1333,o),
(285,1333,cs),
(67,1333,ls),
(52,1333,o),
(42,1323,o),
(42,1308,cs),
(42,1125,ls),
(42,1110,o),
(52,1100,o),
(67,1100,cs),
(125,1100,l),
(125,797,ls),
(125,785,o),
(125,777,o),
(135,767,cs),
(268,633,l),
(268,598,l),
(138,468,ls),
(128,458,o),
(128,450,o),
(128,438,cs),
(128,-42,ls),
(128,-57,o),
(138,-67,o),
(153,-67,cs)
);
}
);
width = 1164;
}
);
metricLeft = o;
metricRight = o;
unicode = 42931;
},
{
glyphname = Cstroke;
lastChange = "2024-02-21 10:45:50 +0000";
layers = (
{
layerId = "462F72A0-0500-4E69-A49B-6C2F2580580D";
shapes = (
{
closed = 1;
nodes = (
(433,-110,l),
(767,1485,l),
(712,1485,l),
(378,-110,l)
);
},
{
ref = C;
}
);
width = 843;
},
{
layerId = m002;
shapes = (
{
closed = 1;
nodes = (
(400,-110,l),
(733,1485,l),
(678,1485,l),
(345,-110,l)
);
},
{
ref = C;
}
);
width = 775;
}
);
metricLeft = "=C";
metricRight = "=C";
unicode = 571;
},
{
glyphname = D;
kernLeft = KO_A;
kernRight = KO_D;
lastChange = "2024-03-01 11:57:30 +0000";
layers = (
{
anchors = (
{
name = bottom;
pos = (472,-50);
},
{
name = center;
pos = (492,667);
},
{
name = top;
pos = (492,1333);
}
);
annotations = (
{
pos = (402,631);
text = "Roundness of edges not alligned with /O";
type = Text;
width = 105;
}
);
associatedMasterId = "462F72A0-0500-4E69-A49B-6C2F2580580D";
layerId = "FCB09AC3-96D3-4C18-A47A-989C3C1E00D9";
name = "Jun 2 22, 02:44";
shapes = (
{
closed = 1;
nodes = (
(50,25,ls),
(50,12,o),
(62,0,o),
(75,0,cs),
(747,0,ls),
(753,0,o),
(762,3,o),
(765,8,cs),
(953,265,ls),
(955,268,o),
(957,273,o),
(957,277,cs),
(957,1048,ls),
(957,1052,o),
(955,1055,o),
(952,1060,cs),
(737,1325,ls),
(733,1330,o),
(727,1333,o),
(720,1333,cs),
(75,1333,ls),
(62,1333,o),
(50,1322,o),
(50,1308,cs)
);
},
{
closed = 1;
nodes = (
(537,958,o),
(552,928,o),
(552,873,cs),
(552,460,ls),
(552,408,o),
(530,380,o),
(502,380,cs),
(458,380,l),
(458,958,l),
(502,958,ls)
);
}
);
width = 1003;
},
{
anchors = (
{
name = bottom;
pos = (483,-50);
},
{
name = center;
pos = (503,667);
},
{
name = top;
pos = (503,1333);
}
);
annotations = (
{
pos = (402,631);
text = "Roundness of edges not alligned with /O";
type = Text;
width = 105;
}
);
associatedMasterId = "462F72A0-0500-4E69-A49B-6C2F2580580D";
guides = (
{
angle = 90;
pos = (306,0);
showMeasurement = 1;
}
);
layerId = "47B87325-F592-43BF-923A-1C9BC43172A6";
name = "Jul 29 22, 20:56";
shapes = (
{
closed = 1;
nodes = (
(50,25,ls),
(50,12,o),
(62,0,o),
(75,0,cs),
(767,0,ls),
(773,0,o),
(782,3,o),
(785,8,cs),
(973,265,ls),
(975,268,o),
(977,273,o),
(977,277,cs),
(977,1048,ls),
(977,1052,o),
(975,1055,o),
(972,1060,cs),
(757,1325,ls),
(753,1330,o),
(747,1333,o),
(740,1333,cs),
(75,1333,ls),
(62,1333,o),
(50,1322,o),
(50,1308,cs)
);
},
{
closed = 1;
nodes = (
(477,377,o),
(457,397,o),
(457,433,cs),
(457,900,ls),
(457,937,o),
(477,957,o),
(510,957,cs),
(543,957,o),
(563,937,o),
(563,900,cs),
(563,433,ls),
(563,397,o),
(543,377,o),
(510,377,cs)
);
}
);
width = 1020;
},
{
anchors = (
{
name = bottom;
pos = (493,0);
},
{
name = center;
pos = (633,667);
},
{
name = hook;
pos = (138,1333);
},
{
name = top;
pos = (493,1333);
}
);
annotations = (
{
pos = (82,899);
text = "Roundness of edges not alligned with /O";
type = Text;
width = 105;
}
);
background = {
anchors = (
{
name = bottom;
pos = (583,0);
},
{
name = center;
pos = (582,667);
},
{
name = ogonek;
pos = (778,0);
},
{
name = top;
pos = (583,1333);
},
{
name = topleft;
pos = (133,1333);
},
{
name = topright;
pos = (778,1333);
}
);
shapes = (
{
closed = 1;
nodes = (
(778,0,ls),
(795,0,o),
(807,5,o),
(818,17,cs),
(1018,217,ls),
(1030,228,o),
(1035,240,o),
(1035,257,cs),
(1035,1077,ls),
(1035,1093,o),
(1030,1105,o),
(1018,1117,cs),
(818,1317,ls),
(807,1328,o),
(795,1333,o),
(778,1333,cs),
(385,1333,ls),
(368,1333,o),
(357,1328,o),
(345,1317,cs),
(145,1117,ls),
(133,1105,o),
(128,1093,o),
(128,1077,cs),
(128,257,ls),
(128,240,o),
(133,228,o),
(145,217,cs),
(345,17,ls),
(357,5,o),
(368,0,o),
(385,0,cs)
);
},
{
closed = 1;
nodes = (
(473,267,o),
(462,287,o),
(462,323,cs),
(462,1010,ls),
(462,1047,o),
(473,1067,o),
(503,1067,cs),
(660,1067,ls),
(690,1067,o),
(702,1047,o),
(702,1010,cs),
(702,323,ls),
(702,287,o),
(690,267,o),
(660,267,cs),
(503,267,ls)
);
}
);
};
guides = (
{
angle = 90;
pos = (336,0);
showMeasurement = 1;
}
);
layerId = "462F72A0-0500-4E69-A49B-6C2F2580580D";
shapes = (
{
closed = 1;
nodes = (
(748,0,ls),
(765,0,o),
(777,5,o),
(788,17,cs),
(988,217,ls),
(1000,228,o),
(1005,240,o),
(1005,257,cs),
(1005,1077,ls),
(1005,1093,o),
(1000,1105,o),
(988,1117,cs),
(788,1317,ls),
(777,1328,o),
(765,1333,o),
(748,1333,cs),
(138,1333,ls),
(123,1333,o),
(113,1323,o),
(113,1308,cs),
(113,25,ls),
(113,10,o),
(123,0,o),
(138,0,cs)
);
},
{
closed = 1;
nodes = (
(447,1067,l),
(630,1067,ls),
(660,1067,o),
(672,1047,o),
(672,1010,cs),
(672,323,ls),
(672,287,o),
(660,267,o),
(630,267,cs),
(447,267,l)
);
}
);
width = 1118;
},
{
anchors = (
{
name = bottom;
pos = (472,-50);
},
{
name = center;
pos = (492,667);
},
{
name = top;
pos = (492,1333);
}
);
annotations = (
{
pos = (402,631);
text = "Roundness of edges not alligned with /O";
type = Text;
width = 105;
}
);
associatedMasterId = m002;
layerId = "2B3C299C-6DE6-4D55-8B7E-7EBB93716D67";
name = "Jun 2 22, 02:44";
shapes = (
{
closed = 1;
nodes = (
(50,25,ls),
(50,12,o),
(62,0,o),
(75,0,cs),
(747,0,ls),
(753,0,o),
(762,3,o),
(765,8,cs),
(953,265,ls),
(955,268,o),
(957,273,o),
(957,277,cs),
(957,1048,ls),
(957,1052,o),
(955,1055,o),
(952,1060,cs),
(737,1325,ls),
(733,1330,o),
(727,1333,o),
(720,1333,cs),
(75,1333,ls),
(62,1333,o),
(50,1322,o),
(50,1308,cs)
);
},
{
closed = 1;
nodes = (
(537,958,o),
(552,928,o),
(552,873,cs),
(552,460,ls),
(552,408,o),
(530,380,o),
(502,380,cs),
(458,380,l),
(458,958,l),
(502,958,ls)
);
}
);
width = 1003;
},
{
anchors = (
{
name = bottom;
pos = (483,-50);
},
{
name = center;
pos = (503,667);
},
{
name = top;
pos = (503,1333);
}
);
annotations = (
{
pos = (402,631);
text = "Roundness of edges not alligned with /O";
type = Text;
width = 105;
}
);
associatedMasterId = m002;
guides = (
{
angle = 90;
pos = (306,0);
showMeasurement = 1;
}
);
layerId = "8F505C39-5528-4471-91DC-39DACB956F93";
name = "Jul 29 22, 20:56";
shapes = (
{
closed = 1;
nodes = (
(50,25,ls),
(50,12,o),
(62,0,o),
(75,0,cs),
(767,0,ls),
(773,0,o),
(782,3,o),
(785,8,cs),
(973,265,ls),
(975,268,o),
(977,273,o),
(977,277,cs),
(977,1048,ls),
(977,1052,o),
(975,1055,o),
(972,1060,cs),
(757,1325,ls),
(753,1330,o),
(747,1333,o),
(740,1333,cs),
(75,1333,ls),
(62,1333,o),
(50,1322,o),
(50,1308,cs)
);
},
{
closed = 1;
nodes = (
(477,377,o),
(457,397,o),
(457,433,cs),
(457,900,ls),
(457,937,o),
(477,957,o),
(510,957,cs),
(543,957,o),
(563,937,o),
(563,900,cs),
(563,433,ls),
(563,397,o),
(543,377,o),
(510,377,cs)
);
}
);
width = 1020;
},
{
anchors = (
{
name = bottom;
pos = (443,0);
},
{
name = center;
pos = (503,667);
},
{
name = hook;
pos = (67,1333);
},
{
name = top;
pos = (450,1333);
}
);
annotations = (
{
pos = (402,631);
text = "Roundness of edges not alligned with /O";
type = Text;
width = 105;
}
);
guides = (
{
angle = 90;
pos = (306,0);
showMeasurement = 1;
}
);
layerId = m002;
shapes = (
{
closed = 1;
nodes = (
(702,0,ls),
(718,0,o),
(730,5,o),
(742,17,cs),
(942,217,ls),
(953,228,o),
(958,240,o),
(958,257,cs),
(958,1077,ls),
(958,1093,o),
(953,1105,o),
(942,1117,cs),
(742,1317,ls),
(730,1328,o),
(718,1333,o),
(702,1333,cs),
(67,1333,ls),
(52,1333,o),
(42,1323,o),
(42,1308,cs),
(42,25,ls),
(42,10,o),
(52,0,o),
(67,0,cs)
);
},
{
closed = 1;
nodes = (
(458,933,l),
(500,933,ls),
(530,933,o),
(542,913,o),
(542,877,cs),
(542,457,ls),
(542,420,o),
(530,400,o),
(500,400,cs),
(458,400,l)
);
}
);
width = 1000;
}
);
unicode = 68;
},
{
glyphname = Ddotaccent;
kernLeft = KO_A;
kernRight = KO_D;
lastChange = "2024-03-01 11:57:40 +0000";
layers = (
{
background = {
anchors = (
{
name = bottom;
pos = (493,0);
},
{
name = center;
pos = (633,667);
},
{
name = hook;
pos = (138,1333);
},
{
name = top;
pos = (493,1589);
}
);
shapes = (
{
closed = 1;
nodes = (
(748,0,ls),
(765,0,o),
(777,5,o),
(788,17,cs),
(988,217,ls),
(1000,228,o),
(1005,240,o),
(1005,257,cs),
(1005,1077,ls),
(1005,1093,o),
(1000,1105,o),
(988,1117,cs),
(788,1317,ls),
(777,1328,o),
(765,1333,o),
(748,1333,cs),
(138,1333,ls),
(123,1333,o),
(113,1323,o),
(113,1308,cs),
(113,25,ls),
(113,10,o),
(123,0,o),
(138,0,cs)
);
},
{
closed = 1;
nodes = (
(447,1067,l),
(630,1067,ls),
(660,1067,o),
(672,1047,o),
(672,1010,cs),
(672,323,ls),
(672,287,o),
(660,267,o),
(630,267,cs),
(447,267,l)
);
},
{
closed = 1;
nodes = (
(551,1387,o),
(593,1429,o),
(593,1487,cs),
(593,1546,o),
(551,1589,o),
(493,1589,cs),
(435,1589,o),
(393,1546,o),
(393,1487,cs),
(393,1429,o),
(435,1387,o),
(493,1387,cs)
);
}
);
};
layerId = "462F72A0-0500-4E69-A49B-6C2F2580580D";
shapes = (
{
ref = D;
},
{
pos = (313,233);
ref = dotaccentcomb;
}
);
width = 1118;
},
{
background = {
anchors = (
{
name = bottom;
pos = (443,0);
},
{
name = center;
pos = (503,667);
},
{
name = hook;
pos = (67,1333);
},
{
name = top;
pos = (450,1588);
}
);
shapes = (
{
closed = 1;
nodes = (
(702,0,ls),
(718,0,o),
(730,5,o),
(742,17,cs),
(942,217,ls),
(953,228,o),
(958,240,o),
(958,257,cs),
(958,1077,ls),
(958,1093,o),
(953,1105,o),
(942,1117,cs),
(742,1317,ls),
(730,1328,o),
(718,1333,o),
(702,1333,cs),
(67,1333,ls),
(52,1333,o),
(42,1323,o),
(42,1308,cs),
(42,25,ls),
(42,10,o),
(52,0,o),
(67,0,cs)
);
},
{
closed = 1;
nodes = (
(458,933,l),
(500,933,ls),
(530,933,o),
(542,913,o),
(542,877,cs),
(542,457,ls),
(542,420,o),
(530,400,o),
(500,400,cs),
(458,400,l)
);
},
{
closed = 1;
nodes = (
(508,1386,o),
(550,1428,o),
(550,1486,cs),
(550,1545,o),
(508,1588,o),
(450,1588,cs),
(392,1588,o),
(350,1545,o),
(350,1486,cs),
(350,1428,o),
(392,1386,o),
(450,1386,cs)
);
}
);
};
layerId = m002;
shapes = (
{
ref = D;
},
{
pos = (320,233);
ref = dotaccentcomb;
}
);
width = 1000;
}
);
unicode = 7690;
},
{
glyphname = Ddotbelow;
kernLeft = KO_A;
kernRight = KO_D;
lastChange = "2024-03-01 11:57:40 +0000";
layers = (
{
background = {
anchors = (
{
name = bottom;
pos = (493,-250);
},
{
name = center;
pos = (633,667);
},
{
name = hook;
pos = (138,1333);
},
{
name = top;
pos = (493,1333);
}
);
shapes = (
{
closed = 1;
nodes = (
(748,0,ls),
(765,0,o),
(777,5,o),
(788,17,cs),
(988,217,ls),
(1000,228,o),
(1005,240,o),
(1005,257,cs),
(1005,1077,ls),
(1005,1093,o),
(1000,1105,o),
(988,1117,cs),
(788,1317,ls),
(777,1328,o),
(765,1333,o),
(748,1333,cs),
(138,1333,ls),
(123,1333,o),
(113,1323,o),
(113,1308,cs),
(113,25,ls),
(113,10,o),
(123,0,o),
(138,0,cs)
);
},
{
closed = 1;
nodes = (
(447,1067,l),
(630,1067,ls),
(660,1067,o),
(672,1047,o),
(672,1010,cs),
(672,323,ls),
(672,287,o),
(660,267,o),
(630,267,cs),
(447,267,l)
);
},
{
closed = 1;
nodes = (
(551,-252,o),
(593,-210,o),
(593,-152,cs),
(593,-93,o),
(551,-50,o),
(493,-50,cs),
(435,-50,o),
(393,-93,o),
(393,-152,cs),
(393,-210,o),
(435,-252,o),
(493,-252,cs)
);
}
);
};
layerId = "462F72A0-0500-4E69-A49B-6C2F2580580D";
shapes = (
{
ref = D;
},
{
pos = (323,0);
ref = dotbelowcomb;
}
);
width = 1118;
},
{
background = {
anchors = (
{
name = bottom;
pos = (443,-250);
},
{
name = center;
pos = (503,667);
},
{
name = hook;
pos = (67,1333);
},
{
name = top;
pos = (450,1333);
}
);
shapes = (
{
closed = 1;
nodes = (
(702,0,ls),
(718,0,o),
(730,5,o),
(742,17,cs),
(942,217,ls),
(953,228,o),
(958,240,o),
(958,257,cs),
(958,1077,ls),
(958,1093,o),
(953,1105,o),
(942,1117,cs),
(742,1317,ls),
(730,1328,o),
(718,1333,o),
(702,1333,cs),
(67,1333,ls),
(52,1333,o),
(42,1323,o),
(42,1308,cs),
(42,25,ls),
(42,10,o),
(52,0,o),
(67,0,cs)
);
},
{
closed = 1;
nodes = (
(458,933,l),
(500,933,ls),
(530,933,o),
(542,913,o),
(542,877,cs),
(542,457,ls),
(542,420,o),
(530,400,o),
(500,400,cs),
(458,400,l)
);
},
{
closed = 1;
nodes = (
(501,-252,o),
(543,-210,o),
(543,-152,cs),
(543,-93,o),
(501,-50,o),
(443,-50,cs),
(385,-50,o),
(343,-93,o),
(343,-152,cs),
(343,-210,o),
(385,-252,o),
(443,-252,cs)
);
}
);
};
layerId = m002;
shapes = (
{
ref = D;
},
{
pos = (273,0);
ref = dotbelowcomb;
}
);
width = 1000;
}
);
unicode = 7692;
},
{
glyphname = Dhook;
kernRight = KO_D;
lastChange = "2024-03-01 11:57:30 +0000";
layers = (
{
background = {
anchors = (
{
name = bottom;
pos = (902,0);
},
{
name = center;
pos = (1042,667);
},
{
name = hook;
pos = (547,1333);
},
{
name = top;
pos = (902,1333);
}
);
shapes = (
{
closed = 1;
nodes = (
(1157,0,ls),
(1174,0,o),
(1186,5,o),
(1197,17,cs),
(1397,217,ls),
(1409,228,o),
(1414,240,o),
(1414,257,cs),
(1414,1077,ls),
(1414,1093,o),
(1409,1105,o),
(1397,1117,cs),
(1197,1317,ls),
(1186,1328,o),
(1174,1333,o),
(1157,1333,cs),
(547,1333,ls),
(532,1333,o),
(522,1323,o),
(522,1308,cs),
(522,25,ls),
(522,10,o),
(532,0,o),
(547,0,cs)
);
},
{
closed = 1;
nodes = (
(856,1067,l),
(1039,1067,ls),
(1069,1067,o),
(1081,1047,o),
(1081,1010,cs),
(1081,323,ls),
(1081,287,o),
(1069,267,o),
(1039,267,cs),
(856,267,l)
);
},
{
closed = 1;
nodes = (
(307,925,ls),
(325,925,o),
(338,937,o),
(338,957,cs),
(338,1122,l),
(537,1122,l),
(537,1333,l),
(242,1333,ls),
(227,1333,o),
(215,1330,o),
(203,1317,cs),
(133,1243,ls),
(123,1232,o),
(120,1218,o),
(120,1203,cs),
(120,957,ls),
(120,937,o),
(132,925,o),
(150,925,cs)
);
}
);
};
layerId = "462F72A0-0500-4E69-A49B-6C2F2580580D";
shapes = (
{
alignment = -1;
pos = (409,0);
ref = D;
},
{
alignment = -1;
pos = (100,0);
ref = _hook.part;
}
);
width = 1527;
},
{
background = {
anchors = (
{
name = bottom;
pos = (868,0);
},
{
name = center;
pos = (928,667);
},
{
name = hook;
pos = (492,1333);
},
{
name = top;
pos = (875,1333);
}
);
shapes = (
{
closed = 1;
nodes = (
(1127,0,ls),
(1143,0,o),
(1155,5,o),
(1167,17,cs),
(1367,217,ls),
(1378,228,o),
(1383,240,o),
(1383,257,cs),
(1383,1077,ls),
(1383,1093,o),
(1378,1105,o),
(1367,1117,cs),
(1167,1317,ls),
(1155,1328,o),
(1143,1333,o),
(1127,1333,cs),
(492,1333,ls),
(477,1333,o),
(467,1323,o),
(467,1308,cs),
(467,25,ls),
(467,10,o),
(477,0,o),
(492,0,cs)
);
},
{
closed = 1;
nodes = (
(883,933,l),
(925,933,ls),
(955,933,o),
(967,913,o),
(967,877,cs),
(967,457,ls),
(967,420,o),
(955,400,o),
(925,400,cs),
(883,400,l)
);
},
{
closed = 1;
nodes = (
(278,925,ls),
(297,925,o),
(310,937,o),
(310,957,cs),
(310,1055,l),
(492,1055,l),
(492,1333,l),
(163,1333,ls),
(148,1333,o),
(137,1330,o),
(125,1317,cs),
(55,1243,ls),
(45,1232,o),
(42,1218,o),
(42,1203,cs),
(42,957,ls),
(42,937,o),
(53,925,o),
(72,925,cs)
);
}
);
};
layerId = m002;
shapes = (
{
alignment = -1;
pos = (425,0);
ref = D;
},
{
alignment = -1;
ref = _hook.part;
}
);
width = 1425;
}
);
metricLeft = O;
metricRight = D;
unicode = 394;
},
{
glyphname = Dmacronbelow;
kernLeft = KO_A;
kernRight = KO_D;
lastChange = "2024-03-01 11:57:40 +0000";
layers = (
{
background = {
anchors = (
{
name = bottom;
pos = (493,-150);
},
{
name = center;
pos = (633,667);
},
{
name = hook;
pos = (138,1333);
},
{
name = top;
pos = (493,1333);
}
);
shapes = (
{
closed = 1;
nodes = (
(748,0,ls),
(765,0,o),
(777,5,o),
(788,17,cs),
(988,217,ls),
(1000,228,o),
(1005,240,o),
(1005,257,cs),
(1005,1077,ls),
(1005,1093,o),
(1000,1105,o),
(988,1117,cs),
(788,1317,ls),
(777,1328,o),
(765,1333,o),
(748,1333,cs),
(138,1333,ls),
(123,1333,o),
(113,1323,o),
(113,1308,cs),
(113,25,ls),
(113,10,o),
(123,0,o),
(138,0,cs)
);
},
{
closed = 1;
nodes = (
(447,1067,l),
(630,1067,ls),
(660,1067,o),
(672,1047,o),
(672,1010,cs),
(672,323,ls),
(672,287,o),
(660,267,o),
(630,267,cs),
(447,267,l)
);
},
{
closed = 1;
nodes = (
(668,-150,ls),
(683,-150,o),
(693,-140,o),
(693,-125,cs),
(693,-75,ls),
(693,-60,o),
(683,-50,o),
(668,-50,cs),
(317,-50,ls),
(302,-50,o),
(292,-60,o),
(292,-75,cs),
(292,-125,ls),
(292,-140,o),
(302,-150,o),
(317,-150,cs)
);
}
);
};
layerId = "462F72A0-0500-4E69-A49B-6C2F2580580D";
shapes = (
{
ref = D;
},
{
pos = (250,0);
ref = macronbelowcomb;
}
);
width = 1118;
},
{
background = {
anchors = (
{
name = bottom;
pos = (443,-150);
},
{
name = center;
pos = (503,667);
},
{
name = hook;
pos = (67,1333);
},
{
name = top;
pos = (450,1333);
}
);
shapes = (
{
closed = 1;
nodes = (
(702,0,ls),
(718,0,o),
(730,5,o),
(742,17,cs),
(942,217,ls),
(953,228,o),
(958,240,o),
(958,257,cs),
(958,1077,ls),
(958,1093,o),
(953,1105,o),
(942,1117,cs),
(742,1317,ls),
(730,1328,o),
(718,1333,o),
(702,1333,cs),
(67,1333,ls),
(52,1333,o),
(42,1323,o),
(42,1308,cs),
(42,25,ls),
(42,10,o),
(52,0,o),
(67,0,cs)
);
},
{
closed = 1;
nodes = (
(458,933,l),
(500,933,ls),
(530,933,o),
(542,913,o),
(542,877,cs),
(542,457,ls),
(542,420,o),
(530,400,o),
(500,400,cs),
(458,400,l)
);
},
{
closed = 1;
nodes = (
(618,-150,ls),
(633,-150,o),
(643,-140,o),
(643,-125,cs),
(643,-75,ls),
(643,-60,o),
(633,-50,o),
(618,-50,cs),
(267,-50,ls),
(252,-50,o),
(242,-60,o),
(242,-75,cs),
(242,-125,ls),
(242,-140,o),
(252,-150,o),
(267,-150,cs)
);
}
);
};
layerId = m002;
shapes = (
{
ref = D;
},
{
pos = (200,0);
ref = macronbelowcomb;
}
);
width = 1000;
}
);
unicode = 7694;
},
{
glyphname = Dtopbar;
lastChange = "2024-03-12 15:22:06 +0000";
layers = (
{
anchors = (
{
name = bottom;
pos = (543,0);
},
{
name = top;
pos = (543,1333);
}
);
layerId = "462F72A0-0500-4E69-A49B-6C2F2580580D";
shapes = (
{
closed = 1;
nodes = (
(747,0,ls),
(760,0,o),
(772,5,o),
(778,13,cs),
(962,203,ls),
(970,213,o),
(973,223,o),
(973,235,cs),
(973,1333,l),
(128,1333,l),
(128,1067,l),
(657,1067,l),
(657,780,l),
(113,780,l),
(113,235,ls),
(113,223,o),
(117,213,o),
(125,203,cs),
(308,13,ls),
(315,5,o),
(327,0,o),
(340,0,cs)
);
},
{
closed = 1;
nodes = (
(460,267,o),
(430,290,o),
(430,353,cs),
(430,542,l),
(657,542,l),
(657,353,ls),
(657,292,o),
(623,267,o),
(543,267,cs)
);
}
);
width = 1086;
},
{
anchors = (
{
name = bottom;
pos = (463,0);
},
{
name = top;
pos = (463,1333);
}
);
layerId = m002;
shapes = (
{
closed = 1;
nodes = (
(658,0,ls),
(670,0,o),
(682,3,o),
(690,13,cs),
(873,203,ls),
(882,213,o),
(885,223,o),
(885,235,cs),
(885,1335,l),
(57,1332,l),
(57,998,l),
(488,998,l),
(488,797,l),
(42,797,l),
(42,235,ls),
(42,223,o),
(45,213,o),
(53,203,cs),
(237,13,ls),
(245,3,o),
(257,0,o),
(268,0,cs)
);
},
{
closed = 1;
nodes = (
(418,342,o),
(403,363,o),
(403,395,cs),
(403,525,l),
(488,525,l),
(488,395,ls),
(488,363,o),
(470,342,o),
(445,342,cs)
);
}
);
width = 927;
}
);
metricLeft = d;
metricRight = d;
unicode = 395;
},
{
glyphname = Eth;
kernLeft = KO_Eth;
kernRight = KO_D;
lastChange = "2024-02-21 10:31:13 +0000";
layers = (
{
layerId = "462F72A0-0500-4E69-A49B-6C2F2580580D";
shapes = (
{
pos = (96,0);
ref = D;
},
{
closed = 1;
nodes = (
(673,575,ls),
(688,575,o),
(698,585,o),
(698,600,cs),
(698,733,ls),
(698,748,o),
(688,758,o),
(673,758,cs),
(113,758,ls),
(98,758,o),
(88,748,o),
(88,733,cs),
(88,600,ls),
(88,585,o),
(98,575,o),
(113,575,cs)
);
}
);
width = 1214;
},
{
layerId = m002;
shapes = (
{
pos = (59,0);
ref = D;
},
{
closed = 1;
nodes = (
(544,558,ls),
(559,558,o),
(569,568,o),
(569,583,cs),
(569,750,ls),
(569,765,o),
(559,775,o),
(544,775,cs),
(42,775,ls),
(27,775,o),
(17,765,o),
(17,750,cs),
(17,583,ls),
(17,568,o),
(27,558,o),
(42,558,cs)
);
}
);
width = 1059;
}
);
metricLeft = "=D-25";
metricRight = "=D";
unicode = 208;
},
{
glyphname = E;
kernLeft = KO_H;
kernRight = KO_E;
lastChange = "2024-02-21 10:31:13 +0000";
layers = (
{
anchors = (
{
name = bottom;
pos = (508,0);
},
{
name = ogonek;
pos = (842,0);
},
{
name = top;
pos = (508,1333);
},
{
name = topleft;
pos = (128,1333);
}
);
guides = (
{
angle = 90;
pos = (520,0);
showMeasurement = 1;
}
);
layerId = "462F72A0-0500-4E69-A49B-6C2F2580580D";
shapes = (
{
closed = 1;
nodes = (
(842,0,ls),
(855,0,o),
(867,12,o),
(867,25,cs),
(867,242,ls),
(867,255,o),
(855,267,o),
(842,267,cs),
(453,267,l),
(453,550,l),
(808,550,ls),
(822,550,o),
(833,562,o),
(833,575,cs),
(833,758,ls),
(833,772,o),
(822,783,o),
(808,783,cs),
(453,783,l),
(453,1067,l),
(842,1067,ls),
(855,1067,o),
(867,1078,o),
(867,1092,cs),
(867,1308,ls),
(867,1322,o),
(855,1333,o),
(842,1333,cs),
(145,1333,ls),
(132,1333,o),
(120,1322,o),
(120,1308,cs),
(120,25,ls),
(120,12,o),
(132,0,o),
(145,0,cs)
);
}
);
width = 987;
},
{
anchors = (
{
name = bottom;
pos = (428,-35);
},
{
name = ogonek;
pos = (758,17);
},
{
name = top;
pos = (428,1333);
},
{
name = topleft;
pos = (48,1333);
}
);
associatedMasterId = "462F72A0-0500-4E69-A49B-6C2F2580580D";
layerId = "555E0F49-C987-4FA7-8787-B2B27C2C2F9C";
name = "Jun 2 22, 18:31";
shapes = (
{
closed = 1;
nodes = (
(797,1308,ls),
(797,1322,o),
(785,1333,o),
(772,1333,cs),
(75,1333,ls),
(62,1333,o),
(50,1322,o),
(50,1308,cs),
(50,25,ls),
(50,12,o),
(62,0,o),
(75,0,cs),
(795,2,ls),
(808,2,o),
(820,13,o),
(820,27,cs),
(820,363,ls),
(820,377,o),
(808,388,o),
(795,388,cs),
(462,388,l),
(462,465,l),
(772,465,ls),
(785,465,o),
(797,477,o),
(797,490,cs),
(797,812,ls),
(797,825,o),
(785,837,o),
(772,837,cs),
(462,837,l),
(462,927,l),
(772,927,ls),
(785,927,o),
(797,938,o),
(797,952,cs)
);
}
);
width = 842;
},
{
anchors = (
{
name = bottom;
pos = (428,-35);
},
{
name = ogonek;
pos = (758,17);
},
{
name = top;
pos = (428,1333);
},
{
name = topleft;
pos = (48,1333);
}
);
associatedMasterId = "462F72A0-0500-4E69-A49B-6C2F2580580D";
layerId = "F86F8B87-007E-489F-894F-041A372F0069";
name = "Jul 30 22, 02:22";
shapes = (
{
closed = 1;
nodes = (
(797,1308,ls),
(797,1322,o),
(785,1333,o),
(772,1333,cs),
(75,1333,ls),
(62,1333,o),
(50,1322,o),
(50,1308,cs),
(50,25,ls),
(50,12,o),
(62,0,o),
(75,0,cs),
(795,2,ls),
(808,2,o),
(820,13,o),
(820,27,cs),
(820,363,ls),
(820,377,o),
(808,388,o),
(795,388,cs),
(462,388,l),
(462,465,l),
(772,465,ls),
(785,465,o),
(797,477,o),
(797,490,cs),
(797,812,ls),
(797,825,o),
(785,837,o),
(772,837,cs),
(462,837,l),
(462,927,l),
(772,927,ls),
(785,927,o),
(797,938,o),
(797,952,cs)
);
}
);
width = 847;
},
{
anchors = (
{
name = bottom;
pos = (430,0);
},
{
name = ogonek;
pos = (760,17);
},
{
name = top;
pos = (430,1333);
},
{
name = topleft;
pos = (50,1333);
}
);
guides = (
{
angle = 90;
pos = (473,0);
showMeasurement = 1;
}
);
layerId = m002;
shapes = (
{
closed = 1;
nodes = (
(763,0,ls),
(777,0,o),
(788,12,o),
(788,25,cs),
(788,375,ls),
(788,388,o),
(777,400,o),
(763,400,cs),
(458,400,l),
(458,483,l),
(763,483,ls),
(777,483,o),
(788,495,o),
(788,508,cs),
(788,825,ls),
(788,838,o),
(777,850,o),
(763,850,cs),
(458,850,l),
(458,933,l),
(763,933,ls),
(777,933,o),
(788,945,o),
(788,958,cs),
(788,1308,ls),
(788,1322,o),
(777,1333,o),
(763,1333,cs),
(67,1333,ls),
(53,1333,o),
(42,1322,o),
(42,1308,cs),
(42,25,ls),
(42,12,o),
(53,0,o),
(67,0,cs)
);
}
);
width = 830;
},
{
anchors = (
{
name = bottom;
pos = (428,-35);
},
{
name = ogonek;
pos = (758,17);
},
{
name = top;
pos = (428,1333);
},
{
name = topleft;
pos = (48,1333);
}
);
associatedMasterId = m002;
layerId = "4C791BA3-ECCF-4F29-9914-38D7C00E2916";
name = "Jun 2 22, 18:31";
shapes = (
{
closed = 1;
nodes = (
(797,1308,ls),
(797,1322,o),
(785,1333,o),
(772,1333,cs),
(75,1333,ls),
(62,1333,o),
(50,1322,o),
(50,1308,cs),
(50,25,ls),
(50,12,o),
(62,0,o),
(75,0,cs),
(795,2,ls),
(808,2,o),
(820,13,o),
(820,27,cs),
(820,363,ls),
(820,377,o),
(808,388,o),
(795,388,cs),
(462,388,l),
(462,465,l),
(772,465,ls),
(785,465,o),
(797,477,o),
(797,490,cs),
(797,812,ls),
(797,825,o),
(785,837,o),
(772,837,cs),
(462,837,l),
(462,927,l),
(772,927,ls),
(785,927,o),
(797,938,o),
(797,952,cs)
);
}
);
width = 842;
},
{
anchors = (
{
name = bottom;
pos = (428,-35);
},
{
name = ogonek;
pos = (758,17);
},
{
name = top;
pos = (428,1333);
},
{
name = topleft;
pos = (48,1333);
}
);
associatedMasterId = m002;
layerId = "AE38E9B8-E975-4F64-9178-E16597981D15";
name = "Jul 30 22, 02:22";
shapes = (
{
closed = 1;
nodes = (
(797,1308,ls),
(797,1322,o),
(785,1333,o),
(772,1333,cs),
(75,1333,ls),
(62,1333,o),
(50,1322,o),
(50,1308,cs),
(50,25,ls),
(50,12,o),
(62,0,o),
(75,0,cs),
(795,2,ls),
(808,2,o),
(820,13,o),
(820,27,cs),
(820,363,ls),
(820,377,o),
(808,388,o),
(795,388,cs),
(462,388,l),
(462,465,l),
(772,465,ls),
(785,465,o),
(797,477,o),
(797,490,cs),
(797,812,ls),
(797,825,o),
(785,837,o),
(772,837,cs),
(462,837,l),
(462,927,l),
(772,927,ls),
(785,927,o),
(797,938,o),
(797,952,cs)
);
}
);
width = 847;
}
);
metricLeft = H;
metricRight = H;
unicode = 69;
userData = {
KernOnName = E;
};
},
{
glyphname = Eopen;
kernLeft = KO_S;
kernRight = KO_S;
lastChange = "2024-03-13 17:33:01 +0000";
layers = (
{
anchors = (
{
name = bottom;
pos = (480,0);
},
{
name = ogonek;
pos = (638,25);
},
{
name = top;
pos = (480,1333);
}
);
layerId = "462F72A0-0500-4E69-A49B-6C2F2580580D";
shapes = (
{
closed = 1;
nodes = (
(613,0,ls),
(628,0,o),
(638,10,o),
(638,25,cs),
(638,203,ls),
(638,217,o),
(633,227,o),
(623,233,cs),
(425,370,l),
(425,495,l),
(570,610,ls),
(582,618,o),
(588,627,o),
(588,642,cs),
(588,678,ls),
(588,693,o),
(580,703,o),
(570,710,cs),
(428,808,l),
(428,950,l),
(623,1090,ls),
(633,1098,o),
(638,1107,o),
(638,1120,cs),
(638,1308,ls),
(638,1323,o),
(628,1333,o),
(613,1333,cs),
(383,1333,ls),
(372,1333,o),
(363,1332,o),
(353,1323,cs),
(105,1118,ls),
(95,1110,o),
(90,1102,o),
(90,1088,cs),
(90,798,ls),
(90,785,o),
(100,785,o),
(123,768,cs),
(243,682,l),
(243,627,l),
(105,522,ls),
(95,513,o),
(90,505,o),
(90,492,cs),
(90,272,ls),
(90,258,o),
(102,242,o),
(122,222,cs),
(340,10,ls),
(350,2,o),
(358,0,o),
(370,0,cs)
);
}
);
width = 728;
},
{
anchors = (
{
name = bottom;
pos = (393,0);
},
{
name = ogonek;
pos = (623,25);
},
{
name = top;
pos = (393,1333);
}
);
layerId = m002;
shapes = (
{
closed = 1;
nodes = (
(598,0,ls),
(613,0,o),
(623,10,o),
(623,25,cs),
(623,253,ls),
(623,267,o),
(617,273,o),
(608,283,cs),
(427,487,l),
(427,515,l),
(555,613,ls),
(567,622,o),
(573,627,o),
(573,642,cs),
(573,678,ls),
(573,693,o),
(567,700,o),
(555,707,cs),
(430,788,l),
(430,817,l),
(608,1023,ls),
(617,1033,o),
(623,1040,o),
(623,1053,cs),
(623,1308,ls),
(623,1323,o),
(613,1333,o),
(598,1333,cs),
(268,1333,ls),
(257,1333,o),
(247,1333,o),
(238,1323,cs),
(57,1135,ls),
(48,1125,o),
(42,1118,o),
(42,1105,cs),
(42,765,ls),
(42,752,o),
(47,742,o),
(58,735,cs),
(178,665,l),
(178,643,l),
(57,555,ls),
(47,547,o),
(42,538,o),
(42,525,cs),
(42,235,ls),
(42,222,o),
(48,215,o),
(57,205,cs),
(208,10,ls),
(217,0,o),
(227,0,o),
(238,0,cs)
);
}
);
width = 665;
}
);
metricLeft = S;
metricRight = S;
unicode = 400;
},
{
glyphname = Esh;
lastChange = "2024-02-21 10:45:50 +0000";
layers = (
{
layerId = "462F72A0-0500-4E69-A49B-6C2F2580580D";
shapes = (
{
closed = 1;
nodes = (
(568,0,ls),
(583,0,o),
(593,10,o),
(593,25,cs),
(593,1067,l),
(740,1067,ls),
(755,1067,o),
(765,1077,o),
(765,1092,cs),
(765,1308,ls),
(765,1323,o),
(755,1333,o),
(740,1333,cs),
(285,1333,ls),
(270,1333,o),
(260,1323,o),
(260,1308,cs),
(260,267,l),
(115,267,ls),
(100,267,o),
(90,257,o),
(90,242,cs),
(90,25,ls),
(90,10,o),
(100,0,o),
(115,0,cs)
);
}
);
width = 855;
},
{
layerId = m002;
shapes = (
{
closed = 1;
nodes = (
(528,0,ls),
(543,0,o),
(553,10,o),
(553,25,cs),
(553,1005,l),
(658,1005,ls),
(673,1005,o),
(683,1015,o),
(683,1030,cs),
(683,1308,ls),
(683,1323,o),
(673,1333,o),
(658,1333,cs),
(197,1333,ls),
(182,1333,o),
(172,1323,o),
(172,1308,cs),
(172,328,l),
(67,328,ls),
(52,328,o),
(42,318,o),
(42,303,cs),
(42,25,ls),
(42,10,o),
(52,0,o),
(67,0,cs)
);
}
);
width = 725;
}
);
metricLeft = S;
metricRight = S;
unicode = 425;
},
{
glyphname = Estroke;
lastChange = "2024-02-21 10:31:13 +0000";
layers = (
{
layerId = "462F72A0-0500-4E69-A49B-6C2F2580580D";
shapes = (
{
ref = E;
},
{
closed = 1;
nodes = (
(427,-110,l),
(760,1485,l),
(705,1485,l),
(372,-110,l)
);
}
);
width = 987;
},
{
layerId = m002;
shapes = (
{
ref = E;
},
{
closed = 1;
nodes = (
(500,-110,l),
(667,1485,l),
(612,1485,l),
(445,-110,l)
);
}
);
width = 830;
}
);
metricLeft = E;
metricRight = E;
unicode = 582;
},
{
glyphname = Schwa;
kernRight = KO_Schwa;
lastChange = "2024-02-21 10:31:13 +0000";
layers = (
{
anchors = (
{
name = bottom;
pos = (562,-50);
},
{
name = center;
pos = (562,667);
},
{
name = ogonek;
pos = (947,17);
},
{
name = top;
pos = (562,1333);
},
{
name = topleft;
pos = (113,1333);
},
{
name = topright;
pos = (972,1317);
}
);
layerId = "462F72A0-0500-4E69-A49B-6C2F2580580D";
shapes = (
{
closed = 1;
nodes = (
(748,0,ls),
(762,0,o),
(773,5,o),
(780,13,cs),
(963,203,ls),
(972,213,o),
(975,223,o),
(975,235,cs),
(975,1017,ls),
(975,1030,o),
(970,1038,o),
(962,1047,cs),
(780,1205,ls),
(772,1213,o),
(762,1217,o),
(748,1217,cs),
(130,1217,l),
(130,950,l),
(607,950,ls),
(637,950,o),
(658,933,o),
(658,910,cs),
(658,353,ls),
(658,292,o),
(625,267,o),
(545,267,cs),
(462,267,o),
(432,290,o),
(432,353,cs),
(432,742,l),
(115,742,l),
(115,235,ls),
(115,223,o),
(118,213,o),
(127,203,cs),
(310,13,ls),
(317,5,o),
(328,0,o),
(342,0,cs)
);
},
{
closed = 1;
nodes = (
(732,542,l),
(732,780,l),
(115,780,l),
(115,542,l)
);
}
);
width = 1090;
},
{
anchors = (
{
name = bottom;
pos = (484,-50);
},
{
name = center;
pos = (484,667);
},
{
name = ogonek;
pos = (869,17);
},
{
name = top;
pos = (484,1333);
},
{
name = topleft;
pos = (36,1333);
},
{
name = topright;
pos = (894,1317);
}
);
layerId = m002;
shapes = (
{
closed = 1;
nodes = (
(671,0,ls),
(682,0,o),
(694,3,o),
(702,13,cs),
(886,203,ls),
(894,213,o),
(897,223,o),
(897,235,cs),
(897,1017,ls),
(897,1028,o),
(894,1038,o),
(884,1047,cs),
(702,1205,ls),
(694,1213,o),
(682,1217,o),
(671,1217,cs),
(52,1217,l),
(52,837,l),
(449,837,ls),
(482,837,o),
(501,817,o),
(501,797,cs),
(501,428,ls),
(501,397,o),
(482,375,o),
(449,375,cs),
(414,375,o),
(399,397,o),
(399,428,cs),
(399,742,l),
(37,742,l),
(37,235,ls),
(37,223,o),
(41,213,o),
(49,203,cs),
(232,13,ls),
(241,3,o),
(252,0,o),
(264,0,cs)
);
},
{
closed = 1;
nodes = (
(654,508,l),
(654,780,l),
(37,780,l),
(37,508,l)
);
}
);
width = 934;
}
);
metricLeft = "=O-5";
metricRight = "=O-5";
unicode = 399;
},
{
glyphname = Ezh;
lastChange = "2024-02-21 10:31:13 +0000";
layers = (
{
anchors = (
{
name = bottom;
pos = (450,0);
},
{
name = top;
pos = (450,1333);
}
);
background = {
shapes = (
{
closed = 1;
nodes = (
(394,0,ls),
(405,0,o),
(415,0,o),
(424,10,cs),
(567,205,ls),
(579,220,o),
(582,228,o),
(582,253,cs),
(582,593,ls),
(582,607,o),
(575,613,o),
(567,623,cs),
(454,765,l),
(454,788,l),
(567,1022,l),
(567,1308,ls),
(567,1323,o),
(557,1333,o),
(542,1333,cs),
(100,1333,ls),
(85,1333,o),
(75,1323,o),
(75,1308,cs),
(75,1030,ls),
(75,1015,o),
(85,1005,o),
(100,1005,cs),
(202,1005,l),
(202,988,l),
(99,713,ls),
(94,700,o),
(97,680,o),
(105,670,cs),
(255,490,l),
(255,470,l),
(92,250,ls),
(84,240,o),
(77,233,o),
(77,220,cs),
(77,25,ls),
(77,10,o),
(87,0,o),
(102,0,cs)
);
}
);
};
layerId = "462F72A0-0500-4E69-A49B-6C2F2580580D";
shapes = (
{
closed = 1;
nodes = (
(754,8,ls),
(769,8,o),
(779,18,o),
(779,33,cs),
(779,317,l),
(595,653,l),
(595,690,l),
(779,1017,l),
(779,1308,ls),
(779,1323,o),
(769,1333,o),
(754,1333,cs),
(145,1333,ls),
(130,1333,o),
(120,1323,o),
(120,1308,cs),
(120,1042,ls),
(120,1027,o),
(130,1017,o),
(145,1017,cs),
(414,1017,l),
(414,1000,l),
(249,690,l),
(249,653,l),
(414,345,l),
(414,328,l),
(145,328,ls),
(130,328,o),
(120,318,o),
(120,303,cs),
(120,33,ls),
(120,18,o),
(130,8,o),
(145,8,cs)
);
}
);
width = 899;
},
{
anchors = (
{
name = bottom;
pos = (372,0);
},
{
name = top;
pos = (372,1333);
}
);
layerId = m002;
shapes = (
{
closed = 1;
nodes = (
(675,8,ls),
(690,8,o),
(700,18,o),
(700,33,cs),
(700,400,l),
(517,653,l),
(517,690,l),
(700,933,l),
(700,1308,ls),
(700,1323,o),
(690,1333,o),
(675,1333,cs),
(67,1333,ls),
(52,1333,o),
(42,1323,o),
(42,1308,cs),
(42,958,ls),
(42,943,o),
(52,933,o),
(67,933,cs),
(252,933,l),
(252,917,l),
(87,690,l),
(87,653,l),
(252,428,l),
(252,412,l),
(67,412,ls),
(52,412,o),
(42,402,o),
(42,387,cs),
(42,33,ls),
(42,18,o),
(52,8,o),
(67,8,cs)
);
}
);
width = 742;
}
);
metricLeft = O;
metricRight = O;
unicode = 439;
},
{
glyphname = F;
kernLeft = KO_H;
kernRight = KO_F;
lastChange = "2024-02-21 10:31:13 +0000";
layers = (
{
anchors = (
{
name = bottom;
pos = (452,0);
},
{
name = bottomhook;
pos = (453,25);
},
{
name = top;
pos = (452,1333);
}
);
layerId = "462F72A0-0500-4E69-A49B-6C2F2580580D";
shapes = (
{
closed = 1;
nodes = (
(428,0,ls),
(442,0,o),
(453,12,o),
(453,25,cs),
(453,467,l),
(780,467,ls),
(793,467,o),
(805,478,o),
(805,492,cs),
(805,708,ls),
(805,722,o),
(793,733,o),
(780,733,cs),
(453,733,l),
(453,1067,l),
(830,1067,ls),
(843,1067,o),
(855,1078,o),
(855,1092,cs),
(855,1308,ls),
(855,1322,o),
(843,1333,o),
(830,1333,cs),
(145,1333,ls),
(132,1333,o),
(120,1322,o),
(120,1308,cs),
(120,25,ls),
(120,12,o),
(132,0,o),
(145,0,cs)
);
}
);
width = 895;
},
{
anchors = (
{
name = bottom;
pos = (415,0);
},
{
name = bottomhook;
pos = (458,25);
},
{
name = top;
pos = (415,1333);
}
);
layerId = m002;
shapes = (
{
closed = 1;
nodes = (
(433,0,ls),
(447,0,o),
(458,12,o),
(458,25,cs),
(458,483,l),
(763,483,ls),
(777,483,o),
(788,495,o),
(788,508,cs),
(788,825,ls),
(788,838,o),
(777,850,o),
(763,850,cs),
(458,850,l),
(458,933,l),
(763,933,ls),
(777,933,o),
(788,945,o),
(788,958,cs),
(788,1308,ls),
(788,1322,o),
(777,1333,o),
(763,1333,cs),
(67,1333,ls),
(53,1333,o),
(42,1322,o),
(42,1308,cs),
(42,25,ls),
(42,12,o),
(53,0,o),
(67,0,cs)
);
}
);
width = 830;
}
);
metricLeft = H;
unicode = 70;
userData = {
KernOnName = F;
};
},
{
glyphname = G;
kernLeft = KO_O;
kernRight = KO_G;
lastChange = "2024-03-01 11:57:30 +0000";
layers = (
{
anchors = (
{
name = bottom;
pos = (607,0);
},
{
name = hook;
pos = (993,1308);
},
{
name = top;
pos = (607,1333);
}
);
background = {
anchors = (
{
name = bottom;
pos = (587,0);
},
{
name = center;
pos = (586,667);
},
{
name = ogonek;
pos = (782,0);
},
{
name = top;
pos = (587,1333);
},
{
name = topleft;
pos = (137,1333);
},
{
name = topright;
pos = (782,1333);
}
);
shapes = (
{
closed = 1;
nodes = (
(782,0,ls),
(799,0,o),
(811,5,o),
(822,17,cs),
(1022,217,ls),
(1034,228,o),
(1039,240,o),
(1039,257,cs),
(1039,1077,ls),
(1039,1093,o),
(1034,1105,o),
(1022,1117,cs),
(822,1317,ls),
(811,1328,o),
(799,1333,o),
(782,1333,cs),
(389,1333,ls),
(372,1333,o),
(361,1328,o),
(349,1317,cs),
(149,1117,ls),
(137,1105,o),
(132,1093,o),
(132,1077,cs),
(132,257,ls),
(132,240,o),
(137,228,o),
(149,217,cs),
(349,17,ls),
(361,5,o),
(372,0,o),
(389,0,cs)
);
},
{
closed = 1;
nodes = (
(477,267,o),
(466,287,o),
(466,323,cs),
(466,1010,ls),
(466,1047,o),
(477,1067,o),
(507,1067,cs),
(664,1067,ls),
(694,1067,o),
(706,1047,o),
(706,1010,cs),
(706,323,ls),
(706,287,o),
(694,267,o),
(664,267,cs),
(507,267,ls)
);
}
);
};
layerId = "462F72A0-0500-4E69-A49B-6C2F2580580D";
shapes = (
{
closed = 1;
nodes = (
(753,0,ls),
(770,0,o),
(782,5,o),
(793,17,cs),
(993,217,ls),
(1005,228,o),
(1010,240,o),
(1010,257,cs),
(1010,775,ls),
(1010,790,o),
(1000,800,o),
(985,800,cs),
(575,800,ls),
(562,800,o),
(550,788,o),
(550,775,cs),
(550,560,ls),
(550,545,o),
(560,535,o),
(575,535,cs),
(703,535,l),
(703,268,l),
(487,268,ls),
(468,268,o),
(453,283,o),
(453,302,cs),
(453,1033,ls),
(453,1052,o),
(468,1067,o),
(487,1067,cs),
(968,1067,ls),
(982,1067,o),
(993,1078,o),
(993,1092,cs),
(993,1308,ls),
(993,1322,o),
(982,1333,o),
(968,1333,cs),
(377,1333,ls),
(360,1333,o),
(348,1328,o),
(337,1317,cs),
(137,1117,ls),
(125,1105,o),
(120,1093,o),
(120,1077,cs),
(120,257,ls),
(120,240,o),
(125,228,o),
(137,217,cs),
(337,17,ls),
(348,5,o),
(360,0,o),
(377,0,cs)
);
}
);
width = 1100;
},
{
anchors = (
{
name = bottom;
pos = (525,-50);
},
{
name = hook;
pos = (928,1308);
},
{
name = top;
pos = (525,1333);
}
);
guides = (
{
angle = 225;
pos = (95,730);
},
{
angle = 225;
pos = (530,70);
}
);
layerId = m002;
shapes = (
{
closed = 1;
nodes = (
(743,0,ls),
(760,0,o),
(772,5,o),
(783,17,cs),
(983,217,ls),
(995,228,o),
(1000,240,o),
(1000,257,cs),
(1000,825,ls),
(1000,840,o),
(990,850,o),
(975,850,cs),
(550,850,ls),
(537,850,o),
(525,838,o),
(525,825,cs),
(525,575,ls),
(525,560,o),
(535,550,o),
(550,550,cs),
(633,548,l),
(633,400,l),
(492,400,ls),
(473,400,o),
(458,415,o),
(458,433,cs),
(458,900,ls),
(458,918,o),
(473,933,o),
(492,933,cs),
(903,933,ls),
(917,933,o),
(928,945,o),
(928,958,cs),
(928,1308,ls),
(928,1322,o),
(917,1333,o),
(903,1333,cs),
(298,1333,ls),
(282,1333,o),
(270,1328,o),
(258,1317,cs),
(58,1117,ls),
(47,1105,o),
(42,1093,o),
(42,1077,cs),
(42,257,ls),
(42,240,o),
(47,228,o),
(58,217,cs),
(258,17,ls),
(270,5,o),
(282,0,o),
(298,0,cs)
);
}
);
width = 1037;
}
);
metricLeft = H;
unicode = 71;
userData = {
KernOnName = G;
};
},
{
glyphname = Glottalstop;
lastChange = "2024-02-21 10:31:13 +0000";
layers = (
{
layerId = "462F72A0-0500-4E69-A49B-6C2F2580580D";
shapes = (
{
closed = 1;
nodes = (
(423,0,ls),
(437,0,o),
(448,12,o),
(448,25,cs),
(448,377,l),
(682,602,ls),
(693,612,o),
(698,622,o),
(698,635,cs),
(698,1072,ls),
(698,1085,o),
(693,1095,o),
(683,1102,cs),
(333,1323,ls),
(323,1330,o),
(315,1333,o),
(303,1333,cs),
(138,1333,ls),
(123,1333,o),
(113,1323,o),
(113,1308,cs),
(113,1078,ls),
(113,1065,o),
(118,1053,o),
(128,1048,cs),
(358,922,l),
(358,683,l),
(132,502,ls),
(120,492,o),
(113,488,o),
(113,473,cs),
(115,25,ls),
(115,10,o),
(125,0,o),
(140,0,cs)
);
}
);
width = 811;
},
{
layerId = m002;
shapes = (
{
closed = 1;
nodes = (
(448,0,ls),
(462,0,o),
(473,12,o),
(473,25,cs),
(473,377,l),
(707,602,ls),
(718,612,o),
(723,622,o),
(723,635,cs),
(723,1072,ls),
(723,1085,o),
(718,1095,o),
(708,1102,cs),
(358,1323,ls),
(348,1330,o),
(340,1333,o),
(328,1333,cs),
(67,1333,ls),
(52,1333,o),
(42,1323,o),
(42,1308,cs),
(42,978,ls),
(42,965,o),
(47,955,o),
(57,948,cs),
(253,822,l),
(253,783,l),
(60,602,ls),
(48,592,o),
(42,588,o),
(42,573,cs),
(43,25,ls),
(43,10,o),
(53,0,o),
(68,0,cs)
);
}
);
width = 765;
}
);
metricLeft = o;
metricRight = o;
unicode = 577;
},
{
glyphname = Gstroke;
lastChange = "2024-02-21 10:31:13 +0000";
layers = (
{
layerId = "462F72A0-0500-4E69-A49B-6C2F2580580D";
shapes = (
{
closed = 1;
nodes = (
(1050,362,ls),
(1065,362,o),
(1075,372,o),
(1075,387,cs),
(1075,425,ls),
(1075,440,o),
(1065,450,o),
(1050,450,cs),
(572,450,ls),
(557,450,o),
(547,440,o),
(547,425,cs),
(547,387,ls),
(547,372,o),
(557,362,o),
(572,362,cs)
);
},
{
ref = G;
}
);
width = 1155;
},
{
layerId = m002;
shapes = (
{
closed = 1;
nodes = (
(1133,448,ls),
(1148,448,o),
(1158,458,o),
(1158,473,cs),
(1158,478,ls),
(1158,493,o),
(1148,503,o),
(1133,503,cs),
(622,503,ls),
(607,503,o),
(597,493,o),
(597,478,cs),
(597,473,ls),
(597,458,o),
(607,448,o),
(622,448,cs)
);
},
{
pos = (72,0);
ref = G;
}
);
width = 1198;
}
);
unicode = 484;
},
{
glyphname = Yogh;
kernRight = KO_S;
lastChange = "2024-03-12 15:22:06 +0000";
layers = (
{
layerId = "462F72A0-0500-4E69-A49B-6C2F2580580D";
shapes = (
{
closed = 1;
nodes = (
(336,-100,ls),
(348,-100,o),
(358,-100,o),
(366,-90,cs),
(579,150,ls),
(593,165,o),
(594,173,o),
(594,198,cs),
(594,427,ls),
(594,440,o),
(588,447,o),
(579,457,cs),
(453,613,l),
(453,637,l),
(561,773,l),
(561,1015,ls),
(561,1027,o),
(556,1035,o),
(548,1045,cs),
(374,1222,ls),
(366,1230,o),
(354,1233,o),
(343,1233,cs),
(121,1233,ls),
(108,1233,o),
(96,1222,o),
(96,1208,cs),
(96,985,ls),
(96,972,o),
(108,960,o),
(121,960,cs),
(289,953,l),
(289,845,l),
(111,620,ls),
(101,608,o),
(99,595,o),
(109,585,cs),
(284,390,l),
(284,270,l),
(104,67,ls),
(96,57,o),
(89,50,o),
(89,37,cs),
(89,-75,ls),
(89,-90,o),
(99,-100,o),
(114,-100,cs)
);
}
);
width = 683;
},
{
layerId = m002;
shapes = (
{
closed = 1;
nodes = (
(358,-100,ls),
(370,-100,o),
(380,-100,o),
(388,-90,cs),
(532,105,ls),
(543,120,o),
(547,128,o),
(547,153,cs),
(547,460,ls),
(547,473,o),
(538,480,o),
(532,490,cs),
(435,632,l),
(435,655,l),
(513,740,l),
(513,1015,ls),
(513,1027,o),
(508,1035,o),
(500,1045,cs),
(327,1222,ls),
(318,1230,o),
(307,1233,o),
(295,1233,cs),
(73,1233,ls),
(60,1233,o),
(48,1222,o),
(48,1208,cs),
(48,868,ls),
(48,855,o),
(60,843,o),
(73,843,cs),
(225,837,l),
(225,812,l),
(63,620,ls),
(53,608,o),
(53,597,o),
(62,585,cs),
(220,373,l),
(220,353,l),
(57,150,ls),
(48,140,o),
(42,133,o),
(42,120,cs),
(42,-75,ls),
(42,-90,o),
(52,-100,o),
(67,-100,cs)
);
}
);
width = 589;
}
);
metricLeft = s;
metricRight = s;
unicode = 540;
},
{
glyphname = H;
kernLeft = KO_H;
kernRight = KO_H;
lastChange = "2024-03-01 11:57:30 +0000";
layers = (
{
anchors = (
{
name = bottom;
pos = (577,0);
},
{
name = center;
pos = (577,980);
},
{
name = hook;
pos = (145,1333);
},
{
name = top;
pos = (577,1333);
},
{
name = topleft;
pos = (132,1333);
}
);
background = {
anchors = (
{
name = bottom;
pos = (579,0);
},
{
name = center;
pos = (578,667);
},
{
name = ogonek;
pos = (774,0);
},
{
name = top;
pos = (579,1333);
},
{
name = topleft;
pos = (129,1333);
},
{
name = topright;
pos = (774,1333);
}
);
shapes = (
{
closed = 1;
nodes = (
(774,0,ls),
(791,0,o),
(803,5,o),
(814,17,cs),
(1014,217,ls),
(1026,228,o),
(1031,240,o),
(1031,257,cs),
(1031,1077,ls),
(1031,1093,o),
(1026,1105,o),
(1014,1117,cs),
(814,1317,ls),
(803,1328,o),
(791,1333,o),
(774,1333,cs),
(381,1333,ls),
(364,1333,o),
(353,1328,o),
(341,1317,cs),
(141,1117,ls),
(129,1105,o),
(124,1093,o),
(124,1077,cs),
(124,257,ls),
(124,240,o),
(129,228,o),
(141,217,cs),
(341,17,ls),
(353,5,o),
(364,0,o),
(381,0,cs)
);
},
{
closed = 1;
nodes = (
(469,267,o),
(458,287,o),
(458,323,cs),
(458,1010,ls),
(458,1047,o),
(469,1067,o),
(499,1067,cs),
(656,1067,ls),
(686,1067,o),
(698,1047,o),
(698,1010,cs),
(698,323,ls),
(698,287,o),
(686,267,o),
(656,267,cs),
(499,267,ls)
);
}
);
};
layerId = "462F72A0-0500-4E69-A49B-6C2F2580580D";
shapes = (
{
closed = 1;
nodes = (
(428,0,ls),
(443,0,o),
(453,10,o),
(453,25,cs),
(453,567,l),
(700,567,l),
(700,25,ls),
(700,10,o),
(710,0,o),
(725,0,cs),
(1008,0,ls),
(1023,0,o),
(1033,10,o),
(1033,25,cs),
(1033,1308,ls),
(1033,1323,o),
(1023,1333,o),
(1008,1333,cs),
(725,1333,ls),
(710,1333,o),
(700,1323,o),
(700,1308,cs),
(700,833,l),
(453,833,l),
(453,1308,ls),
(453,1323,o),
(443,1333,o),
(428,1333,cs),
(145,1333,ls),
(130,1333,o),
(120,1323,o),
(120,1308,cs),
(120,25,ls),
(120,10,o),
(130,0,o),
(145,0,cs)
);
}
);
width = 1153;
},
{
anchors = (
{
name = bottom;
pos = (500,0);
},
{
name = center;
pos = (500,1017);
},
{
name = hook;
pos = (67,1333);
},
{
name = top;
pos = (500,1333);
},
{
name = topleft;
pos = (48,1333);
}
);
layerId = m002;
shapes = (
{
closed = 1;
nodes = (
(433,0,ls),
(448,0,o),
(458,10,o),
(458,25,cs),
(458,467,l),
(542,467,l),
(542,25,ls),
(542,10,o),
(552,0,o),
(567,0,cs),
(933,0,ls),
(948,0,o),
(958,10,o),
(958,25,cs),
(958,1308,ls),
(958,1323,o),
(948,1333,o),
(933,1333,cs),
(567,1333,ls),
(552,1333,o),
(542,1323,o),
(542,1308,cs),
(542,867,l),
(458,867,l),
(458,1308,ls),
(458,1323,o),
(448,1333,o),
(433,1333,cs),
(67,1333,ls),
(52,1333,o),
(42,1323,o),
(42,1308,cs),
(42,25,ls),
(42,10,o),
(52,0,o),
(67,0,cs)
);
}
);
width = 1000;
}
);
unicode = 72;
userData = {
KernOnName = H;
};
},
{
glyphname = Heng;
lastChange = "2024-02-21 10:31:13 +0000";
layers = (
{
layerId = "462F72A0-0500-4E69-A49B-6C2F2580580D";
shapes = (
{
closed = 1;
nodes = (
(788,-417,ls),
(800,-417,o),
(808,-412,o),
(818,-402,cs),
(1025,-195,ls),
(1035,-185,o),
(1037,-175,o),
(1037,-163,cs),
(1037,1308,ls),
(1037,1323,o),
(1027,1333,o),
(1012,1333,cs),
(712,1333,ls),
(697,1333,o),
(687,1323,o),
(687,1308,cs),
(687,830,l),
(470,830,l),
(470,1308,ls),
(470,1323,o),
(460,1333,o),
(445,1333,cs),
(145,1333,ls),
(130,1333,o),
(120,1323,o),
(120,1308,cs),
(120,25,ls),
(120,10,o),
(130,0,o),
(145,0,cs),
(445,0,ls),
(460,0,o),
(470,10,o),
(470,25,cs),
(470,563,l),
(687,563,l),
(687,10,ls),
(687,-2,o),
(683,-13,o),
(675,-22,cs),
(527,-170,ls),
(518,-178,o),
(517,-188,o),
(517,-200,cs),
(517,-392,ls),
(517,-407,o),
(527,-417,o),
(542,-417,cs)
);
}
);
width = 1157;
},
{
layerId = m002;
shapes = (
{
closed = 1;
nodes = (
(710,-417,ls),
(722,-417,o),
(730,-412,o),
(740,-402,cs),
(947,-195,ls),
(957,-185,o),
(958,-175,o),
(958,-163,cs),
(958,1308,ls),
(958,1323,o),
(948,1333,o),
(933,1333,cs),
(567,1333,ls),
(552,1333,o),
(542,1323,o),
(542,1308,cs),
(542,867,l),
(458,867,l),
(458,1308,ls),
(458,1323,o),
(448,1333,o),
(433,1333,cs),
(67,1333,ls),
(52,1333,o),
(42,1323,o),
(42,1308,cs),
(42,25,ls),
(42,10,o),
(52,0,o),
(67,0,cs),
(433,0,ls),
(448,0,o),
(458,10,o),
(458,25,cs),
(458,467,l),
(542,467,l),
(542,60,ls),
(542,48,o),
(538,37,o),
(530,28,cs),
(382,-120,ls),
(373,-128,o),
(372,-138,o),
(372,-150,cs),
(372,-392,ls),
(372,-407,o),
(382,-417,o),
(397,-417,cs)
);
}
);
width = 1000;
}
);
metricLeft = H;
metricRight = H;
unicode = 42790;
},
{
glyphname = Hturned;
lastChange = "2024-03-13 17:30:09 +0000";
layers = (
{
anchors = (
{
name = bottom;
pos = (538,0);
},
{
name = top;
pos = (538,1333);
}
);
layerId = "462F72A0-0500-4E69-A49B-6C2F2580580D";
shapes = (
{
closed = 1;
nodes = (
(938,0,ls),
(953,0,o),
(963,10,o),
(963,25,cs),
(963,1308,ls),
(963,1323,o),
(953,1333,o),
(938,1333,cs),
(655,1333,ls),
(640,1333,o),
(630,1323,o),
(630,1308,cs),
(630,833,l),
(447,833,l),
(447,1308,ls),
(447,1323,o),
(437,1333,o),
(422,1333,cs),
(138,1333,ls),
(123,1333,o),
(113,1323,o),
(113,1308,cs),
(113,558,ls),
(113,543,o),
(123,533,o),
(138,533,c),
(630,533,l),
(630,25,ls),
(630,10,o),
(640,0,o),
(655,0,cs)
);
}
);
width = 1083;
},
{
anchors = (
{
name = bottom;
pos = (494,0);
},
{
name = top;
pos = (494,1333);
}
);
layerId = m002;
shapes = (
{
closed = 1;
nodes = (
(927,0,ls),
(942,0,o),
(952,10,o),
(952,25,cs),
(952,1308,ls),
(952,1323,o),
(942,1333,o),
(927,1333,cs),
(560,1333,ls),
(545,1333,o),
(535,1323,o),
(535,1308,cs),
(535,867,l),
(452,867,l),
(452,1308,ls),
(452,1323,o),
(442,1333,o),
(427,1333,cs),
(60,1333,ls),
(45,1333,o),
(35,1323,o),
(35,1308,cs),
(35,492,ls),
(35,477,o),
(45,467,o),
(60,467,c),
(535,467,l),
(535,25,ls),
(535,10,o),
(545,0,o),
(560,0,cs)
);
}
);
width = 994;
}
);
metricLeft = "=four-7";
metricRight = "=H";
unicode = 42893;
},
{
glyphname = I;
kernLeft = KO_H;
kernRight = KO_H;
lastChange = "2024-02-21 10:31:13 +0000";
layers = (
{
anchors = (
{
name = bottom;
pos = (292,0);
},
{
name = ogonek;
pos = (453,25);
},
{
name = top;
pos = (292,1333);
},
{
name = topleft;
pos = (145,1333);
}
);
layerId = "462F72A0-0500-4E69-A49B-6C2F2580580D";
shapes = (
{
closed = 1;
nodes = (
(428,0,ls),
(443,0,o),
(453,10,o),
(453,25,cs),
(453,1308,ls),
(453,1323,o),
(443,1333,o),
(428,1333,cs),
(145,1333,ls),
(130,1333,o),
(120,1323,o),
(120,1308,cs),
(120,25,ls),
(120,10,o),
(130,0,o),
(145,0,cs)
);
}
);
width = 573;
},
{
anchors = (
{
name = bottom;
pos = (255,0);
},
{
name = ogonek;
pos = (458,25);
},
{
name = top;
pos = (255,1333);
},
{
name = topleft;
pos = (67,1333);
}
);
layerId = m002;
shapes = (
{
closed = 1;
nodes = (
(433,0,ls),
(448,0,o),
(458,10,o),
(458,25,cs),
(458,1308,ls),
(458,1323,o),
(448,1333,o),
(433,1333,cs),
(67,1333,ls),
(52,1333,o),
(42,1323,o),
(42,1308,cs),
(42,25,ls),
(42,10,o),
(52,0,o),
(67,0,cs)
);
}
);
width = 500;
}
);
metricLeft = H;
metricRight = H;
unicode = 73;
userData = {
KernOnName = I;
};
},
{
glyphname = IJ;
kernLeft = KO_H;
kernRight = KO_H;
lastChange = "2024-03-01 11:57:40 +0000";
layers = (
{
background = {
anchors = (
{
name = bottom;
pos = (745,-167);
},
{
name = ogonek;
pos = (453,25);
},
{
name = top;
pos = (827,1333);
},
{
name = topleft;
pos = (145,1333);
}
);
shapes = (
{
closed = 1;
nodes = (
(428,0,ls),
(443,0,o),
(453,10,o),
(453,25,cs),
(453,1308,ls),
(453,1323,o),
(443,1333,o),
(428,1333,cs),
(145,1333,ls),
(130,1333,o),
(120,1323,o),
(120,1308,cs),
(120,25,ls),
(120,10,o),
(130,0,o),
(145,0,cs)
);
},
{
closed = 1;
nodes = (
(745,-167,ls),
(757,-167,o),
(765,-162,o),
(775,-152,cs),
(982,55,ls),
(992,65,o),
(993,75,o),
(993,87,cs),
(993,1308,ls),
(993,1323,o),
(983,1333,o),
(968,1333,cs),
(685,1333,ls),
(670,1333,o),
(660,1323,o),
(660,1308,cs),
(660,227,ls),
(660,215,o),
(657,203,o),
(648,195,cs),
(500,47,ls),
(492,38,o),
(490,28,o),
(490,17,cs),
(490,-142,ls),
(490,-157,o),
(500,-167,o),
(515,-167,cs)
);
}
);
};
layerId = "462F72A0-0500-4E69-A49B-6C2F2580580D";
shapes = (
{
ref = I;
},
{
pos = (573,0);
ref = J;
}
);
width = 1236;
},
{
background = {
anchors = (
{
name = bottom;
pos = (776,0);
},
{
name = ogonek;
pos = (458,25);
},
{
name = top;
pos = (846,1333);
},
{
name = topleft;
pos = (67,1333);
}
);
shapes = (
{
closed = 1;
nodes = (
(433,0,ls),
(448,0,o),
(458,10,o),
(458,25,cs),
(458,1308,ls),
(458,1323,o),
(448,1333,o),
(433,1333,cs),
(67,1333,ls),
(52,1333,o),
(42,1323,o),
(42,1308,cs),
(42,25,ls),
(42,10,o),
(52,0,o),
(67,0,cs)
);
},
{
closed = 1;
nodes = (
(816,-167,ls),
(828,-167,o),
(836,-162,o),
(846,-152,cs),
(1053,55,ls),
(1063,65,o),
(1065,75,o),
(1065,87,cs),
(1065,1308,ls),
(1065,1323,o),
(1055,1333,o),
(1040,1333,cs),
(673,1333,ls),
(658,1333,o),
(648,1323,o),
(648,1308,cs),
(648,327,ls),
(648,315,o),
(645,303,o),
(636,295,cs),
(488,147,ls),
(480,138,o),
(478,128,o),
(478,117,cs),
(478,-142,ls),
(478,-157,o),
(488,-167,o),
(503,-167,cs)
);
}
);
};
layerId = m002;
shapes = (
{
ref = I;
},
{
pos = (500,0);
ref = J;
}
);
width = 1139;
}
);
metricLeft = "=I";
metricRight = "=J";
unicode = 306;
},
{
glyphname = IJ_acutecomb;
lastChange = "2024-03-01 11:58:59 +0000";
layers = (
{
background = {
anchors = (
{
name = bottom;
pos = (745,-167);
},
{
name = ogonek;
pos = (453,25);
},
{
name = top;
pos = (634,1648);
},
{
name = topleft;
pos = (145,1333);
}
);
shapes = (
{
closed = 1;
nodes = (
(428,0,ls),
(443,0,o),
(453,10,o),
(453,25,cs),
(453,1308,ls),
(453,1323,o),
(443,1333,o),
(428,1333,cs),
(145,1333,ls),
(130,1333,o),
(120,1323,o),
(120,1308,cs),
(120,25,ls),
(120,10,o),
(130,0,o),
(145,0,cs)
);
},
{
closed = 1;
nodes = (
(745,-167,ls),
(757,-167,o),
(765,-162,o),
(775,-152,cs),
(982,55,ls),
(992,65,o),
(993,75,o),
(993,87,cs),
(993,1308,ls),
(993,1323,o),
(983,1333,o),
(968,1333,cs),
(685,1333,ls),
(670,1333,o),
(660,1323,o),
(660,1308,cs),
(660,227,ls),
(660,215,o),
(657,203,o),
(648,195,cs),
(500,47,ls),
(492,38,o),
(490,28,o),
(490,17,cs),
(490,-142,ls),
(490,-157,o),
(500,-167,o),
(515,-167,cs)
);
},
{
closed = 1;
nodes = (
(789,1485,ls),
(800,1491,o),
(805,1501,o),
(800,1512,cs),
(743,1631,ls),
(738,1644,o),
(731,1653,o),
(716,1644,cs),
(480,1491,ls),
(466,1482,o),
(464,1474,o),
(469,1461,cs),
(504,1386,ls),
(509,1374,o),
(518,1371,o),
(531,1377,cs)
);
}
);
};
layerId = "462F72A0-0500-4E69-A49B-6C2F2580580D";
shapes = (
{
alignment = -1;
ref = I;
},
{
alignment = -1;
pos = (456,0);
ref = J;
},
{
alignment = -1;
pos = (434,233);
ref = acutecomb;
}
);
width = 1119;
},
{
background = {
anchors = (
{
name = bottom;
pos = (776,0);
},
{
name = ogonek;
pos = (458,25);
},
{
name = top;
pos = (620,1578);
},
{
name = topleft;
pos = (67,1333);
}
);
shapes = (
{
closed = 1;
nodes = (
(433,0,ls),
(448,0,o),
(458,10,o),
(458,25,cs),
(458,1308,ls),
(458,1323,o),
(448,1333,o),
(433,1333,cs),
(67,1333,ls),
(52,1333,o),
(42,1323,o),
(42,1308,cs),
(42,25,ls),
(42,10,o),
(52,0,o),
(67,0,cs)
);
},
{
closed = 1;
nodes = (
(816,-167,ls),
(828,-167,o),
(836,-162,o),
(846,-152,cs),
(1053,55,ls),
(1063,65,o),
(1065,75,o),
(1065,87,cs),
(1065,1308,ls),
(1065,1323,o),
(1055,1333,o),
(1040,1333,cs),
(673,1333,ls),
(658,1333,o),
(648,1323,o),
(648,1308,cs),
(648,327,ls),
(648,315,o),
(645,303,o),
(636,295,cs),
(488,147,ls),
(480,138,o),
(478,128,o),
(478,117,cs),
(478,-142,ls),
(478,-157,o),
(488,-167,o),
(503,-167,cs)
);
},
{
closed = 1;
nodes = (
(763,1478,ls),
(773,1483,o),
(778,1493,o),
(773,1503,cs),
(721,1613,ls),
(716,1625,o),
(710,1633,o),
(696,1625,cs),
(478,1483,ls),
(465,1475,o),
(463,1468,o),
(468,1456,cs),
(500,1386,ls),
(505,1375,o),
(513,1373,o),
(525,1378,cs)
);
}
);
};
layerId = m002;
shapes = (
{
alignment = -1;
ref = I;
},
{
alignment = -1;
pos = (456,0);
ref = J;
},
{
alignment = -1;
pos = (434,233);
ref = acutecomb;
}
);
width = 1095;
}
);
metricRight = J;
},
{
glyphname = "Iota-latin";
kernLeft = KO_U;
lastChange = "2024-03-13 17:28:30 +0000";
layers = (
{
anchors = (
{
name = bottom;
pos = (324,0);
},
{
name = top;
pos = (324,1333);
}
);
layerId = "462F72A0-0500-4E69-A49B-6C2F2580580D";
shapes = (
{
closed = 1;
nodes = (
(502,0,ls),
(517,0,o),
(527,10,o),
(527,25,cs),
(527,283,ls),
(527,295,o),
(525,305,o),
(517,313,cs),
(502,328,ls),
(493,337,o),
(490,348,o),
(490,360,cs),
(490,973,ls),
(490,985,o),
(493,997,o),
(502,1005,cs),
(517,1020,ls),
(525,1028,o),
(527,1038,o),
(527,1050,cs),
(527,1308,ls),
(527,1323,o),
(517,1333,o),
(502,1333,cs),
(145,1333,ls),
(130,1333,o),
(120,1323,o),
(120,1308,cs),
(120,1050,ls),
(120,1038,o),
(122,1028,o),
(130,1020,cs),
(145,1005,ls),
(153,997,o),
(157,985,o),
(157,973,cs),
(157,360,ls),
(157,348,o),
(153,337,o),
(145,328,cs),
(130,313,ls),
(122,305,o),
(120,295,o),
(120,283,cs),
(120,25,ls),
(120,10,o),
(130,0,o),
(145,0,cs)
);
}
);
width = 647;
},
{
anchors = (
{
name = bottom;
pos = (287,0);
},
{
name = top;
pos = (287,1333);
}
);
layerId = m002;
shapes = (
{
closed = 1;
nodes = (
(507,0,ls),
(522,0,o),
(532,10,o),
(532,25,cs),
(532,283,ls),
(532,295,o),
(530,305,o),
(522,313,cs),
(507,328,ls),
(498,337,o),
(495,348,o),
(495,360,cs),
(495,973,ls),
(495,985,o),
(498,997,o),
(507,1005,cs),
(522,1020,ls),
(530,1028,o),
(532,1038,o),
(532,1050,cs),
(532,1308,ls),
(532,1323,o),
(522,1333,o),
(507,1333,cs),
(67,1333,ls),
(52,1333,o),
(42,1323,o),
(42,1308,cs),
(42,1050,ls),
(42,1038,o),
(43,1028,o),
(52,1020,cs),
(67,1005,ls),
(75,997,o),
(78,985,o),
(78,973,cs),
(78,360,ls),
(78,348,o),
(75,337,o),
(67,328,cs),
(52,313,ls),
(43,305,o),
(42,295,o),
(42,283,cs),
(42,25,ls),
(42,10,o),
(52,0,o),
(67,0,cs)
);
}
);
width = 574;
}
);
metricLeft = I;
metricRight = I;
unicode = 406;
},
{
glyphname = Istroke;
lastChange = "2024-03-01 11:57:30 +0000";
layers = (
{
background = {
anchors = (
{
name = bottom;
pos = (400,0);
},
{
name = ogonek;
pos = (561,25);
},
{
name = top;
pos = (400,1333);
},
{
name = topleft;
pos = (253,1333);
}
);
shapes = (
{
closed = 1;
nodes = (
(536,0,ls),
(551,0,o),
(561,10,o),
(561,25,cs),
(561,1308,ls),
(561,1323,o),
(551,1333,o),
(536,1333,cs),
(253,1333,ls),
(238,1333,o),
(228,1323,o),
(228,1308,cs),
(228,25,ls),
(228,10,o),
(238,0,o),
(253,0,cs)
);
},
{
closed = 1;
nodes = (
(683,625,ls),
(698,625,o),
(708,635,o),
(708,650,cs),
(708,683,ls),
(708,698,o),
(698,708,o),
(683,708,cs),
(135,708,ls),
(120,708,o),
(110,698,o),
(110,683,cs),
(110,650,ls),
(110,635,o),
(120,625,o),
(135,625,cs)
);
}
);
};
layerId = "462F72A0-0500-4E69-A49B-6C2F2580580D";
shapes = (
{
alignment = -1;
pos = (108,0);
ref = I;
},
{
pos = (68,-537);
ref = strokeshortcomb;
}
);
width = 818;
},
{
background = {
anchors = (
{
name = bottom;
pos = (337,0);
},
{
name = ogonek;
pos = (540,25);
},
{
name = top;
pos = (337,1333);
},
{
name = topleft;
pos = (149,1333);
}
);
shapes = (
{
closed = 1;
nodes = (
(515,0,ls),
(530,0,o),
(540,10,o),
(540,25,cs),
(540,1308,ls),
(540,1323,o),
(530,1333,o),
(515,1333,cs),
(149,1333,ls),
(134,1333,o),
(124,1323,o),
(124,1308,cs),
(124,25,ls),
(124,10,o),
(134,0,o),
(149,0,cs)
);
},
{
closed = 1;
nodes = (
(605,625,ls),
(620,625,o),
(630,635,o),
(630,650,cs),
(630,683,ls),
(630,698,o),
(620,708,o),
(605,708,cs),
(57,708,ls),
(42,708,o),
(32,698,o),
(32,683,cs),
(32,650,ls),
(32,635,o),
(42,625,o),
(57,625,cs)
);
}
);
};
layerId = m002;
shapes = (
{
alignment = -1;
pos = (82,0);
ref = I;
},
{
pos = (-10,-537);
ref = strokeshortcomb;
}
);
width = 662;
}
);
metricLeft = "=I-10";
metricRight = "=I-10";
unicode = 407;
},
{
glyphname = J;
kernLeft = KO_J;
kernRight = KO_H;
lastChange = "2024-02-21 10:31:13 +0000";
layers = (
{
anchors = (
{
name = bottom;
pos = (295,-167);
},
{
name = top;
pos = (377,1333);
}
);
guides = (
{
angle = 225;
pos = (65,200);
}
);
layerId = "462F72A0-0500-4E69-A49B-6C2F2580580D";
shapes = (
{
closed = 1;
nodes = (
(295,-167,ls),
(307,-167,o),
(315,-162,o),
(325,-152,cs),
(532,55,ls),
(542,65,o),
(543,75,o),
(543,87,cs),
(543,1308,ls),
(543,1323,o),
(533,1333,o),
(518,1333,cs),
(235,1333,ls),
(220,1333,o),
(210,1323,o),
(210,1308,cs),
(210,227,ls),
(210,215,o),
(207,203,o),
(198,195,cs),
(50,47,ls),
(42,38,o),
(40,28,o),
(40,17,cs),
(40,-142,ls),
(40,-157,o),
(50,-167,o),
(65,-167,cs)
);
}
);
width = 663;
},
{
anchors = (
{
name = bottom;
pos = (305,0);
},
{
name = top;
pos = (355,1333);
}
);
associatedMasterId = "462F72A0-0500-4E69-A49B-6C2F2580580D";
layerId = "47F618A2-891F-4592-BB47-A5BEE17FF12A";
name = "Jun 4 22, 20:44";
shapes = (
{
closed = 1;
nodes = (
(322,-167,o),
(332,-162,o),
(340,-152,cs),
(578,123,ls),
(587,133,o),
(590,143,o),
(590,155,cs),
(590,1308,ls),
(590,1323,o),
(580,1333,o),
(565,1333,cs),
(202,1333,ls),
(187,1333,o),
(177,1323,o),
(177,1308,cs),
(177,372,ls),
(177,360,o),
(173,348,o),
(165,340,cs),
(17,168,ls),
(8,160,o),
(7,150,o),
(7,138,cs),
(7,-142,ls),
(7,-157,o),
(17,-167,o),
(32,-167,cs),
(310,-167,ls)
);
}
);
width = 638;
},
{
anchors = (
{
name = bottom;
pos = (308,0);
},
{
name = top;
pos = (378,1333);
}
);
guides = (
{
angle = 225;
pos = (97,200);
}
);
layerId = m002;
shapes = (
{
closed = 1;
nodes = (
(348,-167,ls),
(360,-167,o),
(368,-162,o),
(378,-152,cs),
(585,55,ls),
(595,65,o),
(597,75,o),
(597,87,cs),
(597,1308,ls),
(597,1323,o),
(587,1333,o),
(572,1333,cs),
(205,1333,ls),
(190,1333,o),
(180,1323,o),
(180,1308,cs),
(180,327,ls),
(180,315,o),
(177,303,o),
(168,295,cs),
(20,147,ls),
(12,138,o),
(10,128,o),
(10,117,cs),
(10,-142,ls),
(10,-157,o),
(20,-167,o),
(35,-167,cs)
);
}
);
width = 639;
},
{
anchors = (
{
name = bottom;
pos = (305,0);
},
{
name = top;
pos = (355,1333);
}
);
associatedMasterId = m002;
layerId = "94966038-865B-4CFF-980C-8DB8C84EB2CF";
name = "Jun 4 22, 20:44";
shapes = (
{
closed = 1;
nodes = (
(322,-167,o),
(332,-162,o),
(340,-152,cs),
(578,123,ls),
(587,133,o),
(590,143,o),
(590,155,cs),
(590,1308,ls),
(590,1323,o),
(580,1333,o),
(565,1333,cs),
(202,1333,ls),
(187,1333,o),
(177,1323,o),
(177,1308,cs),
(177,372,ls),
(177,360,o),
(173,348,o),
(165,340,cs),
(17,168,ls),
(8,160,o),
(7,150,o),
(7,138,cs),
(7,-142,ls),
(7,-157,o),
(17,-167,o),
(32,-167,cs),
(310,-167,ls)
);
}
);
width = 638;
}
);
metricRight = H;
unicode = 74;
},
{
glyphname = Jacute;
kernLeft = KO_J;
kernRight = KO_H;
lastChange = "2024-03-01 11:57:40 +0000";
layers = (
{
background = {
anchors = (
{
name = bottom;
pos = (295,-167);
},
{
name = top;
pos = (377,1653);
}
);
shapes = (
{
closed = 1;
nodes = (
(295,-167,ls),
(307,-167,o),
(315,-162,o),
(325,-152,cs),
(532,55,ls),
(542,65,o),
(543,75,o),
(543,87,cs),
(543,1308,ls),
(543,1323,o),
(533,1333,o),
(518,1333,cs),
(235,1333,ls),
(220,1333,o),
(210,1323,o),
(210,1308,cs),
(210,227,ls),
(210,215,o),
(207,203,o),
(198,195,cs),
(50,47,ls),
(42,38,o),
(40,28,o),
(40,17,cs),
(40,-142,ls),
(40,-157,o),
(50,-167,o),
(65,-167,cs)
);
},
{
closed = 1;
nodes = (
(532,1490,ls),
(543,1496,o),
(548,1506,o),
(543,1517,cs),
(486,1636,ls),
(481,1649,o),
(474,1658,o),
(459,1649,cs),
(223,1496,ls),
(209,1487,o),
(207,1479,o),
(212,1466,cs),
(247,1391,ls),
(252,1379,o),
(261,1376,o),
(274,1382,cs)
);
}
);
};
layerId = "462F72A0-0500-4E69-A49B-6C2F2580580D";
shapes = (
{
ref = J;
},
{
pos = (180,233);
ref = acutecomb;
}
);
width = 663;
},
{
background = {
anchors = (
{
name = bottom;
pos = (308,0);
},
{
name = top;
pos = (378,1583);
}
);
shapes = (
{
closed = 1;
nodes = (
(348,-167,ls),
(360,-167,o),
(368,-162,o),
(378,-152,cs),
(585,55,ls),
(595,65,o),
(597,75,o),
(597,87,cs),
(597,1308,ls),
(597,1323,o),
(587,1333,o),
(572,1333,cs),
(205,1333,ls),
(190,1333,o),
(180,1323,o),
(180,1308,cs),
(180,327,ls),
(180,315,o),
(177,303,o),
(168,295,cs),
(20,147,ls),
(12,138,o),
(10,128,o),
(10,117,cs),
(10,-142,ls),
(10,-157,o),
(20,-167,o),
(35,-167,cs)
);
},
{
closed = 1;
nodes = (
(521,1483,ls),
(531,1488,o),
(536,1498,o),
(531,1508,cs),
(479,1618,ls),
(474,1630,o),
(468,1638,o),
(454,1630,cs),
(236,1488,ls),
(223,1480,o),
(221,1473,o),
(226,1461,cs),
(258,1391,ls),
(263,1380,o),
(271,1378,o),
(283,1383,cs)
);
}
);
};
layerId = m002;
shapes = (
{
ref = J;
},
{
pos = (181,233);
ref = acutecomb;
}
);
width = 639;
}
);
},
{
glyphname = Jcircumflex;
kernLeft = KO_J;
kernRight = KO_Icircumflex;
lastChange = "2024-03-01 11:57:40 +0000";
layers = (
{
background = {
anchors = (
{
name = bottom;
pos = (295,-167);
},
{
name = top;
pos = (377,1600);
}
);
shapes = (
{
closed = 1;
nodes = (
(295,-167,ls),
(307,-167,o),
(315,-162,o),
(325,-152,cs),
(532,55,ls),
(542,65,o),
(543,75,o),
(543,87,cs),
(543,1308,ls),
(543,1323,o),
(533,1333,o),
(518,1333,cs),
(235,1333,ls),
(220,1333,o),
(210,1323,o),
(210,1308,cs),
(210,227,ls),
(210,215,o),
(207,203,o),
(198,195,cs),
(50,47,ls),
(42,38,o),
(40,28,o),
(40,17,cs),
(40,-142,ls),
(40,-157,o),
(50,-167,o),
(65,-167,cs)
);
},
{
closed = 1;
nodes = (
(312,1383,ls),
(323,1383,o),
(330,1388,o),
(338,1403,cs),
(365,1456,l),
(368,1478,l),
(382,1478,l),
(387,1456,l),
(413,1403,ls),
(422,1388,o),
(428,1383,o),
(440,1383,cs),
(582,1383,ls),
(598,1383,o),
(607,1395,o),
(598,1411,cs),
(508,1583,ls),
(502,1596,o),
(495,1600,o),
(478,1600,cs),
(272,1600,ls),
(255,1600,o),
(248,1596,o),
(242,1583,cs),
(153,1411,ls),
(145,1395,o),
(153,1383,o),
(170,1383,cs)
);
}
);
};
layerId = "462F72A0-0500-4E69-A49B-6C2F2580580D";
shapes = (
{
ref = J;
},
{
pos = (125,233);
ref = circumflexcomb;
}
);
width = 663;
},
{
background = {
anchors = (
{
name = bottom;
pos = (308,0);
},
{
name = top;
pos = (378,1583);
}
);
shapes = (
{
closed = 1;
nodes = (
(348,-167,ls),
(360,-167,o),
(368,-162,o),
(378,-152,cs),
(585,55,ls),
(595,65,o),
(597,75,o),
(597,87,cs),
(597,1308,ls),
(597,1323,o),
(587,1333,o),
(572,1333,cs),
(205,1333,ls),
(190,1333,o),
(180,1323,o),
(180,1308,cs),
(180,327,ls),
(180,315,o),
(177,303,o),
(168,295,cs),
(20,147,ls),
(12,138,o),
(10,128,o),
(10,117,cs),
(10,-142,ls),
(10,-157,o),
(20,-167,o),
(35,-167,cs)
);
},
{
closed = 1;
nodes = (
(318,1383,ls),
(328,1383,o),
(334,1388,o),
(343,1401,cs),
(369,1451,l),
(373,1471,l),
(379,1471,l),
(384,1451,l),
(411,1401,ls),
(419,1388,o),
(426,1383,o),
(436,1383,cs),
(566,1383,ls),
(583,1383,o),
(591,1395,o),
(583,1410,cs),
(499,1568,ls),
(494,1580,o),
(488,1583,o),
(471,1583,cs),
(281,1583,ls),
(264,1583,o),
(258,1580,o),
(253,1568,cs),
(171,1410,ls),
(163,1395,o),
(171,1383,o),
(188,1383,cs)
);
}
);
};
layerId = m002;
shapes = (
{
ref = J;
},
{
pos = (126,233);
ref = circumflexcomb;
}
);
width = 639;
}
);
unicode = 308;
},
{
glyphname = Jcrossedtail;
lastChange = "2024-02-21 10:31:13 +0000";
layers = (
{
layerId = "462F72A0-0500-4E69-A49B-6C2F2580580D";
shapes = (
{
closed = 1;
nodes = (
(443,-167,ls),
(455,-167,o),
(463,-162,o),
(473,-152,cs),
(680,55,ls),
(690,65,o),
(692,75,o),
(692,87,cs),
(692,165,l),
(787,165,ls),
(802,165,o),
(812,175,o),
(812,190,cs),
(812,223,ls),
(812,238,o),
(802,248,o),
(787,248,cs),
(692,248,l),
(692,1308,ls),
(692,1323,o),
(682,1333,o),
(667,1333,cs),
(383,1333,ls),
(368,1333,o),
(358,1323,o),
(358,1308,cs),
(358,248,l),
(65,248,ls),
(52,248,o),
(40,237,o),
(40,223,cs),
(40,-142,ls),
(40,-155,o),
(52,-167,o),
(65,-167,cs)
);
},
{
closed = 1;
nodes = (
(135,-87,o),
(123,-75,o),
(123,-62,cs),
(123,140,ls),
(123,153,o),
(135,165,o),
(148,165,cs),
(358,165,l),
(358,-62,ls),
(358,-75,o),
(347,-87,o),
(333,-87,cs),
(148,-87,ls)
);
}
);
width = 932;
},
{
layerId = m002;
shapes = (
{
closed = 1;
nodes = (
(447,-167,ls),
(458,-167,o),
(467,-162,o),
(477,-152,cs),
(683,55,ls),
(693,65,o),
(695,75,o),
(695,87,cs),
(695,165,l),
(740,165,ls),
(755,165,o),
(765,175,o),
(765,190,cs),
(765,223,ls),
(765,238,o),
(755,248,o),
(740,248,cs),
(695,248,l),
(695,1308,ls),
(695,1323,o),
(685,1333,o),
(670,1333,cs),
(303,1333,ls),
(288,1333,o),
(278,1323,o),
(278,1308,cs),
(278,248,l),
(35,248,ls),
(22,248,o),
(10,237,o),
(10,223,cs),
(10,-142,ls),
(10,-155,o),
(22,-167,o),
(35,-167,cs)
);
},
{
closed = 1;
nodes = (
(105,-87,o),
(93,-75,o),
(93,-62,cs),
(93,140,ls),
(93,153,o),
(105,165,o),
(118,165,cs),
(278,165,l),
(278,-62,ls),
(278,-75,o),
(267,-87,o),
(253,-87,cs),
(118,-87,ls)
);
}
);
width = 807;
}
);
metricLeft = J;
metricRight = J;
unicode = 42930;
},
{
glyphname = Jstroke;
lastChange = "2024-03-01 11:57:30 +0000";
layers = (
{
background = {
anchors = (
{
name = bottom;
pos = (295,-167);
},
{
name = top;
pos = (377,1333);
}
);
shapes = (
{
closed = 1;
nodes = (
(295,-167,ls),
(307,-167,o),
(315,-162,o),
(325,-152,cs),
(532,55,ls),
(542,65,o),
(543,75,o),
(543,87,cs),
(543,1308,ls),
(543,1323,o),
(533,1333,o),
(518,1333,cs),
(235,1333,ls),
(220,1333,o),
(210,1323,o),
(210,1308,cs),
(210,227,ls),
(210,215,o),
(207,203,o),
(198,195,cs),
(50,47,ls),
(42,38,o),
(40,28,o),
(40,17,cs),
(40,-142,ls),
(40,-157,o),
(50,-167,o),
(65,-167,cs)
);
},
{
closed = 1;
nodes = (
(655,850,ls),
(670,850,o),
(680,860,o),
(680,875,cs),
(680,908,ls),
(680,923,o),
(670,933,o),
(655,933,cs),
(107,933,ls),
(92,933,o),
(82,923,o),
(82,908,cs),
(82,875,ls),
(82,860,o),
(92,850,o),
(107,850,cs)
);
}
);
};
layerId = "462F72A0-0500-4E69-A49B-6C2F2580580D";
shapes = (
{
alignment = -1;
ref = J;
},
{
pos = (40,-312);
ref = strokeshortcomb;
}
);
width = 800;
},
{
background = {
anchors = (
{
name = bottom;
pos = (308,0);
},
{
name = top;
pos = (378,1333);
}
);
shapes = (
{
closed = 1;
nodes = (
(348,-167,ls),
(360,-167,o),
(368,-162,o),
(378,-152,cs),
(585,55,ls),
(595,65,o),
(597,75,o),
(597,87,cs),
(597,1308,ls),
(597,1323,o),
(587,1333,o),
(572,1333,cs),
(205,1333,ls),
(190,1333,o),
(180,1323,o),
(180,1308,cs),
(180,327,ls),
(180,315,o),
(177,303,o),
(168,295,cs),
(20,147,ls),
(12,138,o),
(10,128,o),
(10,117,cs),
(10,-142,ls),
(10,-157,o),
(20,-167,o),
(35,-167,cs)
);
},
{
closed = 1;
nodes = (
(655,850,ls),
(670,850,o),
(680,860,o),
(680,875,cs),
(680,908,ls),
(680,923,o),
(670,933,o),
(655,933,cs),
(107,933,ls),
(92,933,o),
(82,923,o),
(82,908,cs),
(82,875,ls),
(82,860,o),
(92,850,o),
(107,850,cs)
);
}
);
};
layerId = m002;
shapes = (
{
alignment = -1;
ref = J;
},
{
pos = (40,-312);
ref = strokeshortcomb;
}
);
width = 722;
}
);
metricLeft = J;
metricRight = J;
unicode = 584;
},
{
glyphname = K;
kernLeft = KO_H;
kernRight = KO_K;
lastChange = "2024-02-21 10:31:13 +0000";
layers = (
{
anchors = (
{
name = bottom;
pos = (498,-50);
},
{
name = top;
pos = (498,1333);
}
);
associatedMasterId = "462F72A0-0500-4E69-A49B-6C2F2580580D";
layerId = "D19A533A-5E04-46DA-96EE-466E7F3ECFA9";
name = Original;
shapes = (
{
closed = 1;
nodes = (
(50,10,o),
(60,0,o),
(75,0,cs),
(432,0,ls),
(447,0,o),
(457,10,o),
(457,25,cs),
(457,375,l),
(468,375,l),
(583,15,ls),
(587,3,o),
(602,0,o),
(613,0,cs),
(952,0,ls),
(967,0,o),
(977,10,o),
(977,25,cs),
(977,368,ls),
(977,380,o),
(973,388,o),
(967,398,cs),
(773,700,l),
(773,738,l),
(948,1002,ls),
(955,1013,o),
(960,1022,o),
(960,1033,cs),
(960,1308,ls),
(960,1323,o),
(950,1333,o),
(935,1333,cs),
(597,1333,ls),
(585,1333,o),
(568,1332,o),
(565,1320,cs),
(468,917,l),
(457,917,l),
(457,1308,ls),
(457,1323,o),
(447,1333,o),
(432,1333,cs),
(75,1333,ls),
(60,1333,o),
(50,1323,o),
(50,1308,cs),
(50,25,ls)
);
}
);
width = 997;
},
{
anchors = (
{
name = bottom;
pos = (567,0);
},
{
name = hookright;
pos = (875,1333);
},
{
name = top;
pos = (584,1333);
}
);
background = {
shapes = (
{
closed = 1;
nodes = (
(428,0,ls),
(443,0,o),
(453,10,o),
(453,25,cs),
(453,513,l),
(593,513,l),
(722,15,ls),
(725,2,o),
(743,0,o),
(752,0,cs),
(1025,0,ls),
(1040,0,o),
(1050,12,o),
(1050,25,cs),
(1050,160,ls),
(1050,180,o),
(1047,188,o),
(1042,198,cs),
(828,682,l),
(822,690,l),
(828,697,l),
(1015,1143,ls),
(1020,1153,o),
(1023,1168,o),
(1023,1183,cs),
(1023,1308,ls),
(1023,1323,o),
(1013,1333,o),
(998,1333,cs),
(735,1333,ls),
(715,1333,o),
(705,1328,o),
(703,1320,cs),
(577,778,l),
(453,778,l),
(453,1308,ls),
(453,1323,o),
(443,1333,o),
(428,1333,cs),
(145,1333,ls),
(130,1333,o),
(120,1323,o),
(120,1308,cs),
(120,25,ls),
(120,10,o),
(130,0,o),
(145,0,cs)
);
},
{
closed = 1;
nodes = (
(428,0,ls),
(443,0,o),
(453,10,o),
(453,25,cs),
(453,513,l),
(593,513,l),
(648,300,l),
(722,15,ls),
(725,2,o),
(743,0,o),
(752,0,cs),
(1025,0,ls),
(1040,0,o),
(1050,12,o),
(1050,25,cs),
(1050,160,ls),
(1050,180,o),
(1047,188,o),
(1042,198,cs),
(895,532,l),
(808,690,l),
(893,850,l),
(1015,1143,ls),
(1018,1153,o),
(1023,1168,o),
(1023,1183,cs),
(1023,1308,ls),
(1023,1323,o),
(1013,1333,o),
(998,1333,cs),
(735,1333,ls),
(715,1333,o),
(705,1328,o),
(703,1320,cs),
(645,1070,l),
(577,778,l),
(453,778,l),
(453,1308,ls),
(453,1323,o),
(443,1333,o),
(428,1333,cs),
(145,1333,ls),
(130,1333,o),
(120,1323,o),
(120,1308,cs),
(120,25,ls),
(120,10,o),
(130,0,o),
(145,0,cs)
);
}
);
};
layerId = "462F72A0-0500-4E69-A49B-6C2F2580580D";
shapes = (
{
closed = 1;
nodes = (
(428,0,ls),
(443,0,o),
(453,10,o),
(453,25,cs),
(453,513,l),
(593,513,l),
(648,332,l),
(722,15,ls),
(725,2,o),
(743,0,o),
(752,0,cs),
(1050,0,ls),
(1065,0,o),
(1075,12,o),
(1075,25,cs),
(1075,160,ls),
(1075,180,o),
(1072,188,o),
(1067,198,cs),
(920,532,l),
(833,690,l),
(918,850,l),
(1040,1143,ls),
(1043,1153,o),
(1048,1168,o),
(1048,1183,cs),
(1048,1308,ls),
(1048,1323,o),
(1038,1333,o),
(1023,1333,cs),
(735,1333,ls),
(715,1333,o),
(705,1328,o),
(703,1320,cs),
(643,1027,l),
(577,778,l),
(453,778,l),
(453,1308,ls),
(453,1323,o),
(443,1333,o),
(428,1333,cs),
(145,1333,ls),
(130,1333,o),
(120,1323,o),
(120,1308,cs),
(120,25,ls),
(120,10,o),
(130,0,o),
(145,0,cs)
);
}
);
width = 1155;
},
{
anchors = (
{
name = bottom;
pos = (498,-50);
},
{
name = top;
pos = (498,1333);
}
);
associatedMasterId = "462F72A0-0500-4E69-A49B-6C2F2580580D";
layerId = "5095C087-B7CF-44BA-A313-E33877BA9304";
name = "Jun 3 22, 20:29";
shapes = (
{
closed = 1;
nodes = (
(50,10,o),
(60,0,o),
(75,0,cs),
(432,0,ls),
(447,0,o),
(457,10,o),
(457,25,cs),
(457,375,l),
(468,375,l),
(617,15,ls),
(622,3,o),
(635,0,o),
(647,0,cs),
(952,0,ls),
(967,0,o),
(977,10,o),
(977,25,cs),
(977,305,ls),
(977,320,o),
(975,327,o),
(968,338,cs),
(773,700,l),
(773,738,l),
(948,1002,ls),
(957,1013,o),
(960,1022,o),
(960,1033,cs),
(960,1308,ls),
(960,1323,o),
(950,1333,o),
(935,1333,cs),
(597,1333,ls),
(585,1333,o),
(568,1332,o),
(565,1320,cs),
(468,917,l),
(457,917,l),
(457,1308,ls),
(457,1323,o),
(447,1333,o),
(432,1333,cs),
(75,1333,ls),
(60,1333,o),
(50,1323,o),
(50,1308,cs),
(50,25,ls)
);
}
);
width = 997;
},
{
anchors = (
{
name = bottom;
pos = (498,-50);
},
{
name = top;
pos = (498,1333);
}
);
associatedMasterId = "462F72A0-0500-4E69-A49B-6C2F2580580D";
layerId = "431D0C69-9DB6-4A23-85F9-39F294B7CCF8";
name = "Jun 4 22, 20:04";
shapes = (
{
closed = 1;
nodes = (
(432,0,ls),
(447,0,o),
(457,10,o),
(457,25,cs),
(457,388,l),
(480,388,l),
(577,20,ls),
(580,7,o),
(593,0,o),
(607,0,cs),
(957,0,ls),
(972,0,o),
(982,12,o),
(982,25,cs),
(982,272,ls),
(982,288,o),
(980,298,o),
(973,310,cs),
(808,603,l),
(808,640,l),
(947,772,ls),
(958,782,o),
(963,788,o),
(963,802,cs),
(963,1073,ls),
(963,1095,o),
(962,1100,o),
(947,1113,cs),
(717,1320,ls),
(705,1330,o),
(695,1333,o),
(677,1333,cs),
(75,1333,ls),
(60,1333,o),
(50,1323,o),
(50,1308,cs),
(50,25,ls),
(50,10,o),
(60,0,o),
(75,0,cs)
);
}
);
visible = 1;
width = 997;
},
{
anchors = (
{
name = bottom;
pos = (498,-50);
},
{
name = top;
pos = (498,1333);
}
);
associatedMasterId = "462F72A0-0500-4E69-A49B-6C2F2580580D";
layerId = "F8CEB368-3C45-42B7-A9CE-39097D833CF0";
name = "Jun 4 22, 20:15";
shapes = (
{
closed = 1;
nodes = (
(770,795,l),
(770,535,l),
(928,1002,ls),
(932,1013,o),
(940,1022,o),
(940,1033,cs),
(940,1308,ls),
(940,1323,o),
(930,1333,o),
(915,1333,cs),
(597,1333,ls),
(585,1333,o),
(567,1332,o),
(565,1320,cs),
(485,917,l),
(457,917,l),
(457,1308,ls),
(457,1323,o),
(447,1333,o),
(432,1333,cs),
(75,1333,ls),
(60,1333,o),
(50,1323,o),
(50,1308,cs),
(50,25,ls),
(50,10,o),
(60,0,o),
(75,0,cs),
(432,0,ls),
(447,0,o),
(457,10,o),
(457,25,cs),
(457,375,l),
(483,375,l),
(578,15,ls),
(582,3,o),
(597,0,o),
(608,0,cs),
(937,0,ls),
(952,0,o),
(962,12,o),
(962,25,cs),
(962,272,ls),
(962,288,o),
(958,298,o),
(953,310,cs)
);
}
);
width = 997;
},
{
anchors = (
{
name = bottom;
pos = (498,-50);
},
{
name = top;
pos = (498,1333);
}
);
associatedMasterId = m002;
layerId = "91BBEE69-323B-40EE-A178-789076CF45E2";
name = Original;
shapes = (
{
closed = 1;
nodes = (
(50,10,o),
(60,0,o),
(75,0,cs),
(432,0,ls),
(447,0,o),
(457,10,o),
(457,25,cs),
(457,375,l),
(468,375,l),
(583,15,ls),
(587,3,o),
(602,0,o),
(613,0,cs),
(952,0,ls),
(967,0,o),
(977,10,o),
(977,25,cs),
(977,368,ls),
(977,380,o),
(973,388,o),
(967,398,cs),
(773,700,l),
(773,738,l),
(948,1002,ls),
(955,1013,o),
(960,1022,o),
(960,1033,cs),
(960,1308,ls),
(960,1323,o),
(950,1333,o),
(935,1333,cs),
(597,1333,ls),
(585,1333,o),
(568,1332,o),
(565,1320,cs),
(468,917,l),
(457,917,l),
(457,1308,ls),
(457,1323,o),
(447,1333,o),
(432,1333,cs),
(75,1333,ls),
(60,1333,o),
(50,1323,o),
(50,1308,cs),
(50,25,ls)
);
}
);
width = 997;
},
{
anchors = (
{
name = bottom;
pos = (522,0);
},
{
name = hookright;
pos = (818,1333);
},
{
name = top;
pos = (510,1333);
}
);
layerId = m002;
shapes = (
{
closed = 1;
nodes = (
(433,0,ls),
(448,0,o),
(458,10,o),
(458,25,cs),
(458,375,l),
(473,375,l),
(532,200,l),
(593,15,ls),
(597,3,o),
(612,0,o),
(623,0,cs),
(965,0,ls),
(980,0,o),
(990,12,o),
(990,25,cs),
(990,260,ls),
(990,277,o),
(988,287,o),
(982,298,cs),
(813,633,l),
(797,665,l),
(813,693,l),
(958,1018,ls),
(963,1030,o),
(970,1038,o),
(970,1050,cs),
(970,1308,ls),
(970,1323,o),
(960,1333,o),
(945,1333,cs),
(607,1333,ls),
(595,1333,o),
(578,1332,o),
(575,1320,cs),
(537,1167,l),
(473,917,l),
(458,917,l),
(458,1308,ls),
(458,1323,o),
(448,1333,o),
(433,1333,cs),
(67,1333,ls),
(52,1333,o),
(42,1323,o),
(42,1308,cs),
(42,25,ls),
(42,10,o),
(52,0,o),
(67,0,cs)
);
}
);
width = 1032;
},
{
anchors = (
{
name = bottom;
pos = (498,-50);
},
{
name = top;
pos = (498,1333);
}
);
associatedMasterId = m002;
layerId = "C3F5C271-7079-4B27-A722-1ACD6A2DE10B";
name = "Jun 3 22, 20:29";
shapes = (
{
closed = 1;
nodes = (
(50,10,o),
(60,0,o),
(75,0,cs),
(432,0,ls),
(447,0,o),
(457,10,o),
(457,25,cs),
(457,375,l),
(468,375,l),
(617,15,ls),
(622,3,o),
(635,0,o),
(647,0,cs),
(952,0,ls),
(967,0,o),
(977,10,o),
(977,25,cs),
(977,305,ls),
(977,320,o),
(975,327,o),
(968,338,cs),
(773,700,l),
(773,738,l),
(948,1002,ls),
(957,1013,o),
(960,1022,o),
(960,1033,cs),
(960,1308,ls),
(960,1323,o),
(950,1333,o),
(935,1333,cs),
(597,1333,ls),
(585,1333,o),
(568,1332,o),
(565,1320,cs),
(468,917,l),
(457,917,l),
(457,1308,ls),
(457,1323,o),
(447,1333,o),
(432,1333,cs),
(75,1333,ls),
(60,1333,o),
(50,1323,o),
(50,1308,cs),
(50,25,ls)
);
}
);
width = 997;
},
{
anchors = (
{
name = bottom;
pos = (498,-50);
},
{
name = top;
pos = (498,1333);
}
);
associatedMasterId = m002;
layerId = "B0AFB480-6D49-4A33-A97D-46255A8297DC";
name = "Jun 4 22, 20:04";
shapes = (
{
closed = 1;
nodes = (
(432,0,ls),
(447,0,o),
(457,10,o),
(457,25,cs),
(457,388,l),
(480,388,l),
(577,20,ls),
(580,7,o),
(593,0,o),
(607,0,cs),
(957,0,ls),
(972,0,o),
(982,12,o),
(982,25,cs),
(982,272,ls),
(982,288,o),
(980,298,o),
(973,310,cs),
(808,603,l),
(808,640,l),
(947,772,ls),
(958,782,o),
(963,788,o),
(963,802,cs),
(963,1073,ls),
(963,1095,o),
(962,1100,o),
(947,1113,cs),
(717,1320,ls),
(705,1330,o),
(695,1333,o),
(677,1333,cs),
(75,1333,ls),
(60,1333,o),
(50,1323,o),
(50,1308,cs),
(50,25,ls),
(50,10,o),
(60,0,o),
(75,0,cs)
);
}
);
width = 997;
},
{
anchors = (
{
name = bottom;
pos = (498,-50);
},
{
name = top;
pos = (498,1333);
}
);
associatedMasterId = m002;
layerId = "02AEAF66-58F9-4B51-A311-F7EA0F4FE974";
name = "Jun 4 22, 20:15";
shapes = (
{
closed = 1;
nodes = (
(770,795,l),
(770,535,l),
(928,1002,ls),
(932,1013,o),
(940,1022,o),
(940,1033,cs),
(940,1308,ls),
(940,1323,o),
(930,1333,o),
(915,1333,cs),
(597,1333,ls),
(585,1333,o),
(567,1332,o),
(565,1320,cs),
(485,917,l),
(457,917,l),
(457,1308,ls),
(457,1323,o),
(447,1333,o),
(432,1333,cs),
(75,1333,ls),
(60,1333,o),
(50,1323,o),
(50,1308,cs),
(50,25,ls),
(50,10,o),
(60,0,o),
(75,0,cs),
(432,0,ls),
(447,0,o),
(457,10,o),
(457,25,cs),
(457,375,l),
(483,375,l),
(578,15,ls),
(582,3,o),
(597,0,o),
(608,0,cs),
(937,0,ls),
(952,0,o),
(962,12,o),
(962,25,cs),
(962,272,ls),
(962,288,o),
(958,298,o),
(953,310,cs)
);
}
);
width = 997;
}
);
metricLeft = H;
unicode = 75;
},
{
glyphname = Khook;
kernLeft = KO_H;
lastChange = "2024-03-01 11:57:30 +0000";
layers = (
{
background = {
anchors = (
{
name = bottom;
pos = (567,0);
},
{
name = hookright;
pos = (875,1333);
},
{
name = top;
pos = (584,1333);
}
);
shapes = (
{
closed = 1;
nodes = (
(428,0,ls),
(443,0,o),
(453,10,o),
(453,25,cs),
(453,513,l),
(593,513,l),
(648,332,l),
(722,15,ls),
(725,2,o),
(743,0,o),
(752,0,cs),
(1050,0,ls),
(1065,0,o),
(1075,12,o),
(1075,25,cs),
(1075,160,ls),
(1075,180,o),
(1072,188,o),
(1067,198,cs),
(920,532,l),
(833,690,l),
(918,850,l),
(1040,1143,ls),
(1043,1153,o),
(1048,1168,o),
(1048,1183,cs),
(1048,1308,ls),
(1048,1323,o),
(1038,1333,o),
(1023,1333,cs),
(735,1333,ls),
(715,1333,o),
(705,1328,o),
(703,1320,cs),
(643,1027,l),
(577,778,l),
(453,778,l),
(453,1308,ls),
(453,1323,o),
(443,1333,o),
(428,1333,cs),
(145,1333,ls),
(130,1333,o),
(120,1323,o),
(120,1308,cs),
(120,25,ls),
(120,10,o),
(130,0,o),
(145,0,cs)
);
},
{
closed = 1;
nodes = (
(1145,1050,ls),
(1159,1050,o),
(1170,1062,o),
(1170,1075,cs),
(1170,1308,ls),
(1170,1322,o),
(1159,1333,o),
(1145,1333,cs),
(875,1333,l),
(787,1050,l)
);
}
);
};
layerId = "462F72A0-0500-4E69-A49B-6C2F2580580D";
shapes = (
{
alignment = -1;
ref = K;
},
{
pos = (767,0);
ref = _hookright.part;
}
);
width = 1290;
},
{
background = {
anchors = (
{
name = bottom;
pos = (522,0);
},
{
name = hookright;
pos = (818,1333);
},
{
name = top;
pos = (510,1333);
}
);
shapes = (
{
closed = 1;
nodes = (
(433,0,ls),
(448,0,o),
(458,10,o),
(458,25,cs),
(458,375,l),
(473,375,l),
(532,200,l),
(593,15,ls),
(597,3,o),
(612,0,o),
(623,0,cs),
(965,0,ls),
(980,0,o),
(990,12,o),
(990,25,cs),
(990,260,ls),
(990,277,o),
(988,287,o),
(982,298,cs),
(813,633,l),
(797,665,l),
(813,693,l),
(958,1018,ls),
(963,1030,o),
(970,1038,o),
(970,1050,cs),
(970,1308,ls),
(970,1323,o),
(960,1333,o),
(945,1333,cs),
(607,1333,ls),
(595,1333,o),
(578,1332,o),
(575,1320,cs),
(537,1167,l),
(473,917,l),
(458,917,l),
(458,1308,ls),
(458,1323,o),
(448,1333,o),
(433,1333,cs),
(67,1333,ls),
(52,1333,o),
(42,1323,o),
(42,1308,cs),
(42,25,ls),
(42,10,o),
(52,0,o),
(67,0,cs)
);
},
{
closed = 1;
nodes = (
(1088,933,ls),
(1101,933,o),
(1113,945,o),
(1113,958,cs),
(1113,1308,ls),
(1113,1322,o),
(1101,1333,o),
(1088,1333,cs),
(818,1333,l),
(730,933,l)
);
}
);
};
layerId = m002;
shapes = (
{
alignment = -1;
ref = K;
},
{
pos = (688,0);
ref = _hookright.part;
}
);
width = 1155;
}
);
metricRight = O;
unicode = 408;
},
{
glyphname = Kstroke;
lastChange = "2024-03-01 11:57:30 +0000";
layers = (
{
background = {
anchors = (
{
name = bottom;
pos = (679,0);
},
{
name = hookright;
pos = (987,1333);
},
{
name = top;
pos = (696,1333);
}
);
shapes = (
{
closed = 1;
nodes = (
(540,0,ls),
(555,0,o),
(565,10,o),
(565,25,cs),
(565,513,l),
(705,513,l),
(760,332,l),
(834,15,ls),
(837,2,o),
(855,0,o),
(864,0,cs),
(1162,0,ls),
(1177,0,o),
(1187,12,o),
(1187,25,cs),
(1187,160,ls),
(1187,180,o),
(1184,188,o),
(1179,198,cs),
(1032,532,l),
(945,690,l),
(1030,850,l),
(1152,1143,ls),
(1155,1153,o),
(1160,1168,o),
(1160,1183,cs),
(1160,1308,ls),
(1160,1323,o),
(1150,1333,o),
(1135,1333,cs),
(847,1333,ls),
(827,1333,o),
(817,1328,o),
(815,1320,cs),
(755,1027,l),
(689,778,l),
(565,778,l),
(565,1308,ls),
(565,1323,o),
(555,1333,o),
(540,1333,cs),
(257,1333,ls),
(242,1333,o),
(232,1323,o),
(232,1308,cs),
(232,25,ls),
(232,10,o),
(242,0,o),
(257,0,cs)
);
},
{
closed = 1;
nodes = (
(693,1045,ls),
(708,1045,o),
(718,1055,o),
(718,1070,cs),
(718,1103,ls),
(718,1118,o),
(708,1128,o),
(693,1128,cs),
(145,1128,ls),
(130,1128,o),
(120,1118,o),
(120,1103,cs),
(120,1070,ls),
(120,1055,o),
(130,1045,o),
(145,1045,cs)
);
}
);
};
layerId = "462F72A0-0500-4E69-A49B-6C2F2580580D";
shapes = (
{
alignment = -1;
pos = (112,0);
ref = K;
},
{
pos = (78,-117);
ref = strokeshortcomb;
}
);
width = 1267;
},
{
background = {
anchors = (
{
name = bottom;
pos = (659,0);
},
{
name = hookright;
pos = (955,1333);
},
{
name = top;
pos = (647,1333);
}
);
shapes = (
{
closed = 1;
nodes = (
(570,0,ls),
(585,0,o),
(595,10,o),
(595,25,cs),
(595,375,l),
(610,375,l),
(669,200,l),
(730,15,ls),
(734,3,o),
(749,0,o),
(760,0,cs),
(1102,0,ls),
(1117,0,o),
(1127,12,o),
(1127,25,cs),
(1127,260,ls),
(1127,277,o),
(1125,287,o),
(1119,298,cs),
(950,633,l),
(934,665,l),
(950,693,l),
(1095,1018,ls),
(1100,1030,o),
(1107,1038,o),
(1107,1050,cs),
(1107,1308,ls),
(1107,1323,o),
(1097,1333,o),
(1082,1333,cs),
(744,1333,ls),
(732,1333,o),
(715,1332,o),
(712,1320,cs),
(674,1167,l),
(610,917,l),
(595,917,l),
(595,1308,ls),
(595,1323,o),
(585,1333,o),
(570,1333,cs),
(204,1333,ls),
(189,1333,o),
(179,1323,o),
(179,1308,cs),
(179,25,ls),
(179,10,o),
(189,0,o),
(204,0,cs)
);
},
{
closed = 1;
nodes = (
(615,1057,ls),
(630,1057,o),
(640,1067,o),
(640,1082,cs),
(640,1115,ls),
(640,1130,o),
(630,1140,o),
(615,1140,cs),
(67,1140,ls),
(52,1140,o),
(42,1130,o),
(42,1115,cs),
(42,1082,ls),
(42,1067,o),
(52,1057,o),
(67,1057,cs)
);
}
);
};
layerId = m002;
shapes = (
{
alignment = -1;
pos = (137,0);
ref = K;
},
{
pos = (0,-105);
ref = strokeshortcomb;
}
);
width = 1169;
}
);
metricLeft = K;
metricRight = K;
unicode = 42816;
},
{
glyphname = L;
kernLeft = KO_H;
kernRight = KO_L;
lastChange = "2024-03-01 11:59:29 +0000";
layers = (
{
anchors = (
{
name = bottom;
pos = (425,0);
},
{
name = center;
pos = (303,770);
},
{
name = top;
pos = (295,1333);
},
{
name = topright;
pos = (428,1333);
}
);
layerId = "462F72A0-0500-4E69-A49B-6C2F2580580D";
shapes = (
{
closed = 1;
nodes = (
(705,0,ls),
(718,0,o),
(730,12,o),
(730,25,cs),
(730,242,ls),
(730,255,o),
(718,267,o),
(705,267,cs),
(453,267,l),
(453,1308,ls),
(453,1322,o),
(442,1333,o),
(428,1333,cs),
(145,1333,ls),
(132,1333,o),
(120,1322,o),
(120,1308,cs),
(120,25,ls),
(120,12,o),
(132,0,o),
(145,0,cs)
);
}
);
width = 770;
},
{
anchors = (
{
name = bottom;
pos = (347,0);
},
{
name = center;
pos = (258,757);
},
{
name = top;
pos = (254,1333);
},
{
name = topright;
pos = (643,1333);
}
);
layerId = m002;
shapes = (
{
closed = 1;
nodes = (
(627,0,ls),
(640,0,o),
(652,12,o),
(652,25,cs),
(652,375,ls),
(652,388,o),
(640,400,o),
(627,400,cs),
(458,400,l),
(458,1308,ls),
(458,1322,o),
(447,1333,o),
(433,1333,cs),
(67,1333,ls),
(53,1333,o),
(42,1322,o),
(42,1308,cs),
(42,25,ls),
(42,12,o),
(53,0,o),
(67,0,cs)
);
}
);
width = 693;
}
);
metricLeft = H;
unicode = 76;
userData = {
KernOnName = L;
};
},
{
glyphname = Lbelt;
lastChange = "2024-02-21 10:45:50 +0000";
layers = (
{
layerId = "462F72A0-0500-4E69-A49B-6C2F2580580D";
shapes = (
{
closed = 1;
nodes = (
(422,587,l),
(420,667,l),
(229,667,ls),
(215,667,o),
(204,678,o),
(204,692,cs),
(204,893,ls),
(204,907,o),
(215,918,o),
(229,918,cs),
(535,918,ls),
(550,918,o),
(560,928,o),
(560,943,cs),
(560,977,ls),
(560,992,o),
(550,1002,o),
(535,1002,cs),
(145,1002,ls),
(132,1002,o),
(120,990,o),
(120,977,cs),
(120,612,ls),
(120,598,o),
(132,587,o),
(145,587,cs)
);
},
{
closed = 1;
nodes = (
(897,583,ls),
(912,583,o),
(922,593,o),
(922,608,cs),
(922,642,ls),
(922,657,o),
(912,667,o),
(897,667,cs),
(512,667,ls),
(497,667,o),
(487,657,o),
(487,642,cs),
(487,608,ls),
(487,593,o),
(497,583,o),
(512,583,cs)
);
},
{
pos = (187,0);
ref = L;
}
);
width = 962;
},
{
layerId = m002;
shapes = (
{
closed = 1;
nodes = (
(293,587,l),
(292,667,l),
(150,667,ls),
(137,667,o),
(125,678,o),
(125,692,cs),
(125,893,ls),
(125,907,o),
(137,918,o),
(150,918,cs),
(553,918,ls),
(568,918,o),
(578,928,o),
(578,943,cs),
(578,977,ls),
(578,992,o),
(568,1002,o),
(553,1002,cs),
(67,1002,ls),
(53,1002,o),
(42,990,o),
(42,977,cs),
(42,612,ls),
(42,598,o),
(53,587,o),
(67,587,cs)
);
},
{
closed = 1;
nodes = (
(802,583,ls),
(817,583,o),
(827,593,o),
(827,608,cs),
(827,642,ls),
(827,657,o),
(817,667,o),
(802,667,cs),
(417,667,ls),
(402,667,o),
(392,657,o),
(392,642,cs),
(392,608,ls),
(392,593,o),
(402,583,o),
(417,583,cs)
);
},
{
pos = (180,0);
ref = L;
}
);
width = 873;
}
);
metricLeft = O;
metricRight = L;
unicode = 42925;
},
{
glyphname = Lcaron;
kernLeft = KO_H;
kernRight = KO_Lcaron;
lastChange = "2024-03-01 11:59:52 +0000";
layers = (
{
background = {
anchors = (
{
name = bottom;
pos = (425,0);
},
{
name = center;
pos = (303,770);
},
{
name = top;
pos = (295,1333);
},
{
name = topright;
pos = (428,1333);
}
);
shapes = (
{
closed = 1;
nodes = (
(705,0,ls),
(718,0,o),
(730,12,o),
(730,25,cs),
(730,242,ls),
(730,255,o),
(718,267,o),
(705,267,cs),
(453,267,l),
(453,1308,ls),
(453,1322,o),
(442,1333,o),
(428,1333,cs),
(145,1333,ls),
(132,1333,o),
(120,1322,o),
(120,1308,cs),
(120,25,ls),
(120,12,o),
(132,0,o),
(145,0,cs)
);
},
{
closed = 1;
nodes = (
(688,948,ls),
(703,948,o),
(711,955,o),
(713,971,cs),
(743,1305,ls),
(745,1321,o),
(735,1331,o),
(718,1331,cs),
(585,1331,ls),
(568,1331,o),
(560,1321,o),
(560,1305,cs),
(560,971,ls),
(560,955,o),
(570,948,o),
(585,948,cs)
);
}
);
};
layerId = "462F72A0-0500-4E69-A49B-6C2F2580580D";
shapes = (
{
alignment = -1;
ref = L;
},
{
alignment = -1;
pos = (519,-5);
ref = caroncomb.alt;
}
);
width = 770;
},
{
background = {
anchors = (
{
name = bottom;
pos = (347,0);
},
{
name = center;
pos = (258,757);
},
{
name = top;
pos = (254,1333);
},
{
name = topright;
pos = (643,1333);
}
);
shapes = (
{
closed = 1;
nodes = (
(627,0,ls),
(640,0,o),
(652,12,o),
(652,25,cs),
(652,375,ls),
(652,388,o),
(640,400,o),
(627,400,cs),
(458,400,l),
(458,1308,ls),
(458,1322,o),
(447,1333,o),
(433,1333,cs),
(67,1333,ls),
(53,1333,o),
(42,1322,o),
(42,1308,cs),
(42,25,ls),
(42,12,o),
(53,0,o),
(67,0,cs)
);
},
{
closed = 1;
nodes = (
(688,948,ls),
(703,948,o),
(711,955,o),
(713,971,cs),
(743,1305,ls),
(745,1321,o),
(735,1331,o),
(718,1331,cs),
(585,1331,ls),
(568,1331,o),
(560,1321,o),
(560,1305,cs),
(560,971,ls),
(560,955,o),
(570,948,o),
(585,948,cs)
);
}
);
};
layerId = m002;
shapes = (
{
alignment = -1;
ref = L;
},
{
alignment = -1;
pos = (520,0);
ref = caroncomb.alt;
}
);
width = 693;
}
);
unicode = 317;
},
{
glyphname = Ldot;
kernLeft = KO_H;
lastChange = "2024-03-01 12:00:33 +0000";
layers = (
{
background = {
anchors = (
{
name = bottom;
pos = (425,0);
},
{
name = center;
pos = (303,770);
},
{
name = top;
pos = (295,1333);
},
{
name = topright;
pos = (428,1333);
}
);
shapes = (
{
closed = 1;
nodes = (
(705,0,ls),
(718,0,o),
(730,12,o),
(730,25,cs),
(730,242,ls),
(730,255,o),
(718,267,o),
(705,267,cs),
(453,267,l),
(453,1308,ls),
(453,1322,o),
(442,1333,o),
(428,1333,cs),
(145,1333,ls),
(132,1333,o),
(120,1322,o),
(120,1308,cs),
(120,25,ls),
(120,12,o),
(132,0,o),
(145,0,cs)
);
},
{
closed = 1;
nodes = (
(800,587,ls),
(811,587,o),
(819,594,o),
(819,606,cs),
(819,836,ls),
(819,847,o),
(811,856,o),
(800,856,cs),
(569,856,ls),
(558,856,o),
(551,847,o),
(551,836,cs),
(551,606,ls),
(551,594,o),
(558,587,o),
(569,587,cs)
);
}
);
};
layerId = "462F72A0-0500-4E69-A49B-6C2F2580580D";
shapes = (
{
closed = 1;
nodes = (
(800,587,ls),
(811,587,o),
(819,594,o),
(819,606,cs),
(819,836,ls),
(819,847,o),
(811,856,o),
(800,856,cs),
(569,856,ls),
(558,856,o),
(551,847,o),
(551,836,cs),
(551,606,ls),
(551,594,o),
(558,587,o),
(569,587,cs)
);
},
{
ref = L;
}
);
width = 770;
},
{
background = {
anchors = (
{
name = bottom;
pos = (347,0);
},
{
name = center;
pos = (258,757);
},
{
name = top;
pos = (254,1333);
},
{
name = topright;
pos = (643,1333);
}
);
shapes = (
{
closed = 1;
nodes = (
(627,0,ls),
(640,0,o),
(652,12,o),
(652,25,cs),
(652,375,ls),
(652,388,o),
(640,400,o),
(627,400,cs),
(458,400,l),
(458,1308,ls),
(458,1322,o),
(447,1333,o),
(433,1333,cs),
(67,1333,ls),
(53,1333,o),
(42,1322,o),
(42,1308,cs),
(42,25,ls),
(42,12,o),
(53,0,o),
(67,0,cs)
);
},
{
closed = 1;
nodes = (
(752,587,ls),
(763,587,o),
(770,594,o),
(770,605,cs),
(770,825,ls),
(770,836,o),
(763,843,o),
(752,843,cs),
(533,843,ls),
(522,843,o),
(515,836,o),
(515,825,cs),
(515,605,ls),
(515,594,o),
(522,587,o),
(533,587,cs)
);
}
);
};
layerId = m002;
shapes = (
{
closed = 1;
nodes = (
(752,587,ls),
(763,587,o),
(770,594,o),
(770,605,cs),
(770,825,ls),
(770,836,o),
(763,843,o),
(752,843,cs),
(533,843,ls),
(522,843,o),
(515,836,o),
(515,825,cs),
(515,605,ls),
(515,594,o),
(522,587,o),
(533,587,cs)
);
},
{
ref = L;
}
);
width = 693;
}
);
metricLeft = "=H";
unicode = 319;
},
{
glyphname = Ldoublebar;
lastChange = "2024-03-01 11:57:30 +0000";
layers = (
{
background = {
anchors = (
{
name = bottom;
pos = (505,0);
},
{
name = center;
pos = (383,770);
},
{
name = top;
pos = (375,1333);
},
{
name = topright;
pos = (508,1333);
}
);
shapes = (
{
closed = 1;
nodes = (
(785,0,ls),
(798,0,o),
(810,12,o),
(810,25,cs),
(810,242,ls),
(810,255,o),
(798,267,o),
(785,267,cs),
(533,267,l),
(533,1308,ls),
(533,1322,o),
(522,1333,o),
(508,1333,cs),
(225,1333,ls),
(212,1333,o),
(200,1322,o),
(200,1308,cs),
(200,25,ls),
(200,12,o),
(212,0,o),
(225,0,cs)
);
},
{
closed = 1;
nodes = (
(667,850,ls),
(681,850,o),
(690,860,o),
(690,875,cs),
(690,908,ls),
(690,923,o),
(681,933,o),
(667,933,cs),
(144,933,ls),
(130,933,o),
(120,923,o),
(120,908,cs),
(120,875,ls),
(120,860,o),
(130,850,o),
(144,850,cs)
);
},
{
closed = 1;
nodes = (
(667,665,ls),
(681,665,o),
(690,675,o),
(690,690,cs),
(690,723,ls),
(690,738,o),
(681,748,o),
(667,748,cs),
(144,748,ls),
(130,748,o),
(120,738,o),
(120,723,cs),
(120,690,ls),
(120,675,o),
(130,665,o),
(144,665,cs)
);
}
);
};
layerId = "462F72A0-0500-4E69-A49B-6C2F2580580D";
shapes = (
{
alignment = -1;
pos = (80,0);
ref = L;
},
{
alignment = -1;
pos = (80,-312);
ref = strokeshortcomb;
scale = (0.9539,1);
},
{
alignment = -1;
pos = (80,-497);
ref = strokeshortcomb;
scale = (0.9539,1);
}
);
width = 850;
},
{
background = {
anchors = (
{
name = bottom;
pos = (415,0);
},
{
name = center;
pos = (326,757);
},
{
name = top;
pos = (322,1333);
},
{
name = topright;
pos = (711,1333);
}
);
shapes = (
{
closed = 1;
nodes = (
(695,0,ls),
(708,0,o),
(720,12,o),
(720,25,cs),
(720,375,ls),
(720,388,o),
(708,400,o),
(695,400,cs),
(526,400,l),
(526,1308,ls),
(526,1322,o),
(515,1333,o),
(501,1333,cs),
(135,1333,ls),
(121,1333,o),
(110,1322,o),
(110,1308,cs),
(110,25,ls),
(110,12,o),
(121,0,o),
(135,0,cs)
);
},
{
closed = 1;
nodes = (
(589,850,ls),
(603,850,o),
(612,860,o),
(612,875,cs),
(612,908,ls),
(612,923,o),
(603,933,o),
(589,933,cs),
(66,933,ls),
(52,933,o),
(42,923,o),
(42,908,cs),
(42,875,ls),
(42,860,o),
(52,850,o),
(66,850,cs)
);
},
{
closed = 1;
nodes = (
(589,665,ls),
(603,665,o),
(612,675,o),
(612,690,cs),
(612,723,ls),
(612,738,o),
(603,748,o),
(589,748,cs),
(66,748,ls),
(52,748,o),
(42,738,o),
(42,723,cs),
(42,690,ls),
(42,675,o),
(52,665,o),
(66,665,cs)
);
}
);
};
layerId = m002;
shapes = (
{
alignment = -1;
pos = (68,0);
ref = L;
},
{
alignment = -1;
pos = (2,-312);
ref = strokeshortcomb;
scale = (0.9539,1);
},
{
alignment = -1;
pos = (2,-497);
ref = strokeshortcomb;
scale = (0.9539,1);
}
);
width = 761;
}
);
metricLeft = L;
metricRight = L;
unicode = 11360;
},
{
glyphname = Lmiddletilde;
lastChange = "2024-02-21 10:45:50 +0000";
layers = (
{
layerId = "462F72A0-0500-4E69-A49B-6C2F2580580D";
shapes = (
{
closed = 1;
nodes = (
(234,597,ls),
(247,597,o),
(259,605,o),
(262,615,cs),
(297,710,l),
(515,710,l),
(559,622,ls),
(565,607,o),
(577,597,o),
(594,597,cs),
(822,597,ls),
(840,597,o),
(847,603,o),
(854,617,cs),
(962,822,ls),
(970,837,o),
(964,847,o),
(950,847,cs),
(835,847,ls),
(822,847,o),
(810,838,o),
(807,828,cs),
(772,733,l),
(587,733,l),
(544,822,ls),
(537,837,o),
(525,847,o),
(509,847,cs),
(260,847,ls),
(242,847,o),
(235,840,o),
(229,827,cs),
(124,622,ls),
(115,607,o),
(122,597,o),
(135,597,cs)
);
},
{
pos = (269,0);
ref = L;
}
);
width = 1119;
},
{
layerId = m002;
shapes = (
{
closed = 1;
nodes = (
(156,597,ls),
(169,597,o),
(181,605,o),
(184,615,cs),
(219,710,l),
(471,710,l),
(514,622,ls),
(521,607,o),
(533,597,o),
(549,597,cs),
(811,597,ls),
(829,597,o),
(836,603,o),
(843,617,cs),
(951,822,ls),
(959,837,o),
(953,847,o),
(939,847,cs),
(824,847,ls),
(811,847,o),
(799,838,o),
(796,828,cs),
(761,733,l),
(543,733,l),
(499,822,ls),
(493,837,o),
(481,847,o),
(464,847,cs),
(183,847,ls),
(164,847,o),
(158,840,o),
(151,827,cs),
(46,622,ls),
(38,607,o),
(44,597,o),
(58,597,cs)
);
},
{
pos = (238,0);
ref = L;
}
);
width = 997;
}
);
metricLeft = O;
metricRight = O;
unicode = 11362;
},
{
glyphname = Lslash;
kernLeft = KO_Lslash;
kernRight = KO_L;
lastChange = "2024-02-21 10:31:13 +0000";
layers = (
{
layerId = "462F72A0-0500-4E69-A49B-6C2F2580580D";
shapes = (
{
closed = 1;
nodes = (
(567,820,ls),
(578,827,o),
(585,835,o),
(585,848,cs),
(585,997,ls),
(585,1015,o),
(572,1023,o),
(555,1015,cs),
(-2,738,ls),
(-13,732,o),
(-20,723,o),
(-20,710,cs),
(-20,562,ls),
(-20,543,o),
(-7,535,o),
(10,543,cs)
);
},
{
ref = L;
}
);
width = 770;
},
{
layerId = m002;
shapes = (
{
closed = 1;
nodes = (
(547,820,ls),
(558,827,o),
(565,835,o),
(565,848,cs),
(565,997,ls),
(565,1015,o),
(552,1023,o),
(535,1015,cs),
(-22,738,ls),
(-33,732,o),
(-40,723,o),
(-40,710,cs),
(-40,562,ls),
(-40,543,o),
(-27,535,o),
(-10,543,cs)
);
},
{
ref = L;
}
);
width = 693;
}
);
metricRight = "=L";
unicode = 321;
},
{
glyphname = M;
kernLeft = KO_H;
kernRight = KO_H;
lastChange = "2024-02-21 10:31:13 +0000";
layers = (
{
anchors = (
{
name = bottom;
pos = (803,0);
},
{
name = top;
pos = (803,1333);
}
);
layerId = "462F72A0-0500-4E69-A49B-6C2F2580580D";
shapes = (
{
closed = 1;
nodes = (
(428,0,ls),
(443,0,o),
(453,10,o),
(453,25,cs),
(453,1067,l),
(637,1067,l),
(637,25,ls),
(637,10,o),
(647,0,o),
(662,0,cs),
(945,0,ls),
(960,0,o),
(970,10,o),
(970,25,cs),
(970,1067,l),
(1153,1067,l),
(1153,25,ls),
(1153,10,o),
(1163,0,o),
(1178,0,cs),
(1462,0,ls),
(1477,0,o),
(1487,10,o),
(1487,25,cs),
(1487,1110,ls),
(1487,1127,o),
(1482,1138,o),
(1470,1150,cs),
(1303,1317,ls),
(1292,1328,o),
(1280,1333,o),
(1263,1333,cs),
(1035,1333,ls),
(1018,1333,o),
(1007,1328,o),
(995,1317,cs),
(827,1148,l),
(780,1148,l),
(612,1317,ls),
(600,1328,o),
(588,1333,o),
(572,1333,cs),
(343,1333,ls),
(327,1333,o),
(315,1328,o),
(303,1317,cs),
(137,1150,ls),
(125,1138,o),
(120,1127,o),
(120,1110,cs),
(120,25,ls),
(120,10,o),
(130,0,o),
(145,0,cs)
);
}
);
width = 1607;
},
{
anchors = (
{
name = bottom;
pos = (613,0);
},
{
name = top;
pos = (613,1333);
}
);
associatedMasterId = "462F72A0-0500-4E69-A49B-6C2F2580580D";
layerId = "9942C253-D868-423E-B459-293273BC47C7";
name = "Jul 30 22, 01:46";
shapes = (
{
closed = 1;
nodes = (
(50,12,o),
(62,0,o),
(75,0,cs),
(415,0,ls),
(428,0,o),
(432,12,o),
(432,25,cs),
(432,643,l),
(465,643,l),
(488,203,ls),
(488,192,o),
(500,182,o),
(512,182,cs),
(705,182,ls),
(717,182,o),
(728,192,o),
(730,203,cs),
(762,643,l),
(795,643,l),
(795,25,ls),
(795,12,o),
(797,0,o),
(810,0,cs),
(1150,0,ls),
(1163,0,o),
(1175,12,o),
(1175,25,cs),
(1175,1308,ls),
(1175,1322,o),
(1163,1333,o),
(1150,1333,cs),
(688,1333,ls),
(677,1333,o),
(667,1327,o),
(665,1313,cs),
(625,845,l),
(602,845,l),
(560,1313,ls),
(558,1327,o),
(548,1333,o),
(537,1333,cs),
(75,1333,ls),
(62,1333,o),
(50,1322,o),
(50,1308,cs),
(50,25,ls)
);
}
);
width = 1225;
},
{
anchors = (
{
name = bottom;
pos = (613,0);
},
{
name = top;
pos = (613,1333);
}
);
associatedMasterId = "462F72A0-0500-4E69-A49B-6C2F2580580D";
layerId = "C6E8B324-C2B6-4435-A495-12900C5EBB12";
name = "Jul 30 22, 01:47";
shapes = (
{
closed = 1;
nodes = (
(50,12,o),
(62,0,o),
(75,0,cs),
(415,0,ls),
(428,0,o),
(432,12,o),
(432,25,cs),
(432,643,l),
(448,643,l),
(488,203,ls),
(490,192,o),
(500,182,o),
(512,182,cs),
(705,182,ls),
(717,182,o),
(728,192,o),
(730,203,cs),
(778,643,l),
(795,643,l),
(795,25,ls),
(795,12,o),
(797,0,o),
(810,0,cs),
(1150,0,ls),
(1163,0,o),
(1175,12,o),
(1175,25,cs),
(1175,1308,ls),
(1175,1322,o),
(1163,1333,o),
(1150,1333,cs),
(688,1333,ls),
(677,1333,o),
(667,1327,o),
(665,1313,cs),
(618,845,l),
(608,845,l),
(560,1313,ls),
(558,1327,o),
(548,1333,o),
(537,1333,cs),
(75,1333,ls),
(62,1333,o),
(50,1322,o),
(50,1308,cs),
(50,25,ls)
);
}
);
width = 1225;
},
{
anchors = (
{
name = bottom;
pos = (750,0);
},
{
name = top;
pos = (750,1333);
}
);
layerId = m002;
shapes = (
{
closed = 1;
nodes = (
(433,0,ls),
(448,0,o),
(458,10,o),
(458,25,cs),
(458,850,l),
(542,850,l),
(542,25,ls),
(542,10,o),
(552,0,o),
(567,0,cs),
(933,0,ls),
(948,0,o),
(958,10,o),
(958,25,cs),
(958,850,l),
(1042,850,l),
(1042,25,ls),
(1042,10,o),
(1052,0,o),
(1067,0,cs),
(1433,0,ls),
(1448,0,o),
(1458,10,o),
(1458,25,cs),
(1458,1077,ls),
(1458,1093,o),
(1453,1105,o),
(1442,1117,cs),
(1242,1317,ls),
(1230,1328,o),
(1218,1333,o),
(1202,1333,cs),
(982,1333,ls),
(965,1333,o),
(953,1328,o),
(942,1317,cs),
(773,1148,l),
(727,1148,l),
(558,1317,ls),
(547,1328,o),
(535,1333,o),
(518,1333,cs),
(298,1333,ls),
(282,1333,o),
(270,1328,o),
(258,1317,cs),
(58,1117,ls),
(47,1105,o),
(42,1093,o),
(42,1077,cs),
(42,25,ls),
(42,10,o),
(52,0,o),
(67,0,cs)
);
}
);
width = 1500;
},
{
anchors = (
{
name = bottom;
pos = (613,0);
},
{
name = top;
pos = (613,1333);
}
);
associatedMasterId = m002;
layerId = "E6318F33-3A96-4708-A324-217491F126C0";
name = "Jul 30 22, 01:46";
shapes = (
{
closed = 1;
nodes = (
(50,12,o),
(62,0,o),
(75,0,cs),
(415,0,ls),
(428,0,o),
(432,12,o),
(432,25,cs),
(432,643,l),
(465,643,l),
(488,203,ls),
(488,192,o),
(500,182,o),
(512,182,cs),
(705,182,ls),
(717,182,o),
(728,192,o),
(730,203,cs),
(762,643,l),
(795,643,l),
(795,25,ls),
(795,12,o),
(797,0,o),
(810,0,cs),
(1150,0,ls),
(1163,0,o),
(1175,12,o),
(1175,25,cs),
(1175,1308,ls),
(1175,1322,o),
(1163,1333,o),
(1150,1333,cs),
(688,1333,ls),
(677,1333,o),
(667,1327,o),
(665,1313,cs),
(625,845,l),
(602,845,l),
(560,1313,ls),
(558,1327,o),
(548,1333,o),
(537,1333,cs),
(75,1333,ls),
(62,1333,o),
(50,1322,o),
(50,1308,cs),
(50,25,ls)
);
}
);
width = 1225;
},
{
anchors = (
{
name = bottom;
pos = (613,0);
},
{
name = top;
pos = (613,1333);
}
);
associatedMasterId = m002;
layerId = "068ACCD8-D675-41BA-9C5D-0B82AD58D73A";
name = "Jul 30 22, 01:47";
shapes = (
{
closed = 1;
nodes = (
(50,12,o),
(62,0,o),
(75,0,cs),
(415,0,ls),
(428,0,o),
(432,12,o),
(432,25,cs),
(432,643,l),
(448,643,l),
(488,203,ls),
(490,192,o),
(500,182,o),
(512,182,cs),
(705,182,ls),
(717,182,o),
(728,192,o),
(730,203,cs),
(778,643,l),
(795,643,l),
(795,25,ls),
(795,12,o),
(797,0,o),
(810,0,cs),
(1150,0,ls),
(1163,0,o),
(1175,12,o),
(1175,25,cs),
(1175,1308,ls),
(1175,1322,o),
(1163,1333,o),
(1150,1333,cs),
(688,1333,ls),
(677,1333,o),
(667,1327,o),
(665,1313,cs),
(618,845,l),
(608,845,l),
(560,1313,ls),
(558,1327,o),
(548,1333,o),
(537,1333,cs),
(75,1333,ls),
(62,1333,o),
(50,1322,o),
(50,1308,cs),
(50,25,ls)
);
}
);
width = 1225;
}
);
metricLeft = H;
metricRight = H;
unicode = 77;
},
{
glyphname = N;
kernLeft = KO_H;
kernRight = KO_N;
lastChange = "2024-02-21 10:31:13 +0000";
layers = (
{
anchors = (
{
name = bottom;
pos = (545,0);
},
{
name = bottomhook;
pos = (453,25);
},
{
name = top;
pos = (545,1333);
}
);
layerId = "462F72A0-0500-4E69-A49B-6C2F2580580D";
shapes = (
{
closed = 1;
nodes = (
(428,0,ls),
(443,0,o),
(453,10,o),
(453,25,cs),
(453,1067,l),
(637,1067,l),
(637,25,ls),
(637,10,o),
(647,0,o),
(662,0,cs),
(945,0,ls),
(960,0,o),
(970,10,o),
(970,25,cs),
(970,1077,ls),
(970,1093,o),
(965,1105,o),
(953,1117,cs),
(753,1317,ls),
(742,1328,o),
(730,1333,o),
(713,1333,cs),
(145,1333,ls),
(130,1333,o),
(120,1323,o),
(120,1308,cs),
(120,25,ls),
(120,10,o),
(130,0,o),
(145,0,cs)
);
}
);
width = 1090;
},
{
anchors = (
{
name = bottom;
pos = (500,0);
},
{
name = bottomhook;
pos = (458,25);
},
{
name = top;
pos = (500,1333);
}
);
layerId = m002;
shapes = (
{
closed = 1;
nodes = (
(433,0,ls),
(448,0,o),
(458,10,o),
(458,25,cs),
(458,933,l),
(542,933,l),
(542,25,ls),
(542,10,o),
(552,0,o),
(567,0,cs),
(933,0,ls),
(948,0,o),
(958,10,o),
(958,25,cs),
(958,1077,ls),
(958,1093,o),
(953,1105,o),
(942,1117,cs),
(742,1317,ls),
(730,1328,o),
(718,1333,o),
(702,1333,cs),
(67,1333,ls),
(52,1333,o),
(42,1323,o),
(42,1308,cs),
(42,25,ls),
(42,10,o),
(52,0,o),
(67,0,cs)
);
}
);
width = 1000;
}
);
metricLeft = H;
metricRight = H;
unicode = 78;
},
{
glyphname = Nlongrightleg;
lastChange = "2024-02-21 10:31:13 +0000";
layers = (
{
anchors = (
{
name = bottom;
pos = (498,-50);
},
{
name = bottomhook;
pos = (447,25);
},
{
name = top;
pos = (498,1333);
}
);
layerId = "462F72A0-0500-4E69-A49B-6C2F2580580D";
shapes = (
{
closed = 1;
nodes = (
(422,0,ls),
(437,0,o),
(447,10,o),
(447,25,cs),
(447,1067,l),
(630,1067,l),
(630,-392,ls),
(630,-407,o),
(640,-417,o),
(655,-417,cs),
(938,-417,ls),
(953,-417,o),
(963,-407,o),
(963,-392,cs),
(963,1077,ls),
(963,1093,o),
(958,1105,o),
(947,1117,cs),
(747,1317,ls),
(735,1328,o),
(723,1333,o),
(707,1333,cs),
(138,1333,ls),
(123,1333,o),
(113,1323,o),
(113,1308,cs),
(113,25,ls),
(113,10,o),
(123,0,o),
(138,0,cs)
);
}
);
width = 1077;
},
{
anchors = (
{
name = bottom;
pos = (510,-50);
},
{
name = bottomhook;
pos = (458,25);
},
{
name = top;
pos = (510,1333);
}
);
layerId = m002;
shapes = (
{
closed = 1;
nodes = (
(433,0,ls),
(448,0,o),
(458,10,o),
(458,25,cs),
(458,933,l),
(542,933,l),
(542,-392,ls),
(542,-407,o),
(552,-417,o),
(567,-417,cs),
(933,-417,ls),
(948,-417,o),
(958,-407,o),
(958,-392,cs),
(958,1077,ls),
(958,1093,o),
(953,1105,o),
(942,1117,cs),
(742,1317,ls),
(730,1328,o),
(718,1333,o),
(702,1333,cs),
(67,1333,ls),
(52,1333,o),
(42,1323,o),
(42,1308,cs),
(42,25,ls),
(42,10,o),
(52,0,o),
(67,0,cs)
);
}
);
width = 1000;
}
);
unicode = 544;
},
{
glyphname = Eng;
kernLeft = KO_H;
kernRight = KO_Eng;
lastChange = "2024-02-21 10:45:50 +0000";
layers = (
{
anchors = (
{
name = bottom;
pos = (505,-373);
},
{
name = top;
pos = (495,1333);
}
);
layerId = "462F72A0-0500-4E69-A49B-6C2F2580580D";
shapes = (
{
closed = 1;
nodes = (
(757,-373,ls),
(782,-373,o),
(805,-367,o),
(822,-350,cs),
(942,-235,ls),
(962,-217,o),
(970,-198,o),
(970,-175,cs),
(970,1077,ls),
(970,1093,o),
(965,1105,o),
(953,1117,cs),
(753,1317,ls),
(742,1328,o),
(730,1333,o),
(713,1333,cs),
(145,1333,ls),
(130,1333,o),
(120,1323,o),
(120,1308,cs),
(120,25,ls),
(120,10,o),
(130,0,o),
(145,0,cs),
(428,0,ls),
(443,0,o),
(453,10,o),
(453,25,cs),
(453,1067,l),
(637,1067,l),
(637,-133,l),
(505,-133,ls),
(475,-133,o),
(455,-153,o),
(455,-183,cs),
(455,-323,ls),
(455,-353,o),
(475,-373,o),
(505,-373,cs)
);
}
);
width = 1083;
},
{
anchors = (
{
name = bottom;
pos = (498,-357);
},
{
name = top;
pos = (495,1333);
}
);
layerId = m002;
shapes = (
{
closed = 1;
nodes = (
(745,-357,ls),
(770,-357,o),
(793,-350,o),
(810,-333,cs),
(930,-218,ls),
(950,-200,o),
(958,-182,o),
(958,-158,cs),
(958,1077,ls),
(958,1093,o),
(953,1105,o),
(942,1117,cs),
(742,1317,ls),
(730,1328,o),
(718,1333,o),
(702,1333,cs),
(67,1333,ls),
(52,1333,o),
(42,1323,o),
(42,1308,cs),
(42,25,ls),
(42,10,o),
(52,0,o),
(67,0,cs),
(433,0,ls),
(448,0,o),
(458,10,o),
(458,25,cs),
(458,933,l),
(542,933,l),
(542,-50,l),
(498,-50,ls),
(468,-50,o),
(448,-70,o),
(448,-100,cs),
(448,-307,ls),
(448,-337,o),
(468,-357,o),
(498,-357,cs)
);
}
);
width = 1000;
}
);
metricLeft = H;
metricRight = j;
unicode = 330;
},
{
glyphname = O;
kernLeft = KO_O;
kernRight = KO_H;
lastChange = "2024-02-21 10:31:13 +0000";
layers = (
{
anchors = (
{
name = bottom;
pos = (510,-50);
},
{
name = center;
pos = (510,667);
},
{
name = ogonek;
pos = (895,17);
},
{
name = top;
pos = (510,1333);
},
{
name = topleft;
pos = (62,1333);
},
{
name = topright;
pos = (920,1317);
}
);
associatedMasterId = "462F72A0-0500-4E69-A49B-6C2F2580580D";
layerId = "F41F3562-3C0B-4214-8D2F-E4B547B75B1E";
name = "Original modified";
shapes = (
{
closed = 1;
nodes = (
(960,170,ls),
(970,178,o),
(973,188,o),
(973,200,cs),
(973,1098,ls),
(973,1110,o),
(970,1120,o),
(962,1130,cs),
(778,1320,ls),
(770,1330,o),
(758,1333,o),
(747,1333,cs),
(273,1333,ls),
(262,1333,o),
(250,1330,o),
(242,1320,cs),
(58,1130,ls),
(50,1120,o),
(47,1110,o),
(47,1098,cs),
(47,200,ls),
(47,188,o),
(50,178,o),
(60,170,cs),
(242,12,ls),
(250,3,o),
(262,0,o),
(273,0,cs),
(747,0,ls),
(758,0,o),
(770,3,o),
(778,12,cs)
);
},
{
closed = 1;
nodes = (
(547,958,o),
(562,937,o),
(562,905,c),
(562,420,l),
(562,400,o),
(540,380,o),
(512,380,cs),
(478,380,o),
(460,400,o),
(460,420,c),
(460,905,l),
(460,937,o),
(478,958,o),
(512,958,cs)
);
}
);
width = 1020;
},
{
anchors = (
{
name = bottom;
pos = (510,-50);
},
{
name = center;
pos = (510,667);
},
{
name = ogonek;
pos = (895,17);
},
{
name = top;
pos = (510,1333);
},
{
name = topleft;
pos = (62,1333);
},
{
name = topright;
pos = (920,1317);
}
);
associatedMasterId = "462F72A0-0500-4E69-A49B-6C2F2580580D";
layerId = "BBB23940-A844-4195-93EB-158D47E9EBEA";
name = "Jun 2 22, 02:22";
shapes = (
{
closed = 1;
nodes = (
(747,0,ls),
(758,0,o),
(770,3,o),
(778,12,cs),
(960,170,ls),
(970,178,o),
(973,188,o),
(973,200,cs),
(973,1098,ls),
(973,1110,o),
(970,1120,o),
(962,1130,cs),
(778,1320,ls),
(770,1330,o),
(758,1333,o),
(747,1333,cs),
(273,1333,ls),
(262,1333,o),
(250,1330,o),
(242,1320,cs),
(58,1130,ls),
(50,1120,o),
(47,1110,o),
(47,1098,cs),
(47,200,ls),
(47,188,o),
(50,178,o),
(60,170,cs),
(242,12,ls),
(250,3,o),
(262,0,o),
(273,0,cs)
);
},
{
closed = 1;
nodes = (
(477,380,o),
(460,402,o),
(460,433,cs),
(460,905,l),
(460,937,o),
(477,958,o),
(512,958,cs),
(547,958,o),
(563,937,o),
(563,905,c),
(563,433,ls),
(563,402,o),
(547,380,o),
(512,380,cs)
);
}
);
width = 1020;
},
{
anchors = (
{
name = bottom;
pos = (510,-50);
},
{
name = center;
pos = (510,667);
},
{
name = ogonek;
pos = (895,17);
},
{
name = top;
pos = (510,1333);
},
{
name = topleft;
pos = (62,1333);
},
{
name = topright;
pos = (920,1317);
}
);
associatedMasterId = "462F72A0-0500-4E69-A49B-6C2F2580580D";
layerId = "9E2A38EE-2803-401B-9D1A-CA68C2F1C8F6";
name = "Jun 2 22, 02:23";
shapes = (
{
closed = 1;
nodes = (
(747,0,ls),
(758,0,o),
(770,3,o),
(778,12,cs),
(960,170,ls),
(970,178,o),
(973,188,o),
(973,200,cs),
(973,1098,ls),
(973,1110,o),
(970,1120,o),
(962,1130,cs),
(778,1320,ls),
(770,1330,o),
(758,1333,o),
(747,1333,cs),
(273,1333,ls),
(262,1333,o),
(250,1330,o),
(242,1320,cs),
(58,1130,ls),
(50,1120,o),
(47,1110,o),
(47,1098,cs),
(47,200,ls),
(47,188,o),
(50,178,o),
(60,170,cs),
(242,12,ls),
(250,3,o),
(262,0,o),
(273,0,cs)
);
},
{
closed = 1;
nodes = (
(478,380,o),
(460,400,o),
(460,435,cs),
(460,903,l),
(460,938,o),
(478,958,o),
(512,958,cs),
(545,958,o),
(563,938,o),
(563,903,c),
(563,435,ls),
(563,400,o),
(545,380,o),
(512,380,cs)
);
}
);
width = 1020;
},
{
anchors = (
{
name = bottom;
pos = (510,-50);
},
{
name = center;
pos = (510,667);
},
{
name = ogonek;
pos = (895,17);
},
{
name = top;
pos = (510,1333);
},
{
name = topleft;
pos = (62,1333);
},
{
name = topright;
pos = (920,1317);
}
);
associatedMasterId = "462F72A0-0500-4E69-A49B-6C2F2580580D";
layerId = "0B6860AB-4073-49CC-9F84-6AA2FC65E6F6";
name = "Jun 2 22, 02:30";
shapes = (
{
closed = 1;
nodes = (
(747,0,ls),
(758,0,o),
(770,3,o),
(778,12,cs),
(960,170,ls),
(970,178,o),
(973,188,o),
(973,200,cs),
(973,1098,ls),
(973,1110,o),
(970,1120,o),
(962,1130,cs),
(778,1320,ls),
(770,1330,o),
(758,1333,o),
(747,1333,cs),
(273,1333,ls),
(262,1333,o),
(250,1330,o),
(242,1320,cs),
(58,1130,ls),
(50,1120,o),
(47,1110,o),
(47,1098,cs),
(47,200,ls),
(47,188,o),
(50,178,o),
(60,170,cs),
(242,12,ls),
(250,3,o),
(262,0,o),
(273,0,cs)
);
},
{
closed = 1;
nodes = (
(478,380,o),
(460,400,o),
(460,437,cs),
(460,902,ls),
(460,938,o),
(478,958,o),
(512,958,cs),
(545,958,o),
(563,938,o),
(563,902,cs),
(563,437,ls),
(563,400,o),
(545,380,o),
(512,380,cs)
);
}
);
width = 1020;
},
{
anchors = (
{
name = bottom;
pos = (517,-50);
},
{
name = center;
pos = (515,667);
},
{
name = ogonek;
pos = (900,17);
},
{
name = top;
pos = (517,1333);
},
{
name = topleft;
pos = (67,1333);
},
{
name = topright;
pos = (925,1317);
}
);
associatedMasterId = "462F72A0-0500-4E69-A49B-6C2F2580580D";
layerId = "C33C8B93-FF66-4402-9B4F-7A3B58D75BB0";
name = "Jun 2 22, 04:22";
shapes = (
{
closed = 1;
nodes = (
(757,0,ls),
(768,0,o),
(780,3,o),
(788,12,cs),
(970,170,ls),
(980,178,o),
(983,188,o),
(983,200,cs),
(983,1098,ls),
(983,1110,o),
(980,1120,o),
(972,1130,cs),
(788,1320,ls),
(780,1330,o),
(768,1333,o),
(757,1333,cs),
(273,1333,ls),
(262,1333,o),
(250,1330,o),
(242,1320,cs),
(58,1130,ls),
(50,1120,o),
(47,1110,o),
(47,1098,cs),
(47,200,ls),
(47,188,o),
(50,178,o),
(60,170,cs),
(242,12,ls),
(250,3,o),
(262,0,o),
(273,0,cs)
);
},
{
closed = 1;
nodes = (
(483,380,o),
(463,400,o),
(463,437,cs),
(463,902,ls),
(463,938,o),
(483,958,o),
(517,958,cs),
(550,958,o),
(570,938,o),
(570,902,cs),
(570,437,ls),
(570,400,o),
(550,380,o),
(517,380,cs)
);
}
);
width = 1030;
},
{
anchors = (
{
name = bottom;
pos = (515,-50);
},
{
name = center;
pos = (513,667);
},
{
name = ogonek;
pos = (898,17);
},
{
name = top;
pos = (515,1333);
},
{
name = topleft;
pos = (65,1333);
},
{
name = topright;
pos = (923,1317);
}
);
associatedMasterId = "462F72A0-0500-4E69-A49B-6C2F2580580D";
guides = (
{
angle = 90;
pos = (308,0);
showMeasurement = 1;
}
);
layerId = "D7293291-EF9B-46AD-AA74-C94D66320AE3";
name = "/A";
shapes = (
{
closed = 1;
nodes = (
(438,0,ls),
(453,0,o),
(463,10,o),
(463,25,cs),
(463,380,l),
(563,380,l),
(563,25,ls),
(563,10,o),
(573,0,o),
(588,0,cs),
(945,0,ls),
(960,0,o),
(970,10,o),
(970,25,cs),
(970,952,ls),
(970,963,o),
(967,972,o),
(960,982,cs),
(723,1318,ls),
(717,1328,o),
(705,1333,o),
(692,1333,cs),
(333,1333,ls),
(320,1333,o),
(308,1328,o),
(302,1318,cs),
(67,982,ls),
(60,972,o),
(57,963,o),
(57,952,cs),
(57,25,ls),
(57,10,o),
(67,0,o),
(82,0,cs)
);
},
{
closed = 1;
nodes = (
(457,728,o),
(417,768,o),
(417,825,cs),
(417,882,o),
(457,922,o),
(513,922,cs),
(570,922,o),
(610,882,o),
(610,825,cs),
(610,768,o),
(570,728,o),
(513,728,cs)
);
}
);
width = 1027;
},
{
anchors = (
{
name = bottom;
pos = (515,-50);
},
{
name = center;
pos = (513,667);
},
{
name = ogonek;
pos = (898,17);
},
{
name = top;
pos = (515,1333);
},
{
name = topleft;
pos = (65,1333);
},
{
name = topright;
pos = (923,1317);
}
);
associatedMasterId = "462F72A0-0500-4E69-A49B-6C2F2580580D";
guides = (
{
angle = 90;
pos = (308,0);
showMeasurement = 1;
}
);
layerId = "885A7757-38AE-4384-9BCE-C8132219A168";
name = "Jul 29 22, 20:52";
shapes = (
{
closed = 1;
nodes = (
(753,0,ls),
(765,0,o),
(777,3,o),
(785,13,cs),
(968,203,ls),
(977,213,o),
(980,223,o),
(980,235,cs),
(980,1098,ls),
(980,1110,o),
(977,1120,o),
(968,1130,cs),
(785,1320,ls),
(777,1330,o),
(765,1333,o),
(753,1333,cs),
(273,1333,ls),
(262,1333,o),
(250,1330,o),
(242,1320,cs),
(58,1130,ls),
(50,1120,o),
(47,1110,o),
(47,1098,cs),
(47,235,ls),
(47,223,o),
(50,213,o),
(58,203,cs),
(242,13,ls),
(250,3,o),
(262,0,o),
(273,0,cs)
);
},
{
closed = 1;
nodes = (
(480,377,o),
(460,397,o),
(460,433,cs),
(460,900,ls),
(460,937,o),
(480,957,o),
(513,957,cs),
(547,957,o),
(567,937,o),
(567,900,cs),
(567,433,ls),
(567,397,o),
(547,377,o),
(513,377,cs)
);
}
);
width = 1027;
},
{
anchors = (
{
name = bottom;
pos = (513,-50);
},
{
name = center;
pos = (512,667);
},
{
name = ogonek;
pos = (897,17);
},
{
name = top;
pos = (513,1333);
},
{
name = topleft;
pos = (63,1333);
},
{
name = topright;
pos = (922,1317);
}
);
associatedMasterId = "462F72A0-0500-4E69-A49B-6C2F2580580D";
guides = (
{
angle = 90;
pos = (307,0);
showMeasurement = 1;
}
);
layerId = "AE51C8C2-EE82-4541-ADA8-3D40C34776A4";
name = "Jul 30 22, 02:14";
shapes = (
{
closed = 1;
nodes = (
(752,0,ls),
(763,0,o),
(775,3,o),
(783,13,cs),
(967,227,ls),
(975,237,o),
(978,247,o),
(978,258,cs),
(978,1075,ls),
(978,1087,o),
(975,1097,o),
(967,1107,cs),
(783,1320,ls),
(775,1330,o),
(763,1333,o),
(752,1333,cs),
(280,1333,ls),
(268,1333,o),
(257,1330,o),
(248,1320,cs),
(57,1107,ls),
(48,1097,o),
(45,1087,o),
(45,1075,cs),
(45,258,ls),
(45,247,o),
(48,237,o),
(57,227,cs),
(240,13,ls),
(248,3,o),
(260,0,o),
(272,0,cs)
);
},
{
closed = 1;
nodes = (
(478,377,o),
(458,397,o),
(458,433,cs),
(458,900,ls),
(458,937,o),
(478,957,o),
(512,957,cs),
(545,957,o),
(565,937,o),
(565,900,cs),
(565,433,ls),
(565,397,o),
(545,377,o),
(512,377,cs)
);
}
);
width = 1023;
},
{
anchors = (
{
name = bottom;
pos = (575,0);
},
{
name = center;
pos = (574,667);
},
{
name = ogonek;
pos = (770,0);
},
{
name = top;
pos = (575,1333);
},
{
name = topleft;
pos = (125,1333);
},
{
name = topright;
pos = (770,1333);
}
);
guides = (
{
angle = 90;
pos = (347,0);
showMeasurement = 1;
},
{
pos = (347,401);
showMeasurement = 1;
}
);
layerId = "462F72A0-0500-4E69-A49B-6C2F2580580D";
shapes = (
{
closed = 1;
nodes = (
(770,0,ls),
(787,0,o),
(799,5,o),
(810,17,cs),
(1010,217,ls),
(1022,228,o),
(1027,240,o),
(1027,257,cs),
(1027,1077,ls),
(1027,1093,o),
(1022,1105,o),
(1010,1117,cs),
(810,1317,ls),
(799,1328,o),
(787,1333,o),
(770,1333,cs),
(377,1333,ls),
(360,1333,o),
(349,1328,o),
(337,1317,cs),
(137,1117,ls),
(125,1105,o),
(120,1093,o),
(120,1077,cs),
(120,257,ls),
(120,240,o),
(125,228,o),
(137,217,cs),
(337,17,ls),
(349,5,o),
(360,0,o),
(377,0,cs)
);
},
{
closed = 1;
nodes = (
(465,267,o),
(454,287,o),
(454,323,cs),
(454,1010,ls),
(454,1047,o),
(465,1067,o),
(495,1067,cs),
(652,1067,ls),
(682,1067,o),
(694,1047,o),
(694,1010,cs),
(694,323,ls),
(694,287,o),
(682,267,o),
(652,267,cs),
(495,267,ls)
);
}
);
width = 1147;
},
{
anchors = (
{
name = bottom;
pos = (510,-50);
},
{
name = center;
pos = (510,667);
},
{
name = ogonek;
pos = (895,17);
},
{
name = top;
pos = (510,1333);
},
{
name = topleft;
pos = (62,1333);
},
{
name = topright;
pos = (920,1317);
}
);
associatedMasterId = m002;
layerId = "8D310696-1E0A-4CDB-B69A-3F783F1AE484";
name = "Original modified";
shapes = (
{
closed = 1;
nodes = (
(960,170,ls),
(970,178,o),
(973,188,o),
(973,200,cs),
(973,1098,ls),
(973,1110,o),
(970,1120,o),
(962,1130,cs),
(778,1320,ls),
(770,1330,o),
(758,1333,o),
(747,1333,cs),
(273,1333,ls),
(262,1333,o),
(250,1330,o),
(242,1320,cs),
(58,1130,ls),
(50,1120,o),
(47,1110,o),
(47,1098,cs),
(47,200,ls),
(47,188,o),
(50,178,o),
(60,170,cs),
(242,12,ls),
(250,3,o),
(262,0,o),
(273,0,cs),
(747,0,ls),
(758,0,o),
(770,3,o),
(778,12,cs)
);
},
{
closed = 1;
nodes = (
(547,958,o),
(562,937,o),
(562,905,c),
(562,420,l),
(562,400,o),
(540,380,o),
(512,380,cs),
(478,380,o),
(460,400,o),
(460,420,c),
(460,905,l),
(460,937,o),
(478,958,o),
(512,958,cs)
);
}
);
width = 1020;
},
{
anchors = (
{
name = bottom;
pos = (510,-50);
},
{
name = center;
pos = (510,667);
},
{
name = ogonek;
pos = (895,17);
},
{
name = top;
pos = (510,1333);
},
{
name = topleft;
pos = (62,1333);
},
{
name = topright;
pos = (920,1317);
}
);
associatedMasterId = m002;
layerId = "16C986B1-8099-4324-8481-6257613F91CA";
name = "Jun 2 22, 02:22";
shapes = (
{
closed = 1;
nodes = (
(747,0,ls),
(758,0,o),
(770,3,o),
(778,12,cs),
(960,170,ls),
(970,178,o),
(973,188,o),
(973,200,cs),
(973,1098,ls),
(973,1110,o),
(970,1120,o),
(962,1130,cs),
(778,1320,ls),
(770,1330,o),
(758,1333,o),
(747,1333,cs),
(273,1333,ls),
(262,1333,o),
(250,1330,o),
(242,1320,cs),
(58,1130,ls),
(50,1120,o),
(47,1110,o),
(47,1098,cs),
(47,200,ls),
(47,188,o),
(50,178,o),
(60,170,cs),
(242,12,ls),
(250,3,o),
(262,0,o),
(273,0,cs)
);
},
{
closed = 1;
nodes = (
(477,380,o),
(460,402,o),
(460,433,cs),
(460,905,l),
(460,937,o),
(477,958,o),
(512,958,cs),
(547,958,o),
(563,937,o),
(563,905,c),
(563,433,ls),
(563,402,o),
(547,380,o),
(512,380,cs)
);
}
);
width = 1020;
},
{
anchors = (
{
name = bottom;
pos = (510,-50);
},
{
name = center;
pos = (510,667);
},
{
name = ogonek;
pos = (895,17);
},
{
name = top;
pos = (510,1333);
},
{
name = topleft;
pos = (62,1333);
},
{
name = topright;
pos = (920,1317);
}
);
associatedMasterId = m002;
layerId = "F1632B4C-5161-43FB-B3D1-70752BCB9FFD";
name = "Jun 2 22, 02:23";
shapes = (
{
closed = 1;
nodes = (
(747,0,ls),
(758,0,o),
(770,3,o),
(778,12,cs),
(960,170,ls),
(970,178,o),
(973,188,o),
(973,200,cs),
(973,1098,ls),
(973,1110,o),
(970,1120,o),
(962,1130,cs),
(778,1320,ls),
(770,1330,o),
(758,1333,o),
(747,1333,cs),
(273,1333,ls),
(262,1333,o),
(250,1330,o),
(242,1320,cs),
(58,1130,ls),
(50,1120,o),
(47,1110,o),
(47,1098,cs),
(47,200,ls),
(47,188,o),
(50,178,o),
(60,170,cs),
(242,12,ls),
(250,3,o),
(262,0,o),
(273,0,cs)
);
},
{
closed = 1;
nodes = (
(478,380,o),
(460,400,o),
(460,435,cs),
(460,903,l),
(460,938,o),
(478,958,o),
(512,958,cs),
(545,958,o),
(563,938,o),
(563,903,c),
(563,435,ls),
(563,400,o),
(545,380,o),
(512,380,cs)
);
}
);
width = 1020;
},
{
anchors = (
{
name = bottom;
pos = (510,-50);
},
{
name = center;
pos = (510,667);
},
{
name = ogonek;
pos = (895,17);
},
{
name = top;
pos = (510,1333);
},
{
name = topleft;
pos = (62,1333);
},
{
name = topright;
pos = (920,1317);
}
);
associatedMasterId = m002;
layerId = "BC1BB8B9-F15D-40B5-9664-06AAB14BB582";
name = "Jun 2 22, 02:30";
shapes = (
{
closed = 1;
nodes = (
(747,0,ls),
(758,0,o),
(770,3,o),
(778,12,cs),
(960,170,ls),
(970,178,o),
(973,188,o),
(973,200,cs),
(973,1098,ls),
(973,1110,o),
(970,1120,o),
(962,1130,cs),
(778,1320,ls),
(770,1330,o),
(758,1333,o),
(747,1333,cs),
(273,1333,ls),
(262,1333,o),
(250,1330,o),
(242,1320,cs),
(58,1130,ls),
(50,1120,o),
(47,1110,o),
(47,1098,cs),
(47,200,ls),
(47,188,o),
(50,178,o),
(60,170,cs),
(242,12,ls),
(250,3,o),
(262,0,o),
(273,0,cs)
);
},
{
closed = 1;
nodes = (
(478,380,o),
(460,400,o),
(460,437,cs),
(460,902,ls),
(460,938,o),
(478,958,o),
(512,958,cs),
(545,958,o),
(563,938,o),
(563,902,cs),
(563,437,ls),
(563,400,o),
(545,380,o),
(512,380,cs)
);
}
);
width = 1020;
},
{
anchors = (
{
name = bottom;
pos = (517,-50);
},
{
name = center;
pos = (515,667);
},
{
name = ogonek;
pos = (900,17);
},
{
name = top;
pos = (517,1333);
},
{
name = topleft;
pos = (67,1333);
},
{
name = topright;
pos = (925,1317);
}
);
associatedMasterId = m002;
layerId = "0C0C0955-5AC9-4779-9761-192D4840C5A5";
name = "Jun 2 22, 04:22";
shapes = (
{
closed = 1;
nodes = (
(757,0,ls),
(768,0,o),
(780,3,o),
(788,12,cs),
(970,170,ls),
(980,178,o),
(983,188,o),
(983,200,cs),
(983,1098,ls),
(983,1110,o),
(980,1120,o),
(972,1130,cs),
(788,1320,ls),
(780,1330,o),
(768,1333,o),
(757,1333,cs),
(273,1333,ls),
(262,1333,o),
(250,1330,o),
(242,1320,cs),
(58,1130,ls),
(50,1120,o),
(47,1110,o),
(47,1098,cs),
(47,200,ls),
(47,188,o),
(50,178,o),
(60,170,cs),
(242,12,ls),
(250,3,o),
(262,0,o),
(273,0,cs)
);
},
{
closed = 1;
nodes = (
(483,380,o),
(463,400,o),
(463,437,cs),
(463,902,ls),
(463,938,o),
(483,958,o),
(517,958,cs),
(550,958,o),
(570,938,o),
(570,902,cs),
(570,437,ls),
(570,400,o),
(550,380,o),
(517,380,cs)
);
}
);
width = 1030;
},
{
anchors = (
{
name = bottom;
pos = (515,-50);
},
{
name = center;
pos = (513,667);
},
{
name = ogonek;
pos = (898,17);
},
{
name = top;
pos = (515,1333);
},
{
name = topleft;
pos = (65,1333);
},
{
name = topright;
pos = (923,1317);
}
);
associatedMasterId = m002;
guides = (
{
angle = 90;
pos = (308,0);
showMeasurement = 1;
}
);
layerId = "1F475E80-1980-4A6B-9EF6-9BAD5EA591B8";
name = "/A";
shapes = (
{
closed = 1;
nodes = (
(438,0,ls),
(453,0,o),
(463,10,o),
(463,25,cs),
(463,380,l),
(563,380,l),
(563,25,ls),
(563,10,o),
(573,0,o),
(588,0,cs),
(945,0,ls),
(960,0,o),
(970,10,o),
(970,25,cs),
(970,952,ls),
(970,963,o),
(967,972,o),
(960,982,cs),
(723,1318,ls),
(717,1328,o),
(705,1333,o),
(692,1333,cs),
(333,1333,ls),
(320,1333,o),
(308,1328,o),
(302,1318,cs),
(67,982,ls),
(60,972,o),
(57,963,o),
(57,952,cs),
(57,25,ls),
(57,10,o),
(67,0,o),
(82,0,cs)
);
},
{
closed = 1;
nodes = (
(457,728,o),
(417,768,o),
(417,825,cs),
(417,882,o),
(457,922,o),
(513,922,cs),
(570,922,o),
(610,882,o),
(610,825,cs),
(610,768,o),
(570,728,o),
(513,728,cs)
);
}
);
width = 1027;
},
{
anchors = (
{
name = bottom;
pos = (515,-50);
},
{
name = center;
pos = (513,667);
},
{
name = ogonek;
pos = (898,17);
},
{
name = top;
pos = (515,1333);
},
{
name = topleft;
pos = (65,1333);
},
{
name = topright;
pos = (923,1317);
}
);
associatedMasterId = m002;
guides = (
{
angle = 90;
pos = (308,0);
showMeasurement = 1;
}
);
layerId = "7CA3B474-28BC-45D0-93CA-2ED4EE34B2F8";
name = "Jul 29 22, 20:52";
shapes = (
{
closed = 1;
nodes = (
(753,0,ls),
(765,0,o),
(777,3,o),
(785,13,cs),
(968,203,ls),
(977,213,o),
(980,223,o),
(980,235,cs),
(980,1098,ls),
(980,1110,o),
(977,1120,o),
(968,1130,cs),
(785,1320,ls),
(777,1330,o),
(765,1333,o),
(753,1333,cs),
(273,1333,ls),
(262,1333,o),
(250,1330,o),
(242,1320,cs),
(58,1130,ls),
(50,1120,o),
(47,1110,o),
(47,1098,cs),
(47,235,ls),
(47,223,o),
(50,213,o),
(58,203,cs),
(242,13,ls),
(250,3,o),
(262,0,o),
(273,0,cs)
);
},
{
closed = 1;
nodes = (
(480,377,o),
(460,397,o),
(460,433,cs),
(460,900,ls),
(460,937,o),
(480,957,o),
(513,957,cs),
(547,957,o),
(567,937,o),
(567,900,cs),
(567,433,ls),
(567,397,o),
(547,377,o),
(513,377,cs)
);
}
);
width = 1027;
},
{
anchors = (
{
name = bottom;
pos = (513,-50);
},
{
name = center;
pos = (512,667);
},
{
name = ogonek;
pos = (897,17);
},
{
name = top;
pos = (513,1333);
},
{
name = topleft;
pos = (63,1333);
},
{
name = topright;
pos = (922,1317);
}
);
associatedMasterId = m002;
guides = (
{
angle = 90;
pos = (307,0);
showMeasurement = 1;
}
);
layerId = "B8BE36B6-6581-4E31-B223-4699A44EA4B6";
name = "Jul 30 22, 02:14";
shapes = (
{
closed = 1;
nodes = (
(752,0,ls),
(763,0,o),
(775,3,o),
(783,13,cs),
(967,227,ls),
(975,237,o),
(978,247,o),
(978,258,cs),
(978,1075,ls),
(978,1087,o),
(975,1097,o),
(967,1107,cs),
(783,1320,ls),
(775,1330,o),
(763,1333,o),
(752,1333,cs),
(280,1333,ls),
(268,1333,o),
(257,1330,o),
(248,1320,cs),
(57,1107,ls),
(48,1097,o),
(45,1087,o),
(45,1075,cs),
(45,258,ls),
(45,247,o),
(48,237,o),
(57,227,cs),
(240,13,ls),
(248,3,o),
(260,0,o),
(272,0,cs)
);
},
{
closed = 1;
nodes = (
(478,377,o),
(458,397,o),
(458,433,cs),
(458,900,ls),
(458,937,o),
(478,957,o),
(512,957,cs),
(545,957,o),
(565,937,o),
(565,900,cs),
(565,433,ls),
(565,397,o),
(545,377,o),
(512,377,cs)
);
}
);
width = 1023;
},
{
anchors = (
{
name = bottom;
pos = (507,0);
},
{
name = center;
pos = (420,667);
},
{
name = ogonek;
pos = (705,0);
},
{
name = top;
pos = (507,1333);
},
{
name = topleft;
pos = (-28,1333);
},
{
name = topright;
pos = (708,1333);
}
);
guides = (
{
angle = 90;
pos = (252,0);
showMeasurement = 1;
}
);
layerId = m002;
shapes = (
{
closed = 1;
nodes = (
(708,0,ls),
(725,0,o),
(737,5,o),
(748,17,cs),
(948,217,ls),
(960,228,o),
(965,240,o),
(965,257,cs),
(965,1077,ls),
(965,1093,o),
(960,1105,o),
(948,1117,cs),
(748,1317,ls),
(737,1328,o),
(725,1333,o),
(708,1333,cs),
(298,1333,ls),
(282,1333,o),
(270,1328,o),
(258,1317,cs),
(58,1117,ls),
(47,1105,o),
(42,1093,o),
(42,1077,cs),
(42,257,ls),
(42,240,o),
(47,228,o),
(58,217,cs),
(258,17,ls),
(270,5,o),
(282,0,o),
(298,0,cs)
);
},
{
closed = 1;
nodes = (
(470,400,o),
(458,420,o),
(458,457,cs),
(458,877,ls),
(458,913,o),
(470,933,o),
(500,933,cs),
(507,933,ls),
(537,933,o),
(548,913,o),
(548,877,cs),
(548,457,ls),
(548,420,o),
(537,400,o),
(507,400,cs),
(500,400,ls)
);
}
);
width = 1007;
}
);
unicode = 79;
userData = {
KernOnName = O;
};
},
{
glyphname = OU;
lastChange = "2024-02-21 10:31:13 +0000";
layers = (
{
layerId = "462F72A0-0500-4E69-A49B-6C2F2580580D";
shapes = (
{
closed = 1;
nodes = (
(770,0,ls),
(787,0,o),
(799,5,o),
(810,17,cs),
(1010,217,ls),
(1022,228,o),
(1027,240,o),
(1027,257,cs),
(1027,743,ls),
(1027,760,o),
(1022,772,o),
(1010,783,cs),
(810,983,ls),
(799,995,o),
(787,1000,o),
(770,1000,cs),
(377,1000,ls),
(360,1000,o),
(349,995,o),
(337,983,cs),
(137,783,ls),
(125,772,o),
(120,760,o),
(120,743,cs),
(120,257,ls),
(120,240,o),
(125,228,o),
(137,217,cs),
(337,17,ls),
(349,5,o),
(360,0,o),
(377,0,cs)
);
},
{
closed = 1;
nodes = (
(465,267,o),
(454,287,o),
(454,323,cs),
(454,677,ls),
(454,713,o),
(465,733,o),
(495,733,cs),
(652,733,ls),
(682,733,o),
(694,713,o),
(694,677,cs),
(694,323,ls),
(694,287,o),
(682,267,o),
(652,267,cs),
(495,267,ls)
);
},
{
closed = 1;
nodes = (
(770,732,ls),
(787,732,o),
(799,737,o),
(810,748,cs),
(1010,948,ls),
(1022,960,o),
(1027,972,o),
(1027,988,cs),
(1027,1333,l),
(694,1333,l),
(694,1055,ls),
(694,1018,o),
(682,998,o),
(652,998,cs),
(495,998,ls),
(465,998,o),
(454,1018,o),
(454,1055,cs),
(454,1333,l),
(120,1333,l),
(120,988,ls),
(120,972,o),
(125,960,o),
(137,948,cs),
(337,748,ls),
(349,737,o),
(360,732,o),
(377,732,cs)
);
}
);
width = 1147;
},
{
layerId = m002;
shapes = (
{
closed = 1;
nodes = (
(702,0,ls),
(718,0,o),
(730,5,o),
(742,17,cs),
(942,217,ls),
(953,228,o),
(958,240,o),
(958,257,cs),
(958,783,ls),
(958,800,o),
(953,812,o),
(942,823,cs),
(742,1023,ls),
(730,1035,o),
(718,1040,o),
(702,1040,cs),
(298,1040,ls),
(282,1040,o),
(270,1035,o),
(258,1023,cs),
(58,823,ls),
(47,812,o),
(42,800,o),
(42,783,cs),
(42,257,ls),
(42,240,o),
(47,228,o),
(58,217,cs),
(258,17,ls),
(270,5,o),
(282,0,o),
(298,0,cs)
);
},
{
closed = 1;
nodes = (
(467,400,o),
(455,420,o),
(455,457,cs),
(455,583,ls),
(455,620,o),
(467,640,o),
(497,640,cs),
(503,640,ls),
(533,640,o),
(545,620,o),
(545,583,cs),
(545,457,ls),
(545,420,o),
(533,400,o),
(503,400,cs),
(497,400,ls)
);
},
{
closed = 1;
nodes = (
(702,640,ls),
(718,640,o),
(730,645,o),
(742,657,cs),
(942,857,ls),
(953,868,o),
(958,880,o),
(958,897,cs),
(958,1333,l),
(545,1333,l),
(545,1097,ls),
(545,1060,o),
(533,1040,o),
(503,1040,cs),
(497,1040,ls),
(467,1040,o),
(455,1060,o),
(455,1097,cs),
(455,1333,l),
(42,1333,l),
(42,897,ls),
(42,880,o),
(47,868,o),
(58,857,cs),
(258,657,ls),
(270,645,o),
(282,640,o),
(298,640,cs)
);
}
);
width = 1000;
}
);
metricLeft = O;
metricRight = O;
unicode = 546;
},
{
glyphname = Ocenteredtilde;
lastChange = "2024-02-21 10:31:13 +0000";
layers = (
{
layerId = "462F72A0-0500-4E69-A49B-6C2F2580580D";
shapes = (
{
closed = 1;
nodes = (
(844,597,l),
(844,736,l),
(303,736,l),
(303,597,l)
);
},
{
alignment = -1;
ref = O;
}
);
width = 1147;
},
{
layerId = m002;
shapes = (
{
closed = 1;
nodes = (
(774,579,l),
(774,754,l),
(233,754,l),
(233,579,l)
);
},
{
alignment = -1;
ref = O;
}
);
width = 1007;
}
);
metricLeft = "=O";
metricRight = "=O";
unicode = 415;
},
{
glyphname = Ohornhookabove;
kernLeft = KO_OE;
lastChange = "2024-03-12 15:22:06 +0000";
layers = (
{
background = {
anchors = (
{
name = bottom;
pos = (893,0);
},
{
name = center;
pos = (900,667);
},
{
name = ogonek;
pos = (1096,0);
},
{
name = top;
pos = (893,1583);
},
{
name = topleft;
pos = (451,1333);
},
{
name = topright;
pos = (1536,1457);
}
);
shapes = (
{
closed = 1;
nodes = (
(1096,0,ls),
(1113,0,o),
(1125,5,o),
(1136,17,cs),
(1336,217,ls),
(1348,228,o),
(1353,240,o),
(1353,257,cs),
(1353,1077,ls),
(1353,1093,o),
(1348,1105,o),
(1336,1117,cs),
(1136,1317,ls),
(1125,1328,o),
(1113,1333,o),
(1096,1333,cs),
(703,1333,ls),
(686,1333,o),
(675,1328,o),
(663,1317,cs),
(463,1117,ls),
(451,1105,o),
(446,1093,o),
(446,1077,cs),
(446,257,ls),
(446,240,o),
(451,228,o),
(463,217,cs),
(663,17,ls),
(675,5,o),
(686,0,o),
(703,0,cs)
);
},
{
closed = 1;
nodes = (
(791,267,o),
(780,287,o),
(780,323,cs),
(780,1010,ls),
(780,1047,o),
(791,1067,o),
(821,1067,cs),
(978,1067,ls),
(1008,1067,o),
(1020,1047,o),
(1020,1010,cs),
(1020,323,ls),
(1020,287,o),
(1008,267,o),
(978,267,cs),
(821,267,ls)
);
},
{
closed = 1;
nodes = (
(1417,1168,ls),
(1429,1168,o),
(1439,1172,o),
(1447,1182,cs),
(1504,1242,ls),
(1512,1250,o),
(1516,1262,o),
(1516,1273,cs),
(1516,1432,ls),
(1516,1447,o),
(1506,1457,o),
(1491,1457,cs),
(1356,1457,ls),
(1341,1457,o),
(1331,1447,o),
(1331,1432,cs),
(1331,1333,l),
(1096,1333,ls),
(1081,1333,o),
(1071,1323,o),
(1071,1308,cs),
(1071,1220,ls),
(1071,1192,o),
(1094,1168,o),
(1134,1168,cs)
);
},
{
closed = 1;
nodes = (
(1065,1383,ls),
(1080,1383,o),
(1090,1393,o),
(1090,1408,cs),
(1090,1478,ls),
(1090,1491,o),
(1086,1501,o),
(1078,1510,cs),
(1021,1570,ls),
(1013,1578,o),
(1005,1583,o),
(991,1583,cs),
(725,1583,ls),
(706,1583,o),
(695,1568,o),
(695,1548,cs),
(695,1493,ls),
(695,1478,o),
(705,1468,o),
(720,1468,cs),
(938,1468,l),
(938,1408,ls),
(938,1393,o),
(948,1383,o),
(963,1383,cs)
);
}
);
};
layerId = "462F72A0-0500-4E69-A49B-6C2F2580580D";
shapes = (
{
ref = Ohorn;
},
{
pos = (327,233);
ref = hookabovecomb;
}
);
width = 1147;
},
{
background = {
anchors = (
{
name = bottom;
pos = (829,0);
},
{
name = center;
pos = (746,667);
},
{
name = ogonek;
pos = (1031,0);
},
{
name = top;
pos = (829,1583);
},
{
name = topleft;
pos = (298,1333);
},
{
name = topright;
pos = (1474,1440);
}
);
shapes = (
{
closed = 1;
nodes = (
(1034,0,ls),
(1051,0,o),
(1063,5,o),
(1074,17,cs),
(1274,217,ls),
(1286,228,o),
(1291,240,o),
(1291,257,cs),
(1291,1077,ls),
(1291,1093,o),
(1286,1105,o),
(1274,1117,cs),
(1074,1317,ls),
(1063,1328,o),
(1051,1333,o),
(1034,1333,cs),
(624,1333,ls),
(608,1333,o),
(596,1328,o),
(584,1317,cs),
(384,1117,ls),
(373,1105,o),
(368,1093,o),
(368,1077,cs),
(368,257,ls),
(368,240,o),
(373,228,o),
(384,217,cs),
(584,17,ls),
(596,5,o),
(608,0,o),
(624,0,cs)
);
},
{
closed = 1;
nodes = (
(796,400,o),
(784,420,o),
(784,457,cs),
(784,877,ls),
(784,913,o),
(796,933,o),
(826,933,cs),
(833,933,ls),
(863,933,o),
(874,913,o),
(874,877,cs),
(874,457,ls),
(874,420,o),
(863,400,o),
(833,400,cs),
(826,400,ls)
);
},
{
closed = 1;
nodes = (
(1355,1151,ls),
(1367,1151,o),
(1377,1155,o),
(1385,1165,cs),
(1442,1225,ls),
(1450,1233,o),
(1454,1245,o),
(1454,1256,cs),
(1454,1415,ls),
(1454,1430,o),
(1444,1440,o),
(1429,1440,cs),
(1277,1440,ls),
(1262,1440,o),
(1252,1430,o),
(1252,1415,cs),
(1252,1333,l),
(1034,1333,ls),
(1019,1333,o),
(1009,1323,o),
(1009,1308,cs),
(1009,1203,ls),
(1009,1175,o),
(1032,1151,o),
(1072,1151,cs)
);
},
{
closed = 1;
nodes = (
(1001,1383,ls),
(1016,1383,o),
(1026,1393,o),
(1026,1408,cs),
(1026,1478,ls),
(1026,1491,o),
(1022,1501,o),
(1014,1510,cs),
(957,1570,ls),
(947,1580,o),
(939,1583,o),
(927,1583,cs),
(661,1583,ls),
(642,1583,o),
(631,1568,o),
(631,1548,cs),
(631,1493,ls),
(631,1478,o),
(641,1468,o),
(656,1468,cs),
(874,1468,l),
(874,1408,ls),
(874,1393,o),
(884,1383,o),
(899,1383,cs)
);
}
);
};
layerId = m002;
shapes = (
{
ref = Ohorn;
},
{
pos = (263,233);
ref = hookabovecomb;
}
);
width = 1007;
}
);
metricLeft = O;
metricRight = O;
unicode = 7902;
},
{
glyphname = "Omega-latin";
lastChange = "2024-03-13 18:14:16 +0000";
layers = (
{
anchors = (
{
name = bottom;
pos = (839,0);
},
{
name = top;
pos = (839,1333);
}
);
layerId = "462F72A0-0500-4E69-A49B-6C2F2580580D";
shapes = (
{
closed = 1;
nodes = (
(630,0,ls),
(647,0,o),
(659,5,o),
(670,17,cs),
(839,185,l),
(852,185,l),
(1020,17,ls),
(1032,5,o),
(1044,0,o),
(1060,0,cs),
(1314,0,ls),
(1330,0,o),
(1342,5,o),
(1354,17,cs),
(1554,217,ls),
(1565,228,o),
(1570,240,o),
(1570,257,cs),
(1570,1127,ls),
(1570,1143,o),
(1565,1155,o),
(1554,1167,cs),
(1404,1317,ls),
(1392,1328,o),
(1380,1333,o),
(1364,1333,cs),
(1262,1333,ls),
(1247,1333,o),
(1237,1323,o),
(1237,1308,cs),
(1237,383,l),
(1012,383,l),
(1012,1308,ls),
(1012,1323,o),
(1002,1333,o),
(987,1333,cs),
(704,1333,ls),
(689,1333,o),
(679,1323,o),
(679,1308,cs),
(679,383,l),
(454,383,l),
(454,1308,ls),
(454,1323,o),
(444,1333,o),
(429,1333,cs),
(327,1333,ls),
(310,1333,o),
(299,1328,o),
(287,1317,cs),
(137,1167,ls),
(125,1155,o),
(120,1143,o),
(120,1127,cs),
(120,257,ls),
(120,240,o),
(125,228,o),
(137,217,cs),
(337,17,ls),
(349,5,o),
(360,0,o),
(377,0,cs)
);
}
);
width = 1690;
},
{
anchors = (
{
name = bottom;
pos = (750,0);
},
{
name = top;
pos = (750,1333);
}
);
layerId = m002;
shapes = (
{
closed = 1;
nodes = (
(518,0,ls),
(535,0,o),
(547,5,o),
(558,17,cs),
(727,185,l),
(773,185,l),
(942,17,ls),
(953,5,o),
(965,0,o),
(982,0,cs),
(1202,0,ls),
(1218,0,o),
(1230,5,o),
(1242,17,cs),
(1442,217,ls),
(1453,228,o),
(1458,240,o),
(1458,257,cs),
(1458,1077,ls),
(1458,1093,o),
(1453,1105,o),
(1442,1117,cs),
(1242,1317,ls),
(1230,1328,o),
(1218,1333,o),
(1202,1333,cs),
(1067,1333,ls),
(1052,1333,o),
(1042,1323,o),
(1042,1308,cs),
(1042,483,l),
(958,483,l),
(958,1308,ls),
(958,1323,o),
(948,1333,o),
(933,1333,cs),
(567,1333,ls),
(552,1333,o),
(542,1323,o),
(542,1308,cs),
(542,483,l),
(458,483,l),
(458,1308,ls),
(458,1323,o),
(448,1333,o),
(433,1333,cs),
(298,1333,ls),
(282,1333,o),
(270,1328,o),
(258,1317,cs),
(58,1117,ls),
(47,1105,o),
(42,1093,o),
(42,1077,cs),
(42,257,ls),
(42,240,o),
(47,228,o),
(58,217,cs),
(258,17,ls),
(270,5,o),
(282,0,o),
(298,0,cs)
);
}
);
width = 1500;
}
);
metricLeft = O;
metricRight = O;
unicode = 42934;
},
{
glyphname = Oslash;
kernLeft = KO_O;
kernRight = KO_Oacute;
lastChange = "2024-02-21 10:31:13 +0000";
layers = (
{
anchors = (
{
name = bottom;
pos = (574,0);
},
{
name = top;
pos = (594,1333);
}
);
layerId = "462F72A0-0500-4E69-A49B-6C2F2580580D";
shapes = (
{
ref = O;
},
{
closed = 1;
nodes = (
(233,-4,ls),
(248,-4,o),
(250,5,o),
(260,20,cs),
(373,192,l),
(414,254,l),
(807,849,l),
(851,916,l),
(1108,1306,ls),
(1117,1320,o),
(1107,1333,o),
(1087,1333,cs),
(892,1333,ls),
(881,1333,o),
(877,1330,o),
(865,1310,cs),
(771,1167,l),
(730,1105,l),
(399,604,l),
(334,505,l),
(16,23,ls),
(4,5,o),
(21,-4,o),
(38,-4,cs)
);
}
);
width = 1147;
},
{
anchors = (
{
name = bottom;
pos = (504,0);
},
{
name = top;
pos = (524,1333);
}
);
layerId = m002;
shapes = (
{
ref = O;
},
{
closed = 1;
nodes = (
(173,-4,ls),
(188,-4,o),
(190,5,o),
(200,20,cs),
(368,274,l),
(444,443,l),
(641,756,l),
(817,956,l),
(1048,1306,ls),
(1057,1320,o),
(1047,1333,o),
(1027,1333,cs),
(832,1333,ls),
(821,1333,o),
(817,1330,o),
(805,1310,cs),
(661,1091,l),
(556,882,l),
(409,630,l),
(297,539,l),
(-44,23,ls),
(-56,5,o),
(-39,-4,o),
(-22,-4,cs)
);
}
);
width = 1007;
}
);
unicode = 216;
},
{
glyphname = Otildeacute;
lastChange = "2024-03-01 11:57:40 +0000";
layers = (
{
background = {
anchors = (
{
name = bottom;
pos = (575,0);
},
{
name = center;
pos = (574,667);
},
{
name = ogonek;
pos = (770,0);
},
{
name = top;
pos = (575,1903);
},
{
name = topleft;
pos = (125,1333);
},
{
name = topright;
pos = (770,1333);
}
);
shapes = (
{
closed = 1;
nodes = (
(770,0,ls),
(787,0,o),
(799,5,o),
(810,17,cs),
(1010,217,ls),
(1022,228,o),
(1027,240,o),
(1027,257,cs),
(1027,1077,ls),
(1027,1093,o),
(1022,1105,o),
(1010,1117,cs),
(810,1317,ls),
(799,1328,o),
(787,1333,o),
(770,1333,cs),
(377,1333,ls),
(360,1333,o),
(349,1328,o),
(337,1317,cs),
(137,1117,ls),
(125,1105,o),
(120,1093,o),
(120,1077,cs),
(120,257,ls),
(120,240,o),
(125,228,o),
(137,217,cs),
(337,17,ls),
(349,5,o),
(360,0,o),
(377,0,cs)
);
},
{
closed = 1;
nodes = (
(465,267,o),
(454,287,o),
(454,323,cs),
(454,1010,ls),
(454,1047,o),
(465,1067,o),
(495,1067,cs),
(652,1067,ls),
(682,1067,o),
(694,1047,o),
(694,1010,cs),
(694,323,ls),
(694,287,o),
(682,267,o),
(652,267,cs),
(495,267,ls)
);
},
{
closed = 1;
nodes = (
(448,1383,ls),
(468,1383,o),
(475,1386,o),
(483,1400,cs),
(531,1476,l),
(550,1400,ls),
(555,1386,o),
(558,1383,o),
(566,1383,cs),
(705,1383,ls),
(716,1383,o),
(720,1386,o),
(725,1400,cs),
(786,1555,ls),
(793,1576,o),
(790,1583,o),
(773,1583,cs),
(693,1583,ls),
(670,1583,o),
(665,1581,o),
(658,1566,cs),
(631,1495,l),
(605,1566,ls),
(600,1580,o),
(596,1583,o),
(588,1583,cs),
(448,1583,ls),
(441,1583,o),
(436,1578,o),
(428,1566,cs),
(363,1410,ls),
(356,1390,o),
(360,1383,o),
(376,1383,cs)
);
},
{
closed = 1;
nodes = (
(730,1740,ls),
(741,1746,o),
(746,1756,o),
(741,1767,cs),
(684,1886,ls),
(679,1899,o),
(672,1908,o),
(657,1899,cs),
(421,1746,ls),
(407,1737,o),
(405,1729,o),
(410,1716,cs),
(445,1641,ls),
(450,1629,o),
(459,1626,o),
(472,1632,cs)
);
}
);
};
layerId = "462F72A0-0500-4E69-A49B-6C2F2580580D";
shapes = (
{
ref = O;
},
{
pos = (318,233);
ref = tildecomb_acutecomb;
}
);
width = 1147;
},
{
background = {
anchors = (
{
name = bottom;
pos = (507,0);
},
{
name = center;
pos = (420,667);
},
{
name = ogonek;
pos = (705,0);
},
{
name = top;
pos = (507,1833);
},
{
name = topleft;
pos = (-28,1333);
},
{
name = topright;
pos = (708,1333);
}
);
shapes = (
{
closed = 1;
nodes = (
(708,0,ls),
(725,0,o),
(737,5,o),
(748,17,cs),
(948,217,ls),
(960,228,o),
(965,240,o),
(965,257,cs),
(965,1077,ls),
(965,1093,o),
(960,1105,o),
(948,1117,cs),
(748,1317,ls),
(737,1328,o),
(725,1333,o),
(708,1333,cs),
(298,1333,ls),
(282,1333,o),
(270,1328,o),
(258,1317,cs),
(58,1117,ls),
(47,1105,o),
(42,1093,o),
(42,1077,cs),
(42,257,ls),
(42,240,o),
(47,228,o),
(58,217,cs),
(258,17,ls),
(270,5,o),
(282,0,o),
(298,0,cs)
);
},
{
closed = 1;
nodes = (
(470,400,o),
(458,420,o),
(458,457,cs),
(458,877,ls),
(458,913,o),
(470,933,o),
(500,933,cs),
(507,933,ls),
(537,933,o),
(548,913,o),
(548,877,cs),
(548,457,ls),
(548,420,o),
(537,400,o),
(507,400,cs),
(500,400,ls)
);
},
{
closed = 1;
nodes = (
(380,1383,ls),
(400,1383,o),
(407,1386,o),
(415,1400,cs),
(463,1476,l),
(482,1400,ls),
(487,1386,o),
(490,1383,o),
(498,1383,cs),
(637,1383,ls),
(648,1383,o),
(652,1386,o),
(657,1400,cs),
(718,1555,ls),
(725,1576,o),
(722,1583,o),
(705,1583,cs),
(625,1583,ls),
(602,1583,o),
(597,1581,o),
(590,1566,cs),
(563,1495,l),
(537,1566,ls),
(532,1580,o),
(528,1583,o),
(520,1583,cs),
(380,1583,ls),
(373,1583,o),
(368,1578,o),
(360,1566,cs),
(295,1410,ls),
(288,1390,o),
(292,1383,o),
(308,1383,cs)
);
},
{
closed = 1;
nodes = (
(650,1733,ls),
(660,1738,o),
(665,1748,o),
(660,1758,cs),
(608,1868,ls),
(603,1880,o),
(597,1888,o),
(583,1880,cs),
(365,1738,ls),
(352,1730,o),
(350,1723,o),
(355,1711,cs),
(387,1641,ls),
(392,1630,o),
(400,1628,o),
(412,1633,cs)
);
}
);
};
layerId = m002;
shapes = (
{
ref = O;
},
{
pos = (175,233);
ref = tildecomb_acutecomb;
}
);
width = 1007;
}
);
unicode = 7756;
},
{
glyphname = Otildedieresis;
lastChange = "2024-03-01 11:57:40 +0000";
layers = (
{
background = {
anchors = (
{
name = bottom;
pos = (575,0);
},
{
name = center;
pos = (574,667);
},
{
name = ogonek;
pos = (770,0);
},
{
name = top;
pos = (574.52,1793);
},
{
name = topleft;
pos = (125,1333);
},
{
name = topright;
pos = (770,1333);
}
);
shapes = (
{
closed = 1;
nodes = (
(770,0,ls),
(787,0,o),
(799,5,o),
(810,17,cs),
(1010,217,ls),
(1022,228,o),
(1027,240,o),
(1027,257,cs),
(1027,1077,ls),
(1027,1093,o),
(1022,1105,o),
(1010,1117,cs),
(810,1317,ls),
(799,1328,o),
(787,1333,o),
(770,1333,cs),
(377,1333,ls),
(360,1333,o),
(349,1328,o),
(337,1317,cs),
(137,1117,ls),
(125,1105,o),
(120,1093,o),
(120,1077,cs),
(120,257,ls),
(120,240,o),
(125,228,o),
(137,217,cs),
(337,17,ls),
(349,5,o),
(360,0,o),
(377,0,cs)
);
},
{
closed = 1;
nodes = (
(465,267,o),
(454,287,o),
(454,323,cs),
(454,1010,ls),
(454,1047,o),
(465,1067,o),
(495,1067,cs),
(652,1067,ls),
(682,1067,o),
(694,1047,o),
(694,1010,cs),
(694,323,ls),
(694,287,o),
(682,267,o),
(652,267,cs),
(495,267,ls)
);
},
{
closed = 1;
nodes = (
(448,1383,ls),
(468,1383,o),
(475,1386,o),
(483,1400,cs),
(531,1476,l),
(550,1400,ls),
(555,1386,o),
(558,1383,o),
(566,1383,cs),
(705,1383,ls),
(716,1383,o),
(720,1386,o),
(725,1400,cs),
(786,1555,ls),
(793,1576,o),
(790,1583,o),
(773,1583,cs),
(693,1583,ls),
(670,1583,o),
(665,1581,o),
(658,1566,cs),
(631,1495,l),
(605,1566,ls),
(600,1580,o),
(596,1583,o),
(588,1583,cs),
(448,1583,ls),
(441,1583,o),
(436,1578,o),
(428,1566,cs),
(363,1410,ls),
(356,1390,o),
(360,1383,o),
(376,1383,cs)
);
},
{
closed = 1;
nodes = (
(530,1653,ls),
(540,1653,o),
(545,1660,o),
(545,1670,cs),
(545,1776,ls),
(545,1786,o),
(540,1793,o),
(530,1793,cs),
(330,1793,ls),
(320,1793,o),
(313,1786,o),
(313,1776,cs),
(313,1670,ls),
(313,1660,o),
(320,1653,o),
(330,1653,cs)
);
},
{
closed = 1;
nodes = (
(820,1653,ls),
(830,1653,o),
(835,1660,o),
(835,1670,cs),
(835,1776,ls),
(835,1786,o),
(830,1793,o),
(820,1793,cs),
(620,1793,ls),
(610,1793,o),
(603,1786,o),
(603,1776,cs),
(603,1670,ls),
(603,1660,o),
(610,1653,o),
(620,1653,cs)
);
}
);
};
layerId = "462F72A0-0500-4E69-A49B-6C2F2580580D";
shapes = (
{
ref = O;
},
{
pos = (318,233);
ref = tildecomb;
},
{
pos = (222,483);
ref = dieresiscomb;
}
);
width = 1147;
},
{
background = {
anchors = (
{
name = bottom;
pos = (507,0);
},
{
name = center;
pos = (420,667);
},
{
name = ogonek;
pos = (705,0);
},
{
name = top;
pos = (506.52,1793);
},
{
name = topleft;
pos = (-28,1333);
},
{
name = topright;
pos = (708,1333);
}
);
shapes = (
{
closed = 1;
nodes = (
(708,0,ls),
(725,0,o),
(737,5,o),
(748,17,cs),
(948,217,ls),
(960,228,o),
(965,240,o),
(965,257,cs),
(965,1077,ls),
(965,1093,o),
(960,1105,o),
(948,1117,cs),
(748,1317,ls),
(737,1328,o),
(725,1333,o),
(708,1333,cs),
(298,1333,ls),
(282,1333,o),
(270,1328,o),
(258,1317,cs),
(58,1117,ls),
(47,1105,o),
(42,1093,o),
(42,1077,cs),
(42,257,ls),
(42,240,o),
(47,228,o),
(58,217,cs),
(258,17,ls),
(270,5,o),
(282,0,o),
(298,0,cs)
);
},
{
closed = 1;
nodes = (
(470,400,o),
(458,420,o),
(458,457,cs),
(458,877,ls),
(458,913,o),
(470,933,o),
(500,933,cs),
(507,933,ls),
(537,933,o),
(548,913,o),
(548,877,cs),
(548,457,ls),
(548,420,o),
(537,400,o),
(507,400,cs),
(500,400,ls)
);
},
{
closed = 1;
nodes = (
(380,1383,ls),
(400,1383,o),
(407,1386,o),
(415,1400,cs),
(463,1476,l),
(482,1400,ls),
(487,1386,o),
(490,1383,o),
(498,1383,cs),
(637,1383,ls),
(648,1383,o),
(652,1386,o),
(657,1400,cs),
(718,1555,ls),
(725,1576,o),
(722,1583,o),
(705,1583,cs),
(625,1583,ls),
(602,1583,o),
(597,1581,o),
(590,1566,cs),
(563,1495,l),
(537,1566,ls),
(532,1580,o),
(528,1583,o),
(520,1583,cs),
(380,1583,ls),
(373,1583,o),
(368,1578,o),
(360,1566,cs),
(295,1410,ls),
(288,1390,o),
(292,1383,o),
(308,1383,cs)
);
},
{
closed = 1;
nodes = (
(462,1653,ls),
(472,1653,o),
(477,1660,o),
(477,1670,cs),
(477,1776,ls),
(477,1786,o),
(472,1793,o),
(462,1793,cs),
(262,1793,ls),
(252,1793,o),
(245,1786,o),
(245,1776,cs),
(245,1670,ls),
(245,1660,o),
(252,1653,o),
(262,1653,cs)
);
},
{
closed = 1;
nodes = (
(752,1653,ls),
(762,1653,o),
(767,1660,o),
(767,1670,cs),
(767,1776,ls),
(767,1786,o),
(762,1793,o),
(752,1793,cs),
(552,1793,ls),
(542,1793,o),
(535,1786,o),
(535,1776,cs),
(535,1670,ls),
(535,1660,o),
(542,1653,o),
(552,1653,cs)
);
}
);
};
layerId = m002;
shapes = (
{
ref = O;
},
{
pos = (175,233);
ref = tildecomb;
},
{
pos = (154,483);
ref = dieresiscomb;
}
);
width = 1007;
}
);
unicode = 7758;
},
{
glyphname = Otildemacron;
lastChange = "2024-03-01 11:57:40 +0000";
layers = (
{
background = {
anchors = (
{
name = bottom;
pos = (575,0);
},
{
name = center;
pos = (574,667);
},
{
name = ogonek;
pos = (770,0);
},
{
name = top;
pos = (575,1833);
},
{
name = topleft;
pos = (125,1333);
},
{
name = topright;
pos = (770,1333);
}
);
shapes = (
{
closed = 1;
nodes = (
(770,0,ls),
(787,0,o),
(799,5,o),
(810,17,cs),
(1010,217,ls),
(1022,228,o),
(1027,240,o),
(1027,257,cs),
(1027,1077,ls),
(1027,1093,o),
(1022,1105,o),
(1010,1117,cs),
(810,1317,ls),
(799,1328,o),
(787,1333,o),
(770,1333,cs),
(377,1333,ls),
(360,1333,o),
(349,1328,o),
(337,1317,cs),
(137,1117,ls),
(125,1105,o),
(120,1093,o),
(120,1077,cs),
(120,257,ls),
(120,240,o),
(125,228,o),
(137,217,cs),
(337,17,ls),
(349,5,o),
(360,0,o),
(377,0,cs)
);
},
{
closed = 1;
nodes = (
(465,267,o),
(454,287,o),
(454,323,cs),
(454,1010,ls),
(454,1047,o),
(465,1067,o),
(495,1067,cs),
(652,1067,ls),
(682,1067,o),
(694,1047,o),
(694,1010,cs),
(694,323,ls),
(694,287,o),
(682,267,o),
(652,267,cs),
(495,267,ls)
);
},
{
closed = 1;
nodes = (
(448,1383,ls),
(468,1383,o),
(475,1386,o),
(483,1400,cs),
(531,1476,l),
(550,1400,ls),
(555,1386,o),
(558,1383,o),
(566,1383,cs),
(705,1383,ls),
(716,1383,o),
(720,1386,o),
(725,1400,cs),
(786,1555,ls),
(793,1576,o),
(790,1583,o),
(773,1583,cs),
(693,1583,ls),
(670,1583,o),
(665,1581,o),
(658,1566,cs),
(631,1495,l),
(605,1566,ls),
(600,1580,o),
(596,1583,o),
(588,1583,cs),
(448,1583,ls),
(441,1583,o),
(436,1578,o),
(428,1566,cs),
(363,1410,ls),
(356,1390,o),
(360,1383,o),
(376,1383,cs)
);
},
{
closed = 1;
nodes = (
(748,1700,ls),
(763,1700,o),
(773,1710,o),
(773,1725,cs),
(773,1775,ls),
(773,1790,o),
(763,1800,o),
(748,1800,cs),
(397,1800,ls),
(382,1800,o),
(372,1790,o),
(372,1775,cs),
(372,1725,ls),
(372,1710,o),
(382,1700,o),
(397,1700,cs)
);
}
);
};
layerId = "462F72A0-0500-4E69-A49B-6C2F2580580D";
shapes = (
{
ref = O;
},
{
pos = (318,233);
ref = tildecomb;
},
{
pos = (330,483);
ref = macroncomb;
}
);
width = 1147;
},
{
background = {
anchors = (
{
name = bottom;
pos = (507,0);
},
{
name = center;
pos = (420,667);
},
{
name = ogonek;
pos = (705,0);
},
{
name = top;
pos = (507,1833);
},
{
name = topleft;
pos = (-28,1333);
},
{
name = topright;
pos = (708,1333);
}
);
shapes = (
{
closed = 1;
nodes = (
(708,0,ls),
(725,0,o),
(737,5,o),
(748,17,cs),
(948,217,ls),
(960,228,o),
(965,240,o),
(965,257,cs),
(965,1077,ls),
(965,1093,o),
(960,1105,o),
(948,1117,cs),
(748,1317,ls),
(737,1328,o),
(725,1333,o),
(708,1333,cs),
(298,1333,ls),
(282,1333,o),
(270,1328,o),
(258,1317,cs),
(58,1117,ls),
(47,1105,o),
(42,1093,o),
(42,1077,cs),
(42,257,ls),
(42,240,o),
(47,228,o),
(58,217,cs),
(258,17,ls),
(270,5,o),
(282,0,o),
(298,0,cs)
);
},
{
closed = 1;
nodes = (
(470,400,o),
(458,420,o),
(458,457,cs),
(458,877,ls),
(458,913,o),
(470,933,o),
(500,933,cs),
(507,933,ls),
(537,933,o),
(548,913,o),
(548,877,cs),
(548,457,ls),
(548,420,o),
(537,400,o),
(507,400,cs),
(500,400,ls)
);
},
{
closed = 1;
nodes = (
(380,1383,ls),
(400,1383,o),
(407,1386,o),
(415,1400,cs),
(463,1476,l),
(482,1400,ls),
(487,1386,o),
(490,1383,o),
(498,1383,cs),
(637,1383,ls),
(648,1383,o),
(652,1386,o),
(657,1400,cs),
(718,1555,ls),
(725,1576,o),
(722,1583,o),
(705,1583,cs),
(625,1583,ls),
(602,1583,o),
(597,1581,o),
(590,1566,cs),
(563,1495,l),
(537,1566,ls),
(532,1580,o),
(528,1583,o),
(520,1583,cs),
(380,1583,ls),
(373,1583,o),
(368,1578,o),
(360,1566,cs),
(295,1410,ls),
(288,1390,o),
(292,1383,o),
(308,1383,cs)
);
},
{
closed = 1;
nodes = (
(680,1700,ls),
(695,1700,o),
(705,1710,o),
(705,1725,cs),
(705,1775,ls),
(705,1790,o),
(695,1800,o),
(680,1800,cs),
(329,1800,ls),
(314,1800,o),
(304,1790,o),
(304,1775,cs),
(304,1725,ls),
(304,1710,o),
(314,1700,o),
(329,1700,cs)
);
}
);
};
layerId = m002;
shapes = (
{
ref = O;
},
{
pos = (175,233);
ref = tildecomb;
},
{
pos = (262,483);
ref = macroncomb;
}
);
width = 1007;
}
);
unicode = 556;
},
{
glyphname = OE;
kernLeft = KO_OE;
kernRight = KO_E;
lastChange = "2024-03-13 18:12:48 +0000";
layers = (
{
associatedMasterId = "462F72A0-0500-4E69-A49B-6C2F2580580D";
layerId = "B771DCE8-F7BC-4EC8-842A-FB14B079C25B";
name = "Jul 10 22, 17:32";
shapes = (
{
ref = O;
},
{
alignment = -1;
pos = (500,0);
ref = E;
}
);
width = 1327;
},
{
anchors = (
{
name = bottom;
pos = (515,-50);
},
{
name = center;
pos = (513,667);
},
{
name = ogonek;
pos = (898,17);
},
{
name = top;
pos = (515,1333);
},
{
name = topleft;
pos = (65,1333);
},
{
name = topright;
pos = (923,1317);
}
);
associatedMasterId = "462F72A0-0500-4E69-A49B-6C2F2580580D";
layerId = "78042DB7-A5F5-4B9C-B355-1539F89D4BD7";
name = "Jul 10 22, 17:32";
shapes = (
{
closed = 1;
nodes = (
(753,0,ls),
(765,0,o),
(777,3,o),
(785,13,cs),
(968,203,ls),
(977,213,o),
(980,223,o),
(980,235,cs),
(980,1098,ls),
(980,1110,o),
(977,1120,o),
(968,1130,cs),
(785,1320,ls),
(777,1330,o),
(765,1333,o),
(753,1333,cs),
(273,1333,ls),
(262,1333,o),
(250,1330,o),
(242,1320,cs),
(58,1130,ls),
(50,1120,o),
(47,1110,o),
(47,1098,cs),
(47,235,ls),
(47,223,o),
(50,213,o),
(58,203,cs),
(242,13,ls),
(250,3,o),
(262,0,o),
(273,0,cs)
);
},
{
closed = 1;
nodes = (
(480,377,o),
(460,397,o),
(460,433,cs),
(460,900,ls),
(460,937,o),
(480,957,o),
(513,957,c),
(567,957,l),
(567,377,l),
(513,377,l)
);
},
{
closed = 1;
nodes = (
(1297,1308,ls),
(1297,1322,o),
(1285,1333,o),
(1272,1333,cs),
(575,1333,ls),
(562,1333,o),
(550,1322,o),
(550,1308,cs),
(550,25,ls),
(550,12,o),
(562,0,o),
(575,0,cs),
(1295,2,ls),
(1308,2,o),
(1320,13,o),
(1320,27,cs),
(1320,363,ls),
(1320,377,o),
(1308,388,o),
(1295,388,cs),
(962,388,l),
(962,465,l),
(1272,465,ls),
(1285,465,o),
(1297,477,o),
(1297,490,cs),
(1297,812,ls),
(1297,825,o),
(1285,837,o),
(1272,837,cs),
(962,837,l),
(962,927,l),
(1272,927,ls),
(1285,927,o),
(1297,938,o),
(1297,952,cs)
);
}
);
width = 1327;
},
{
anchors = (
{
name = bottom;
pos = (1060,0);
},
{
name = ogonek;
pos = (1440,25);
},
{
name = top;
pos = (1060,1333);
}
);
layerId = "462F72A0-0500-4E69-A49B-6C2F2580580D";
shapes = (
{
closed = 1;
nodes = (
(1415,0,ls),
(1429,0,o),
(1440,12,o),
(1440,25,cs),
(1440,242,ls),
(1440,255,o),
(1429,267,o),
(1415,267,cs),
(1027,267,l),
(1027,550,l),
(1382,550,ls),
(1395,550,o),
(1407,562,o),
(1407,575,cs),
(1407,758,ls),
(1407,772,o),
(1395,783,o),
(1382,783,cs),
(1027,783,l),
(1027,1067,l),
(1415,1067,ls),
(1429,1067,o),
(1440,1078,o),
(1440,1092,cs),
(1440,1308,ls),
(1440,1322,o),
(1429,1333,o),
(1415,1333,cs),
(377,1333,ls),
(360,1333,o),
(349,1328,o),
(337,1317,cs),
(137,1117,ls),
(125,1105,o),
(120,1093,o),
(120,1077,cs),
(120,257,ls),
(120,240,o),
(125,228,o),
(137,217,cs),
(337,17,ls),
(349,5,o),
(360,0,o),
(377,0,cs)
);
},
{
closed = 1;
nodes = (
(465,267,o),
(454,287,o),
(454,323,cs),
(454,1010,ls),
(454,1047,o),
(465,1067,o),
(495,1067,cs),
(652,1067,ls),
(682,1067,o),
(694,1047,o),
(694,1010,cs),
(694,323,ls),
(694,287,o),
(682,267,o),
(652,267,cs),
(495,267,ls)
);
}
);
width = 1560;
},
{
associatedMasterId = m002;
layerId = "A38F4E60-AD32-478F-B284-2DBAC7F6AD6B";
name = "Jul 10 22, 17:32";
shapes = (
{
ref = O;
},
{
alignment = -1;
pos = (500,0);
ref = E;
}
);
width = 1327;
},
{
anchors = (
{
name = bottom;
pos = (515,-50);
},
{
name = center;
pos = (513,667);
},
{
name = ogonek;
pos = (898,17);
},
{
name = top;
pos = (515,1333);
},
{
name = topleft;
pos = (65,1333);
},
{
name = topright;
pos = (923,1317);
}
);
associatedMasterId = m002;
layerId = "66B06FA0-ACFD-4ADD-867E-AE2FEE225A3C";
name = "Jul 10 22, 17:32";
shapes = (
{
closed = 1;
nodes = (
(753,0,ls),
(765,0,o),
(777,3,o),
(785,13,cs),
(968,203,ls),
(977,213,o),
(980,223,o),
(980,235,cs),
(980,1098,ls),
(980,1110,o),
(977,1120,o),
(968,1130,cs),
(785,1320,ls),
(777,1330,o),
(765,1333,o),
(753,1333,cs),
(273,1333,ls),
(262,1333,o),
(250,1330,o),
(242,1320,cs),
(58,1130,ls),
(50,1120,o),
(47,1110,o),
(47,1098,cs),
(47,235,ls),
(47,223,o),
(50,213,o),
(58,203,cs),
(242,13,ls),
(250,3,o),
(262,0,o),
(273,0,cs)
);
},
{
closed = 1;
nodes = (
(480,377,o),
(460,397,o),
(460,433,cs),
(460,900,ls),
(460,937,o),
(480,957,o),
(513,957,c),
(567,957,l),
(567,377,l),
(513,377,l)
);
},
{
closed = 1;
nodes = (
(1297,1308,ls),
(1297,1322,o),
(1285,1333,o),
(1272,1333,cs),
(575,1333,ls),
(562,1333,o),
(550,1322,o),
(550,1308,cs),
(550,25,ls),
(550,12,o),
(562,0,o),
(575,0,cs),
(1295,2,ls),
(1308,2,o),
(1320,13,o),
(1320,27,cs),
(1320,363,ls),
(1320,377,o),
(1308,388,o),
(1295,388,cs),
(962,388,l),
(962,465,l),
(1272,465,ls),
(1285,465,o),
(1297,477,o),
(1297,490,cs),
(1297,812,ls),
(1297,825,o),
(1285,837,o),
(1272,837,cs),
(962,837,l),
(962,927,l),
(1272,927,ls),
(1285,927,o),
(1297,938,o),
(1297,952,cs)
);
}
);
width = 1327;
},
{
anchors = (
{
name = bottom;
pos = (677,0);
},
{
name = ogonek;
pos = (1310,27);
},
{
name = top;
pos = (677,1333);
}
);
layerId = m002;
shapes = (
{
closed = 1;
nodes = (
(1285,2,ls),
(1298,2,o),
(1310,13,o),
(1310,27,cs),
(1310,363,ls),
(1310,377,o),
(1298,388,o),
(1285,388,cs),
(952,388,l),
(952,465,l),
(1262,465,ls),
(1275,465,o),
(1287,477,o),
(1287,490,cs),
(1287,812,ls),
(1287,825,o),
(1275,837,o),
(1262,837,cs),
(952,837,l),
(952,927,l),
(1262,927,ls),
(1275,927,o),
(1287,938,o),
(1287,952,cs),
(1287,1308,ls),
(1287,1322,o),
(1275,1333,o),
(1262,1333,cs),
(268,1333,ls),
(257,1333,o),
(245,1330,o),
(237,1320,cs),
(53,1130,ls),
(45,1120,o),
(42,1110,o),
(42,1098,cs),
(42,235,ls),
(42,223,o),
(45,213,o),
(53,203,cs),
(237,13,ls),
(245,3,o),
(257,0,o),
(268,0,cs)
);
},
{
closed = 1;
nodes = (
(470,400,o),
(458,420,o),
(458,457,cs),
(458,877,ls),
(458,913,o),
(470,933,o),
(500,933,cs),
(507,933,ls),
(537,933,o),
(548,913,o),
(548,877,cs),
(548,457,ls),
(548,420,o),
(537,400,o),
(507,400,cs),
(500,400,ls)
);
}
);
width = 1352;
}
);
metricLeft = "=O";
metricRight = "=E";
unicode = 338;
},
